{
copyright = "Copyright(c) 2012 Abelardo Gonzalez (abbie@abbiecod.es), with Reserved Font Name \"Eulexia-Bold";
customParameters = (
{
name = glyphOrder;
value = (
    ".notdef",
    NULL,
    uni000D,
    space,
    exclam,
    quotedbl,
    numbersign,
    dollar,
    percent,
    ampersand,
    quotesingle,
    parenleft,
    parenright,
    asterisk,
    plus,
    comma,
    hyphen,
    period,
    slash,
    zero,
    one,
    two,
    three,
    four,
    five,
    six,
    seven,
    eight,
    nine,
    colon,
    semicolon,
    less,
    equal,
    greater,
    question,
    at,
    A,
    B,
    C,
    D,
    E,
    F,
    G,
    H,
    I,
    J,
    K,
    L,
    M,
    N,
    O,
    P,
    Q,
    R,
    S,
    T,
    U,
    V,
    W,
    X,
    Y,
    Z,
    bracketleft,
    backslash,
    bracketright,
    asciicircum,
    underscore,
    grave,
    a,
    b,
    c,
    d,
    e,
    f,
    g,
    h,
    i,
    j,
    k,
    l,
    m,
    n,
    o,
    p,
    q,
    r,
    s,
    t,
    u,
    v,
    w,
    x,
    y,
    z,
    braceleft,
    bar,
    braceright,
    asciitilde,
    exclamdown,
    cent,
    sterling,
    currency,
    yen,
    brokenbar,
    section,
    dieresis,
    copyright,
    ordfeminine,
    guillemotleft,
    logicalnot,
    registered,
    macron,
    degree,
    plusminus,
    twosuperior,
    threesuperior,
    acute,
    mu1,
    paragraph,
    periodcentered,
    cedilla,
    onesuperior,
    ordmasculine,
    guillemotright,
    onequarter,
    onehalf,
    threequarters,
    questiondown,
    Agrave,
    Aacute,
    Acircumflex,
    Atilde,
    Adieresis,
    Aring,
    AE,
    Ccedilla,
    Egrave,
    Eacute,
    Ecircumflex,
    Edieresis,
    Igrave,
    Iacute,
    Icircumflex,
    Idieresis,
    Eth,
    Ntilde,
    Ograve,
    Oacute,
    Ocircumflex,
    Otilde,
    Odieresis,
    multiply,
    Oslash,
    Ugrave,
    Uacute,
    Ucircumflex,
    Udieresis,
    Yacute,
    Thorn,
    germandbls,
    agrave,

glyphs = (
{
glyphname = exclam;
lastChange = "2012-07-01 20:33:18 +0000";
layers = (
{
layerId = "3DB320B4-16A0-42F5-9048-CF6BF22037FA";
name = Bold;
paths = (
{
closed = 1;
nodes = (
"525 370 LINE",
"213 370 LINE",
"246 1387 LINE",
"508 1387 LINE"
);
},
{
closed = 1;
nodes = (
"238 0 LINE",
"238 262 LINE",
"503 262 LINE",
"503 0 LINE"
);
}
);
width = 769;
}
);
unicode = 0021;
},
{
glyphname = quotedbl;
lastChange = "2012-07-01 20:33:18 +0000";
layers = (
{
layerId = "3DB320B4-16A0-42F5-9048-CF6BF22037FA";
name = Bold;
paths = (
{
closed = 1;
nodes = (
"885 881 LINE",
"637 881 LINE",
"637 1406 LINE",
"911 1406 LINE"
);
},
{
closed = 1;
nodes = (
"567 881 LINE",
"294 881 LINE",
"294 1406 LINE",
"567 1406 LINE"
);
}
);
width = 1178;
}
);
unicode = 0022;
},
{
glyphname = numbersign;
lastChange = "2012-07-01 20:33:18 +0000";
layers = (
{
layerId = "3DB320B4-16A0-42F5-9048-CF6BF22037FA";
name = Bold;
paths = (
{
closed = 1;
nodes = (
"1056 806 LINE",
"1008 574 LINE",
"1237 574 LINE",
"1237 362 LINE",
"962 362 LINE",
"880 -19 LINE",
"655 -19 LINE",
"736 362 LINE",
"521 362 LINE",
"441 -19 LINE",
"217 -19 LINE",
"296 362 LINE",
"120 362 LINE",
"120 574 LINE",
"341 574 LINE",
"389 806 LINE",
"168 806 LINE",
"168 1018 LINE",
"434 1018 LINE",
"441 1048 OFFCURVE",
"448 1079 OFFCURVE",
"455 1112 CURVE SMOOTH",
"462 1145 OFFCURVE",
"469 1178 OFFCURVE",
"476 1211 CURVE SMOOTH",
"491 1277 OFFCURVE",
"505 1340 OFFCURVE",
"517 1399 CURVE",
"742 1399 LINE",
"660 1018 LINE",
"876 1018 LINE",
"958 1399 LINE",
"1183 1399 LINE",
"1101 1018 LINE",
"1285 1018 LINE",
"1285 806 LINE"
);
},
{
closed = 1;
nodes = (
"619 806 LINE",
"567 574 LINE",
"782 574 LINE",
"830 806 LINE"
);
}
);
width = 1400;
}
);
unicode = 0023;
},
{
glyphname = dollar;
lastChange = "2012-07-01 20:33:18 +0000";
layers = (
{
layerId = "3DB320B4-16A0-42F5-9048-CF6BF22037FA";
name = Bold;
paths = (
{
closed = 1;
nodes = (
"571 3 LINE",
"312 24 OFFCURVE",
"155 167 OFFCURVE",
"100 433 CURVE",
"376 492 LINE",
"395 401 OFFCURVE",
"419 347 OFFCURVE",
"451 313 CURVE SMOOTH",
"483 279 OFFCURVE",
"523 264 OFFCURVE",
"571 255 CURVE",
"571 612 LINE",
"475 637 OFFCURVE",
"411 659 OFFCURVE",
"364 684 CURVE SMOOTH",
"317 708 OFFCURVE",
"285 735 OFFCURVE",
"256 768 CURVE SMOOTH",
"193 837 OFFCURVE",
"169 907 OFFCURVE",
"169 1012 CURVE SMOOTH",
"169 1125 OFFCURVE",
"211 1215 OFFCURVE",
"295 1280 CURVE SMOOTH",
"368 1337 OFFCURVE",
"460 1372 OFFCURVE",
"571 1381 CURVE",
"571 1506 LINE",
"808 1506 LINE",
"808 1381 LINE",
"912 1372 OFFCURVE",
"997 1344 OFFCURVE",
"1066 1283 CURVE SMOOTH",
"1134 1222 OFFCURVE",
"1186 1128 OFFCURVE",
"1226 987 CURVE",
"941 934 LINE",
"914 1055 OFFCURVE",
"872 1112 OFFCURVE",
"808 1129 CURVE",
"808 824 LINE",
"904 801 OFFCURVE",
"972 778 OFFCURVE",
"1023 754 CURVE SMOOTH",
"1074 730 OFFCURVE",
"1109 703 OFFCURVE",
"1141 672 CURVE SMOOTH",
"1208 607 OFFCURVE",
"1240 521 OFFCURVE",
"1240 406 CURVE SMOOTH",
"1240 295 OFFCURVE",
"1197 201 OFFCURVE",
"1122 131 CURVE SMOOTH",
"1046 61 OFFCURVE",
"939 15 OFFCURVE",
"808 3 CURVE",
"808 -151 LINE",
"571 -151 LINE"
);
},
{
closed = 1;
nodes = (
"959 448 OFFCURVE",
"948 478 OFFCURVE",
"924 501 CURVE SMOOTH",
"899 524 OFFCURVE",
"861 539 OFFCURVE",
"808 554 CURVE",
"808 254 LINE",
"851 262 OFFCURVE",
"888 277 OFFCURVE",
"916 302 CURVE SMOOTH",
"943 327 OFFCURVE",
"959 360 OFFCURVE",
"959 404 CURVE SMOOTH"
);
},
{
closed = 1;
nodes = (
"450 946 OFFCURVE",
"488 907 OFFCURVE",
"571 879 CURVE",
"571 1136 LINE",
"490 1123 OFFCURVE",
"450 1083 OFFCURVE",
"450 1014 CURVE SMOOTH"
);
}
);
width = 1370;
}
);
unicode = 0024;
},
{
glyphname = percent;
lastChange = "2012-07-01 20:33:18 +0000";
layers = (
{
layerId = "3DB320B4-16A0-42F5-9048-CF6BF22037FA";
name = Bold;
paths = (
{
closed = 1;
nodes = (
"1873 294 OFFCURVE",
"1843 175 OFFCURVE",
"1783 95 CURVE SMOOTH",
"1723 14 OFFCURVE",
"1634 -30 OFFCURVE",
"1514 -30 CURVE SMOOTH",
"1277 -30 OFFCURVE",
"1160 137 OFFCURVE",
"1160 442 CURVE SMOOTH",
"1160 755 OFFCURVE",
"1267 918 OFFCURVE",
"1518 918 CURVE SMOOTH",
"1642 918 OFFCURVE",
"1732 875 OFFCURVE",
"1789 795 CURVE SMOOTH",
"1846 714 OFFCURVE",
"1873 595 OFFCURVE",
"1873 442 CURVE SMOOTH"
);
},
{
closed = 1;
nodes = (
"708 -19 LINE",
"423 -19 LINE",
"1356 1406 LINE",
"1643 1406 LINE"
);
},
{
closed = 1;
nodes = (
"792 1417 OFFCURVE",
"903 1251 OFFCURVE",
"903 946 CURVE SMOOTH",
"903 797 OFFCURVE",
"874 677 OFFCURVE",
"815 596 CURVE SMOOTH",
"756 515 OFFCURVE",
"667 470 OFFCURVE",
"547 470 CURVE SMOOTH",
"427 470 OFFCURVE",
"338 514 OFFCURVE",
"279 595 CURVE SMOOTH",
"220 676 OFFCURVE",
"191 795 OFFCURVE",
"191 946 CURVE SMOOTH",
"191 1099 OFFCURVE",
"217 1217 OFFCURVE",
"276 1297 CURVE SMOOTH",
"335 1376 OFFCURVE",
"424 1417 OFFCURVE",
"551 1417 CURVE SMOOTH"
);
},
{
closed = 1;
nodes = (
"1614 535 OFFCURVE",
"1606 601 OFFCURVE",
"1591 642 CURVE SMOOTH",
"1576 683 OFFCURVE",
"1551 703 OFFCURVE",
"1518 703 CURVE SMOOTH",
"1487 703 OFFCURVE",
"1464 687 OFFCURVE",
"1448 656 CURVE SMOOTH",
"1428 618 OFFCURVE",
"1418 547 OFFCURVE",
"1418 442 CURVE SMOOTH",
"1418 351 OFFCURVE",
"1426 285 OFFCURVE",
"1442 245 CURVE SMOOTH",
"1457 204 OFFCURVE",
"1482 184 OFFCURVE",
"1516 184 CURVE SMOOTH",
"1548 184 OFFCURVE",
"1572 205 OFFCURVE",
"1589 246 CURVE SMOOTH",
"1606 287 OFFCURVE",
"1614 352 OFFCURVE",
"1614 442 CURVE SMOOTH"
);
},
{
closed = 1;
nodes = (
"645 946 LINE",
"645 1037 OFFCURVE",
"638 1103 OFFCURVE",
"624 1144 CURVE SMOOTH",
"609 1185 OFFCURVE",
"585 1205 OFFCURVE",
"551 1205 CURVE SMOOTH",
"515 1205 OFFCURVE",
"489 1196 OFFCURVE",
"473 1164 CURVE SMOOTH",
"457 1132 OFFCURVE",
"449 1076 OFFCURVE",
"449 983 CURVE SMOOTH",
"449 891 OFFCURVE",
"457 825 OFFCURVE",
"474 785 CURVE SMOOTH",
"490 744 OFFCURVE",
"515 724 OFFCURVE",
"549 724 CURVE SMOOTH",
"580 724 OFFCURVE",
"603 745 OFFCURVE",
"620 786 CURVE SMOOTH",
"637 827 OFFCURVE",
"645 893 OFFCURVE",
"645 983 CURVE"
);
}
);
width = 2065;
}
);
unicode = 0025;
},
{
glyphname = ampersand;
lastChange = "2012-07-01 20:33:18 +0000";
layers = (
{
layerId = "3DB320B4-16A0-42F5-9048-CF6BF22037FA";
name = Bold;
paths = (
{
closed = 1;
nodes = (
"1135 -30 OFFCURVE",
"1040 3 OFFCURVE",
"967 66 CURVE",
"896 15 OFFCURVE",
"772 -37 OFFCURVE",
"625 -37 CURVE SMOOTH",
"474 -37 OFFCURVE",
"354 4 OFFCURVE",
"272 77 CURVE SMOOTH",
"190 149 OFFCURVE",
"145 254 OFFCURVE",
"145 383 CURVE SMOOTH",
"145 568 OFFCURVE",
"245 710 OFFCURVE",
"445 809 CURVE",
"429 845 OFFCURVE",
"416 890 OFFCURVE",
"406 935 CURVE SMOOTH",
"396 979 OFFCURVE",
"389 1025 OFFCURVE",
"389 1064 CURVE SMOOTH",
"389 1172 OFFCURVE",
"424 1260 OFFCURVE",
"491 1320 CURVE SMOOTH",
"558 1380 OFFCURVE",
"653 1413 OFFCURVE",
"776 1413 CURVE SMOOTH",
"887 1413 OFFCURVE",
"980 1382 OFFCURVE",
"1046 1326 CURVE SMOOTH",
"1112 1270 OFFCURVE",
"1150 1190 OFFCURVE",
"1150 1093 CURVE SMOOTH",
"1150 1010 OFFCURVE",
"1123 939 OFFCURVE",
"1064 875 CURVE SMOOTH",
"1005 811 OFFCURVE",
"915 754 OFFCURVE",
"790 701 CURVE",
"842 610 OFFCURVE",
"899 531 OFFCURVE",
"968 447 CURVE",
"1021 524 OFFCURVE",
"1068 643 OFFCURVE",
"1105 799 CURVE",
"1348 723 LINE",
"1302 541 OFFCURVE",
"1238 386 OFFCURVE",
"1155 257 CURVE",
"1191 226 OFFCURVE",
"1228 213 OFFCURVE",
"1272 213 CURVE SMOOTH",
"1307 213 OFFCURVE",
"1363 226 OFFCURVE",
"1442 253 CURVE",
"1442 10 LINE",
"1376 -17 OFFCURVE",
"1312 -30 OFFCURVE",
"1250 -30 CURVE SMOOTH"
);
},
{
closed = 1;
nodes = (
"887 1200 OFFCURVE",
"844 1243 OFFCURVE",
"776 1243 CURVE SMOOTH",
"695 1243 OFFCURVE",
"653 1190 OFFCURVE",
"652 1094 CURVE SMOOTH",
"652 1087 LINE SMOOTH",
"652 1028 OFFCURVE",
"663 970 OFFCURVE",
"682 911 CURVE",
"758 950 OFFCURVE",
"808 983 OFFCURVE",
"840 1018 CURVE SMOOTH",
"872 1053 OFFCURVE",
"884 1088 OFFCURVE",
"887 1131 CURVE"
);
},
{
closed = 1;
nodes = (
"757 240 OFFCURVE",
"772 243 OFFCURVE",
"787 252 CURVE",
"695 365 OFFCURVE",
"620 478 OFFCURVE",
"556 590 CURVE",
"467 544 OFFCURVE",
"422 476 OFFCURVE",
"422 385 CURVE SMOOTH",
"422 349 OFFCURVE",
"442 311 OFFCURVE",
"478 283 CURVE SMOOTH",
"514 254 OFFCURVE",
"567 234 OFFCURVE",
"631 234 CURVE SMOOTH",
"667 234 OFFCURVE",
"706 236 OFFCURVE",
"741 239 CURVE SMOOTH"
);
}
);
width = 1570;
}
);
unicode = 0026;
},
{
glyphname = quotesingle;
lastChange = "2012-07-01 20:33:18 +0000";
layers = (
{
layerId = "3DB320B4-16A0-42F5-9048-CF6BF22037FA";
name = Bold;
paths = (
{
closed = 1;
nodes = (
"613 863 LINE",
"294 863 LINE",
"294 1425 LINE",
"613 1425 LINE"
);
}
);
width = 903;
}
);
unicode = 0027;
},
{
glyphname = parenleft;
lastChange = "2012-07-01 20:33:18 +0000";
layers = (
{
layerId = "3DB320B4-16A0-42F5-9048-CF6BF22037FA";
name = Bold;
paths = (
{
closed = 1;
nodes = (
"127 730 OFFCURVE",
"160 892 OFFCURVE",
"226 1042 CURVE SMOOTH",
"292 1192 OFFCURVE",
"391 1330 OFFCURVE",
"532 1474 CURVE",
"850 1462 LINE",
"678 1284 OFFCURVE",
"563 1126 OFFCURVE",
"506 988 CURVE SMOOTH",
"450 855 OFFCURVE",
"412 695 OFFCURVE",
"412 532 CURVE SMOOTH",
"412 367 OFFCURVE",
"435 211 OFFCURVE",
"479 74 CURVE SMOOTH",
"523 -63 OFFCURVE",
"627 -238 OFFCURVE",
"783 -425 CURVE",
"466 -414 LINE",
"334 -261 OFFCURVE",
"248 -115 OFFCURVE",
"195 39 CURVE SMOOTH",
"142 193 OFFCURVE",
"122 354 OFFCURVE",
"122 542 CURVE SMOOTH"
);
}
);
width = 926;
}
);
unicode = 0028;
},
{
glyphname = parenright;
lastChange = "2012-07-01 20:33:18 +0000";
layers = (
{
layerId = "3DB320B4-16A0-42F5-9048-CF6BF22037FA";
name = Bold;
paths = (
{
closed = 1;
nodes = (
"801 519 LINE",
"794 331 OFFCURVE",
"763 169 OFFCURVE",
"697 19 CURVE SMOOTH",
"631 -131 OFFCURVE",
"531 -271 OFFCURVE",
"391 -412 CURVE",
"73 -400 LINE",
"246 -220 OFFCURVE",
"361 -62 OFFCURVE",
"417 75 CURVE SMOOTH",
"473 208 OFFCURVE",
"511 366 OFFCURVE",
"511 530 CURVE SMOOTH",
"511 699 OFFCURVE",
"489 852 OFFCURVE",
"444 991 CURVE SMOOTH",
"400 1131 OFFCURVE",
"301 1295 OFFCURVE",
"140 1487 CURVE",
"458 1476 LINE",
"590 1324 OFFCURVE",
"675 1178 OFFCURVE",
"728 1026 CURVE SMOOTH",
"781 873 OFFCURVE",
"801 711 OFFCURVE",
"801 524 CURVE SMOOTH"
);
}
);
width = 924;
}
);
unicode = 0029;
},
{
glyphname = asterisk;
lastChange = "2012-07-01 20:33:18 +0000";
layers = (
{
layerId = "3DB320B4-16A0-42F5-9048-CF6BF22037FA";
name = Bold;
paths = (
{
closed = 1;
nodes = (
"644 1161 LINE",
"707 1189 OFFCURVE",
"788 1221 OFFCURVE",
"852 1246 CURVE",
"934 1009 LINE",
"692 948 LINE",
"851 732 LINE",
"634 600 LINE",
"514 804 LINE",
"390 603 LINE",
"173 734 LINE",
"336 948 LINE",
"99 1009 LINE",
"178 1249 LINE",
"402 1160 LINE",
"402 1406 LINE",
"644 1406 LINE"
);
}
);
width = 1031;
}
);
unicode = 002A;
},
{
glyphname = plus;
lastChange = "2012-07-01 20:33:18 +0000";
layers = (
{
layerId = "3DB320B4-16A0-42F5-9048-CF6BF22037FA";
name = Bold;
paths = (
{
closed = 1;
nodes = (
"680 548 LINE",
"680 149 LINE",
"422 149 LINE",
"422 548 LINE",
"27 548 LINE",
"27 796 LINE",
"422 796 LINE",
"422 1194 LINE",
"680 1194 LINE",
"680 796 LINE",
"1075 796 LINE",
"1075 548 LINE"
);
}
);
width = 1103;
}
);
unicode = 002B;
},
{
glyphname = comma;
lastChange = "2012-07-01 20:33:18 +0000";
layers = (
{
layerId = "3DB320B4-16A0-42F5-9048-CF6BF22037FA";
name = Bold;
paths = (
{
closed = 1;
nodes = (
"513 297 LINE",
"513 85 LINE SMOOTH",
"513 10 OFFCURVE",
"509 -44 OFFCURVE",
"494 -96 CURVE SMOOTH",
"479 -148 OFFCURVE",
"455 -199 OFFCURVE",
"416 -263 CURVE",
"154 -263 LINE",
"232 -150 OFFCURVE",
"277 -68 OFFCURVE",
"288 -19 CURVE",
"210 -19 LINE",
"210 297 LINE"
);
}
);
width = 742;
}
);
unicode = 002C;
},
{
glyphname = hyphen;
lastChange = "2012-07-01 20:33:18 +0000";
layers = (
{
layerId = "3DB320B4-16A0-42F5-9048-CF6BF22037FA";
name = Bold;
paths = (
{
closed = 1;
nodes = (
"294 414 LINE",
"294 675 LINE",
"881 675 LINE",
"881 414 LINE"
);
}
);
width = 1173;
}
);
unicode = 002D;
},
{
glyphname = period;
lastChange = "2012-07-01 20:33:18 +0000";
layers = (
{
layerId = "3DB320B4-16A0-42F5-9048-CF6BF22037FA";
name = Bold;
paths = (
{
closed = 1;
nodes = (
"294 0 LINE",
"294 381 LINE",
"641 381 LINE",
"641 0 LINE"
);
}
);
width = 931;
}
);
unicode = 002E;
},
{
glyphname = slash;
lastChange = "2012-07-01 20:33:18 +0000";
layers = (
{
layerId = "3DB320B4-16A0-42F5-9048-CF6BF22037FA";
name = Bold;
paths = (
{
closed = 1;
nodes = (
"27 -37 LINE",
"441 1476 LINE",
"714 1476 LINE",
"304 -37 LINE"
);
}
);
width = 742;
}
);
unicode = 002F;
},
{
glyphname = zero;
lastChange = "2012-07-01 20:33:18 +0000";
layers = (
{
layerId = "3DB320B4-16A0-42F5-9048-CF6BF22037FA";
name = Bold;
paths = (
{
closed = 1;
nodes = (
"1189 231 OFFCURVE",
"1018 -19 OFFCURVE",
"693 -19 CURVE SMOOTH",
"366 -19 OFFCURVE",
"202 229 OFFCURVE",
"202 694 CURVE SMOOTH",
"202 1170 OFFCURVE",
"355 1407 OFFCURVE",
"699 1407 CURVE SMOOTH",
"1032 1407 OFFCURVE",
"1189 1165 OFFCURVE",
"1189 694 CURVE SMOOTH"
);
},
{
closed = 1;
nodes = (
"944 959 OFFCURVE",
"929 1059 OFFCURVE",
"890 1126 CURVE SMOOTH",
"851 1193 OFFCURVE",
"790 1224 OFFCURVE",
"699 1224 CURVE SMOOTH",
"518 1224 OFFCURVE",
"446 1116 OFFCURVE",
"446 819 CURVE SMOOTH",
"446 539 OFFCURVE",
"523 414 OFFCURVE",
"695 414 CURVE SMOOTH",
"867 414 OFFCURVE",
"944 542 OFFCURVE",
"944 819 CURVE SMOOTH"
);
}
);
width = 1389;
}
);
unicode = 0030;
},
{
glyphname = one;
lastChange = "2012-07-01 20:33:18 +0000";
layers = (
{
layerId = "3DB320B4-16A0-42F5-9048-CF6BF22037FA";
name = Bold;
paths = (
{
closed = 1;
nodes = (
"194 0 LINE",
"194 333 LINE",
"528 333 LINE",
"528 1118 LINE",
"232 906 LINE",
"232 1156 LINE",
"567 1387 LINE",
"771 1387 LINE",
"771 333 LINE",
"1091 333 LINE",
"1091 0 LINE"
);
}
);
width = 1195;
}
);
unicode = 0031;
},
{
glyphname = two;
lastChange = "2012-07-01 20:33:18 +0000";
layers = (
{
layerId = "3DB320B4-16A0-42F5-9048-CF6BF22037FA";
name = Bold;
paths = (
{
closed = 1;
nodes = (
"212 0 LINE",
"212 286 LINE",
"237 317 OFFCURVE",
"263 347 OFFCURVE",
"287 374 CURVE SMOOTH",
"298 387 OFFCURVE",
"309 400 OFFCURVE",
"319 412 CURVE SMOOTH",
"339 435 OFFCURVE",
"363 458 OFFCURVE",
"384 478 CURVE SMOOTH",
"405 497 OFFCURVE",
"425 514 OFFCURVE",
"446 531 CURVE",
"457 539 OFFCURVE",
"469 548 OFFCURVE",
"483 559 CURVE SMOOTH",
"637 678 LINE SMOOTH",
"673 706 OFFCURVE",
"717 742 OFFCURVE",
"758 780 CURVE SMOOTH",
"798 818 OFFCURVE",
"835 856 OFFCURVE",
"858 891 CURVE SMOOTH",
"879 922 OFFCURVE",
"889 959 OFFCURVE",
"889 1004 CURVE SMOOTH",
"889 1127 OFFCURVE",
"814 1194 OFFCURVE",
"686 1194 CURVE SMOOTH",
"563 1194 OFFCURVE",
"478 1113 OFFCURVE",
"462 970 CURVE",
"215 991 LINE",
"231 1131 OFFCURVE",
"285 1235 OFFCURVE",
"367 1304 CURVE SMOOTH",
"449 1373 OFFCURVE",
"558 1407 OFFCURVE",
"686 1407 CURVE SMOOTH",
"977 1407 OFFCURVE",
"1135 1266 OFFCURVE",
"1135 1010 CURVE SMOOTH",
"1135 954 OFFCURVE",
"1122 903 OFFCURVE",
"1098 854 CURVE SMOOTH",
"1074 805 OFFCURVE",
"1039 756 OFFCURVE",
"998 703 CURVE SMOOTH",
"957 651 OFFCURVE",
"901 585 OFFCURVE",
"796 486 CURVE SMOOTH",
"757 450 OFFCURVE",
"722 417 OFFCURVE",
"695 390 CURVE",
"682 376 OFFCURVE",
"671 365 OFFCURVE",
"663 356 CURVE SMOOTH",
"655 347 OFFCURVE",
"651 341 OFFCURVE",
"651 338 CURVE SMOOTH",
"651 337 OFFCURVE",
"648 335 OFFCURVE",
"645 334 CURVE",
"1156 334 LINE",
"1156 0 LINE"
);
}
);
width = 1382;
}
);
unicode = 0032;
},
{
glyphname = three;
lastChange = "2012-07-01 20:33:18 +0000";
layers = (
{
layerId = "3DB320B4-16A0-42F5-9048-CF6BF22037FA";
name = Bold;
paths = (
{
closed = 1;
nodes = (
"1128 269 OFFCURVE",
"1084 164 OFFCURVE",
"1001 92 CURVE SMOOTH",
"918 20 OFFCURVE",
"797 -19 OFFCURVE",
"645 -19 CURVE SMOOTH",
"358 -19 OFFCURVE",
"179 126 OFFCURVE",
"144 405 CURVE",
"412 451 LINE",
"446 352 OFFCURVE",
"524 302 OFFCURVE",
"645 302 CURVE SMOOTH",
"718 302 OFFCURVE",
"773 315 OFFCURVE",
"809 336 CURVE SMOOTH",
"844 357 OFFCURVE",
"861 384 OFFCURVE",
"861 415 CURVE SMOOTH",
"861 468 OFFCURVE",
"840 517 OFFCURVE",
"797 551 CURVE SMOOTH",
"753 585 OFFCURVE",
"687 605 OFFCURVE",
"596 605 CURVE SMOOTH",
"464 605 LINE",
"464 806 LINE",
"592 806 LINE SMOOTH",
"675 806 OFFCURVE",
"738 826 OFFCURVE",
"781 862 CURVE SMOOTH",
"824 897 OFFCURVE",
"845 945 OFFCURVE",
"845 1004 CURVE SMOOTH",
"845 1063 OFFCURVE",
"823 1113 OFFCURVE",
"784 1149 CURVE SMOOTH",
"744 1184 OFFCURVE",
"688 1204 OFFCURVE",
"619 1204 CURVE SMOOTH",
"491 1204 OFFCURVE",
"409 1125 OFFCURVE",
"393 985 CURVE",
"166 993 LINE",
"182 1136 OFFCURVE",
"236 1239 OFFCURVE",
"318 1307 CURVE SMOOTH",
"400 1375 OFFCURVE",
"509 1407 OFFCURVE",
"638 1407 CURVE SMOOTH",
"918 1407 OFFCURVE",
"1092 1265 OFFCURVE",
"1092 1022 CURVE SMOOTH",
"1092 878 OFFCURVE",
"1029 770 OFFCURVE",
"909 707 CURVE",
"1050 656 OFFCURVE",
"1128 549 OFFCURVE",
"1128 400 CURVE SMOOTH"
);
}
);
width = 1323;
}
);
unicode = 0033;
},
{
glyphname = four;
lastChange = "2012-07-01 20:33:18 +0000";
layers = (
{
layerId = "3DB320B4-16A0-42F5-9048-CF6BF22037FA";
name = Bold;
paths = (
{
closed = 1;
nodes = (
"928 297 LINE",
"952 0 LINE",
"539 0 LINE",
"568 296 LINE",
"21 296 LINE",
"21 477 LINE",
"640 1387 LINE",
"871 1387 LINE",
"917 532 LINE",
"1058 532 LINE",
"1058 297 LINE"
);
},
{
closed = 1;
nodes = (
"629 1033 LINE",
"290 532 LINE",
"595 532 LINE"
);
}
);
width = 1206;
}
);
unicode = 0034;
},
{
glyphname = five;
lastChange = "2012-07-01 20:33:18 +0000";
layers = (
{
layerId = "3DB320B4-16A0-42F5-9048-CF6BF22037FA";
name = Bold;
paths = (
{
closed = 1;
nodes = (
"1175 317 OFFCURVE",
"1128 196 OFFCURVE",
"1041 112 CURVE SMOOTH",
"954 28 OFFCURVE",
"829 -19 OFFCURVE",
"672 -19 CURVE SMOOTH",
"405 -19 OFFCURVE",
"239 113 OFFCURVE",
"190 357 CURVE",
"469 435 LINE",
"488 352 OFFCURVE",
"560 311 OFFCURVE",
"685 300 CURVE",
"697 302 LINE SMOOTH",
"716 305 OFFCURVE",
"732 307 OFFCURVE",
"747 309 CURVE SMOOTH",
"776 313 OFFCURVE",
"800 318 OFFCURVE",
"818 324 CURVE SMOOTH",
"836 330 OFFCURVE",
"849 337 OFFCURVE",
"866 357 CURVE SMOOTH",
"883 377 OFFCURVE",
"898 406 OFFCURVE",
"907 442 CURVE",
"912 459 OFFCURVE",
"914 478 OFFCURVE",
"914 499 CURVE SMOOTH",
"914 560 OFFCURVE",
"889 610 OFFCURVE",
"848 646 CURVE SMOOTH",
"807 681 OFFCURVE",
"747 701 OFFCURVE",
"679 701 CURVE SMOOTH",
"596 701 OFFCURVE",
"528 675 OFFCURVE",
"448 607 CURVE",
"231 607 LINE",
"280 1387 LINE",
"1099 1387 LINE",
"1099 1198 LINE",
"502 1198 LINE",
"485 861 LINE",
"552 894 OFFCURVE",
"626 912 OFFCURVE",
"714 912 CURVE SMOOTH",
"991 912 OFFCURVE",
"1175 729 OFFCURVE",
"1175 465 CURVE SMOOTH"
);
}
);
width = 1345;
}
);
unicode = 0035;
},
{
glyphname = six;
lastChange = "2012-07-01 20:33:18 +0000";
layers = (
{
layerId = "3DB320B4-16A0-42F5-9048-CF6BF22037FA";
name = Bold;
paths = (
{
closed = 1;
nodes = (
"1147 318 OFFCURVE",
"1102 196 OFFCURVE",
"1022 112 CURVE SMOOTH",
"942 28 OFFCURVE",
"826 -19 OFFCURVE",
"685 -19 CURVE SMOOTH",
"525 -19 OFFCURVE",
"402 40 OFFCURVE",
"319 156 CURVE SMOOTH",
"235 271 OFFCURVE",
"192 440 OFFCURVE",
"192 663 CURVE SMOOTH",
"192 900 OFFCURVE",
"239 1086 OFFCURVE",
"325 1213 CURVE SMOOTH",
"411 1340 OFFCURVE",
"537 1407 OFFCURVE",
"698 1407 CURVE SMOOTH",
"918 1407 OFFCURVE",
"1055 1297 OFFCURVE",
"1120 1073 CURVE",
"887 1031 LINE",
"853 1141 OFFCURVE",
"790 1196 OFFCURVE",
"697 1196 CURVE SMOOTH",
"549 1196 OFFCURVE",
"459 1069 OFFCURVE",
"438 826 CURVE",
"509 893 OFFCURVE",
"601 923 OFFCURVE",
"714 923 CURVE SMOOTH",
"978 923 OFFCURVE",
"1147 743 OFFCURVE",
"1147 467 CURVE SMOOTH"
);
},
{
closed = 1;
nodes = (
"920 686 OFFCURVE",
"837 757 OFFCURVE",
"693 757 CURVE SMOOTH",
"629 757 OFFCURVE",
"572 742 OFFCURVE",
"532 714 CURVE SMOOTH",
"492 685 OFFCURVE",
"468 643 OFFCURVE",
"468 590 CURVE SMOOTH",
"468 522 OFFCURVE",
"491 462 OFFCURVE",
"531 420 CURVE SMOOTH",
"571 378 OFFCURVE",
"629 352 OFFCURVE",
"698 352 CURVE SMOOTH",
"837 352 OFFCURVE",
"920 429 OFFCURVE",
"920 558 CURVE SMOOTH"
);
}
);
width = 1327;
}
);
unicode = 0036;
},
{
glyphname = seven;
lastChange = "2012-07-01 20:33:18 +0000";
layers = (
{
layerId = "3DB320B4-16A0-42F5-9048-CF6BF22037FA";
name = Bold;
paths = (
{
closed = 1;
nodes = (
"1092 1206 LINE",
"860 717 LINE SMOOTH",
"833 661 OFFCURVE",
"815 604 OFFCURVE",
"800 548 CURVE SMOOTH",
"792 519 OFFCURVE",
"785 491 OFFCURVE",
"779 463 CURVE SMOOTH",
"772 435 OFFCURVE",
"766 407 OFFCURVE",
"759 379 CURVE SMOOTH",
"732 268 OFFCURVE",
"718 142 OFFCURVE",
"718 0 CURVE",
"345 0 LINE",
"345 193 OFFCURVE",
"387 372 OFFCURVE",
"468 560 CURVE SMOOTH",
"548 747 OFFCURVE",
"668 942 OFFCURVE",
"821 1170 CURVE",
"150 1170 LINE",
"150 1387 LINE",
"1092 1387 LINE"
);
}
);
width = 1177;
}
);
unicode = 0037;
},
{
glyphname = eight;
lastChange = "2012-07-01 20:33:18 +0000";
layers = (
{
layerId = "3DB320B4-16A0-42F5-9048-CF6BF22037FA";
name = Bold;
paths = (
{
closed = 1;
nodes = (
"1167 274 OFFCURVE",
"1124 168 OFFCURVE",
"1041 95 CURVE SMOOTH",
"958 22 OFFCURVE",
"838 -19 OFFCURVE",
"682 -19 CURVE SMOOTH",
"531 -19 OFFCURVE",
"410 19 OFFCURVE",
"327 91 CURVE SMOOTH",
"243 163 OFFCURVE",
"197 269 OFFCURVE",
"197 402 CURVE SMOOTH",
"197 547 OFFCURVE",
"268 669 OFFCURVE",
"389 730 CURVE",
"337 759 OFFCURVE",
"297 804 OFFCURVE",
"270 857 CURVE SMOOTH",
"242 909 OFFCURVE",
"228 969 OFFCURVE",
"228 1033 CURVE SMOOTH",
"228 1144 OFFCURVE",
"272 1238 OFFCURVE",
"351 1304 CURVE SMOOTH",
"430 1370 OFFCURVE",
"542 1407 OFFCURVE",
"678 1407 CURVE SMOOTH",
"815 1407 OFFCURVE",
"930 1370 OFFCURVE",
"1010 1304 CURVE SMOOTH",
"1089 1238 OFFCURVE",
"1134 1144 OFFCURVE",
"1134 1031 CURVE SMOOTH",
"1134 907 OFFCURVE",
"1078 793 OFFCURVE",
"974 730 CURVE",
"1098 674 OFFCURVE",
"1167 556 OFFCURVE",
"1167 403 CURVE SMOOTH"
);
},
{
closed = 1;
nodes = (
"886 1188 OFFCURVE",
"817 1250 OFFCURVE",
"678 1250 CURVE SMOOTH",
"541 1250 OFFCURVE",
"470 1188 OFFCURVE",
"470 1063 CURVE SMOOTH",
"470 934 OFFCURVE",
"545 867 OFFCURVE",
"678 867 CURVE SMOOTH",
"814 867 OFFCURVE",
"886 924 OFFCURVE",
"886 1063 CURVE SMOOTH"
);
},
{
closed = 1;
nodes = (
"963 584 OFFCURVE",
"862 647 OFFCURVE",
"682 647 CURVE SMOOTH",
"507 647 OFFCURVE",
"408 575 OFFCURVE",
"408 456 CURVE SMOOTH",
"408 345 OFFCURVE",
"502 289 OFFCURVE",
"689 289 CURVE SMOOTH",
"788 289 OFFCURVE",
"861 300 OFFCURVE",
"906 323 CURVE SMOOTH",
"943 342 OFFCURVE",
"962 390 OFFCURVE",
"963 459 CURVE SMOOTH"
);
}
);
width = 1364;
}
);
unicode = 0038;
},
{
glyphname = nine;
lastChange = "2012-07-01 20:33:18 +0000";
layers = (
{
layerId = "3DB320B4-16A0-42F5-9048-CF6BF22037FA";
name = Bold;
paths = (
{
closed = 1;
nodes = (
"1135 483 OFFCURVE",
"1104 298 OFFCURVE",
"1024 173 CURVE SMOOTH",
"944 48 OFFCURVE",
"815 -19 OFFCURVE",
"622 -19 CURVE SMOOTH",
"398 -19 OFFCURVE",
"262 81 OFFCURVE",
"197 318 CURVE",
"467 399 LINE",
"497 347 OFFCURVE",
"540 321 OFFCURVE",
"595 321 CURVE SMOOTH",
"711 321 OFFCURVE",
"787 348 OFFCURVE",
"820 391 CURVE SMOOTH",
"847 426 OFFCURVE",
"868 495 OFFCURVE",
"884 596 CURVE",
"871 590 LINE SMOOTH",
"828 570 OFFCURVE",
"741 556 OFFCURVE",
"606 549 CURVE",
"481 554 OFFCURVE",
"382 584 OFFCURVE",
"311 644 CURVE SMOOTH",
"239 704 OFFCURVE",
"195 795 OFFCURVE",
"179 923 CURVE",
"179 1222 OFFCURVE",
"357 1407 OFFCURVE",
"653 1407 CURVE SMOOTH",
"969 1407 OFFCURVE",
"1135 1179 OFFCURVE",
"1135 720 CURVE SMOOTH"
);
},
{
closed = 1;
nodes = (
"856 1035 OFFCURVE",
"835 1106 OFFCURVE",
"795 1156 CURVE SMOOTH",
"755 1206 OFFCURVE",
"698 1234 OFFCURVE",
"626 1234 CURVE SMOOTH",
"554 1234 OFFCURVE",
"498 1211 OFFCURVE",
"460 1169 CURVE SMOOTH",
"422 1127 OFFCURVE",
"402 1066 OFFCURVE",
"402 993 CURVE SMOOTH",
"402 897 OFFCURVE",
"485 823 OFFCURVE",
"624 823 CURVE SMOOTH",
"671 823 OFFCURVE",
"716 837 OFFCURVE",
"753 854 CURVE SMOOTH",
"790 871 OFFCURVE",
"820 890 OFFCURVE",
"836 902 CURVE SMOOTH",
"849 912 OFFCURVE",
"856 928 OFFCURVE",
"856 951 CURVE SMOOTH"
);
}
);
width = 1336;
}
);
unicode = 0039;
},
{
glyphname = colon;
lastChange = "2012-07-01 20:33:18 +0000";
layers = (
{
layerId = "3DB320B4-16A0-42F5-9048-CF6BF22037FA";
name = Bold;
paths = (
{
closed = 1;
nodes = (
"294 719 LINE",
"294 1083 LINE",
"641 1083 LINE",
"641 719 LINE"
);
},
{
closed = 1;
nodes = (
"294 0 LINE",
"294 364 LINE",
"641 364 LINE",
"641 0 LINE"
);
}
);
width = 931;
}
);
unicode = 003A;
},
{
glyphname = semicolon;
lastChange = "2012-07-01 20:33:18 +0000";
layers = (
{
layerId = "3DB320B4-16A0-42F5-9048-CF6BF22037FA";
name = Bold;
paths = (
{
closed = 1;
nodes = (
"539 359 LINE",
"539 102 LINE",
"531 1 OFFCURVE",
"519 -79 OFFCURVE",
"496 -152 CURVE SMOOTH",
"473 -225 OFFCURVE",
"439 -292 OFFCURVE",
"387 -367 CURVE",
"124 -357 LINE",
"232 -214 OFFCURVE",
"288 -96 OFFCURVE",
"301 3 CURVE",
"180 7 LINE",
"180 370 LINE"
);
},
{
closed = 1;
nodes = (
"203 713 LINE",
"180 1088 LINE",
"561 1088 LINE",
"561 713 LINE"
);
}
);
width = 752;
}
);
unicode = 003B;
},
{
glyphname = less;
lastChange = "2012-07-01 20:33:18 +0000";
layers = (
{
layerId = "3DB320B4-16A0-42F5-9048-CF6BF22037FA";
name = Bold;
paths = (
{
closed = 1;
nodes = (
"10 539 LINE",
"34 834 LINE",
"1071 1165 LINE",
"1050 908 LINE",
"343 677 LINE",
"998 326 LINE",
"976 33 LINE"
);
}
);
width = 1305;
}
);
unicode = 003C;
},
{
glyphname = equal;
lastChange = "2012-07-01 20:33:18 +0000";
layers = (
{
layerId = "3DB320B4-16A0-42F5-9048-CF6BF22037FA";
name = Bold;
paths = (
{
closed = 1;
nodes = (
"294 769 LINE",
"294 1013 LINE",
"1298 1013 LINE",
"1298 769 LINE"
);
},
{
closed = 1;
nodes = (
"294 309 LINE",
"294 553 LINE",
"1298 553 LINE",
"1298 309 LINE"
);
}
);
width = 1591;
}
);
unicode = 003D;
},
{
glyphname = greater;
lastChange = "2012-07-01 20:33:18 +0000";
layers = (
{
layerId = "3DB320B4-16A0-42F5-9048-CF6BF22037FA";
name = Bold;
paths = (
{
closed = 1;
nodes = (
"236 121 LINE",
"259 412 LINE",
"969 644 LINE",
"311 994 LINE",
"333 1253 LINE",
"1297 745 LINE",
"1274 451 LINE"
);
}
);
width = 1307;
}
);
unicode = 003E;
},
{
glyphname = question;
lastChange = "2012-07-01 20:33:18 +0000";
layers = (
{
layerId = "3DB320B4-16A0-42F5-9048-CF6BF22037FA";
name = Bold;
paths = (
{
closed = 1;
nodes = (
"1087 919 OFFCURVE",
"1072 857 OFFCURVE",
"1037 801 CURVE SMOOTH",
"1001 745 OFFCURVE",
"946 694 OFFCURVE",
"866 637 CURVE",
"795 579 LINE",
"784 564 OFFCURVE",
"773 550 OFFCURVE",
"762 537 CURVE",
"741 509 OFFCURVE",
"723 476 OFFCURVE",
"712 432 CURVE SMOOTH",
"706 410 OFFCURVE",
"703 383 OFFCURVE",
"702 351 CURVE",
"336 351 LINE",
"339 472 OFFCURVE",
"367 560 OFFCURVE",
"431 616 CURVE SMOOTH",
"495 672 OFFCURVE",
"554 711 OFFCURVE",
"609 747 CURVE SMOOTH",
"664 782 OFFCURVE",
"712 811 OFFCURVE",
"756 850 CURVE SMOOTH",
"796 886 OFFCURVE",
"823 947 OFFCURVE",
"824 1008 CURVE",
"813 1072 OFFCURVE",
"793 1118 OFFCURVE",
"764 1154 CURVE SMOOTH",
"738 1186 OFFCURVE",
"688 1202 OFFCURVE",
"614 1202 CURVE SMOOTH",
"538 1202 OFFCURVE",
"472 1182 OFFCURVE",
"424 1138 CURVE SMOOTH",
"375 1094 OFFCURVE",
"342 1028 OFFCURVE",
"333 936 CURVE",
"95 953 LINE",
"116 1112 OFFCURVE",
"173 1226 OFFCURVE",
"259 1300 CURVE SMOOTH",
"345 1374 OFFCURVE",
"460 1407 OFFCURVE",
"603 1407 CURVE SMOOTH",
"900 1407 OFFCURVE",
"1087 1254 OFFCURVE",
"1087 999 CURVE SMOOTH"
);
},
{
closed = 1;
nodes = (
"339 -102 LINE",
"339 253 LINE",
"686 253 LINE",
"686 -102 LINE"
);
}
);
width = 1165;
}
);
unicode = 003F;
},
{
glyphname = at;
lastChange = "2012-07-01 20:33:18 +0000";
layers = (
{
layerId = "3DB320B4-16A0-42F5-9048-CF6BF22037FA";
name = Bold;
paths = (
{
closed = 1;
nodes = (
"1276 48 OFFCURVE",
"1330 66 OFFCURVE",
"1386 98 CURVE",
"1279 107 OFFCURVE",
"1214 158 OFFCURVE",
"1197 251 CURVE",
"1112 147 OFFCURVE",
"1000 97 OFFCURVE",
"879 97 CURVE SMOOTH",
"771 97 OFFCURVE",
"685 134 OFFCURVE",
"626 202 CURVE SMOOTH",
"566 270 OFFCURVE",
"534 369 OFFCURVE",
"534 493 CURVE SMOOTH",
"534 598 OFFCURVE",
"557 701 OFFCURVE",
"598 791 CURVE SMOOTH",
"639 881 OFFCURVE",
"699 958 OFFCURVE",
"774 1013 CURVE SMOOTH",
"849 1068 OFFCURVE",
"939 1100 OFFCURVE",
"1039 1100 CURVE SMOOTH",
"1156 1100 OFFCURVE",
"1246 1061 OFFCURVE",
"1309 983 CURVE",
"1332 1080 LINE",
"1554 1080 LINE",
"1435 563 LINE",
"1413 494 OFFCURVE",
"1402 433 OFFCURVE",
"1402 382 CURVE SMOOTH",
"1402 349 OFFCURVE",
"1415 332 OFFCURVE",
"1440 332 CURVE SMOOTH",
"1480 332 OFFCURVE",
"1518 340 OFFCURVE",
"1553 365 CURVE SMOOTH",
"1588 389 OFFCURVE",
"1618 431 OFFCURVE",
"1641 500 CURVE SMOOTH",
"1665 576 OFFCURVE",
"1676 655 OFFCURVE",
"1676 747 CURVE SMOOTH",
"1676 903 OFFCURVE",
"1620 1032 OFFCURVE",
"1523 1123 CURVE SMOOTH",
"1426 1214 OFFCURVE",
"1287 1265 OFFCURVE",
"1119 1265 CURVE SMOOTH",
"912 1265 OFFCURVE",
"729 1192 OFFCURVE",
"598 1060 CURVE SMOOTH",
"466 927 OFFCURVE",
"386 734 OFFCURVE",
"386 495 CURVE SMOOTH",
"386 382 OFFCURVE",
"418 288 OFFCURVE",
"468 217 CURVE SMOOTH",
"518 145 OFFCURVE",
"585 95 OFFCURVE",
"660 67 CURVE SMOOTH",
"740 36 OFFCURVE",
"838 23 OFFCURVE",
"957 23 CURVE SMOOTH",
"1044 23 OFFCURVE",
"1133 29 OFFCURVE",
"1223 41 CURVE SMOOTH"
);
},
{
closed = 1;
nodes = (
"1877 584 OFFCURVE",
"1842 440 OFFCURVE",
"1779 328 CURVE SMOOTH",
"1716 216 OFFCURVE",
"1626 137 OFFCURVE",
"1517 109 CURVE",
"1620 -74 LINE",
"1413 -199 OFFCURVE",
"1181 -264 OFFCURVE",
"957 -264 CURVE SMOOTH",
"724 -264 OFFCURVE",
"529 -190 OFFCURVE",
"393 -58 CURVE SMOOTH",
"257 73 OFFCURVE",
"180 263 OFFCURVE",
"180 495 CURVE SMOOTH",
"180 678 OFFCURVE",
"223 845 OFFCURVE",
"302 988 CURVE SMOOTH",
"381 1131 OFFCURVE",
"494 1248 OFFCURVE",
"635 1330 CURVE SMOOTH",
"775 1412 OFFCURVE",
"942 1457 OFFCURVE",
"1126 1457 CURVE SMOOTH",
"1361 1457 OFFCURVE",
"1549 1384 OFFCURVE",
"1678 1258 CURVE SMOOTH",
"1806 1132 OFFCURVE",
"1877 953 OFFCURVE",
"1877 741 CURVE SMOOTH"
);
},
{
closed = 1;
nodes = (
"682 547 OFFCURVE",
"709 507 OFFCURVE",
"750 480 CURVE SMOOTH",
"791 453 OFFCURVE",
"844 440 OFFCURVE",
"899 440 CURVE SMOOTH",
"918 440 OFFCURVE",
"936 440 OFFCURVE",
"954 441 CURVE SMOOTH",
"972 442 OFFCURVE",
"990 442 OFFCURVE",
"1007 442 CURVE SMOOTH",
"1078 442 OFFCURVE",
"1126 458 OFFCURVE",
"1157 484 CURVE SMOOTH",
"1188 510 OFFCURVE",
"1201 545 OFFCURVE",
"1201 586 CURVE SMOOTH",
"1201 661 OFFCURVE",
"1200 750 OFFCURVE",
"1180 821 CURVE SMOOTH",
"1160 892 OFFCURVE",
"1122 943 OFFCURVE",
"1049 943 CURVE SMOOTH",
"1016 943 OFFCURVE",
"964 937 OFFCURVE",
"910 918 CURVE SMOOTH",
"856 899 OFFCURVE",
"798 868 OFFCURVE",
"755 817 CURVE SMOOTH",
"711 766 OFFCURVE",
"682 696 OFFCURVE",
"682 600 CURVE SMOOTH"
);
}
);
width = 2054;
}
);
unicode = 0040;
},
{
glyphname = A;
lastChange = "2012-07-01 20:33:18 +0000";
layers = (
{
anchors = (
{
name = ogonek;
position = "{1404, 10}";
},
{
name = top;
position = "{780, 1409}";
}
);
layerId = "3DB320B4-16A0-42F5-9048-CF6BF22037FA";
name = Bold;
paths = (
{
closed = 1;
nodes = (
"1122 0 LINE",
"1055 248 LINE",
"507 248 LINE",
"449 0 LINE",
"81 0 LINE",
"655 1409 LINE",
"911 1409 LINE",
"1477 0 LINE"
);
},
{
closed = 1;
nodes = (
"812 1033 OFFCURVE",
"797 1072 OFFCURVE",
"783 1116 CURVE",
"575 581 LINE",
"980 581 LINE",
"955 652 OFFCURVE",
"929 722 OFFCURVE",
"903 791 CURVE SMOOTH",
"877 860 OFFCURVE",
"852 930 OFFCURVE",
"827 999 CURVE"
);
}
);
width = 1560;
}
);
unicode = 0041;
},
{
glyphname = B;
lastChange = "2012-07-01 20:33:18 +0000";
layers = (
{
layerId = "3DB320B4-16A0-42F5-9048-CF6BF22037FA";
name = Bold;
paths = (
{
closed = 1;
nodes = (
"1382 283 OFFCURVE",
"1337 180 OFFCURVE",
"1252 109 CURVE SMOOTH",
"1167 38 OFFCURVE",
"1038 0 OFFCURVE",
"873 0 CURVE SMOOTH",
"294 0 LINE",
"294 1409 LINE",
"816 1409 LINE SMOOTH",
"1104 1409 OFFCURVE",
"1248 1289 OFFCURVE",
"1248 1048 CURVE SMOOTH",
"1248 917 OFFCURVE",
"1211 820 OFFCURVE",
"1137 758 CURVE",
"1304 707 OFFCURVE",
"1382 582 OFFCURVE",
"1382 414 CURVE SMOOTH"
);
},
{
closed = 1;
nodes = (
"1024 1171 OFFCURVE",
"944 1217 OFFCURVE",
"795 1217 CURVE SMOOTH",
"550 1217 LINE",
"550 871 LINE",
"795 871 LINE SMOOTH",
"948 871 OFFCURVE",
"1024 929 OFFCURVE",
"1024 1054 CURVE SMOOTH"
);
},
{
closed = 1;
nodes = (
"1124 578 OFFCURVE",
"1032 625 OFFCURVE",
"849 625 CURVE SMOOTH",
"550 625 LINE",
"550 336 LINE",
"864 336 LINE SMOOTH",
"961 336 OFFCURVE",
"1027 347 OFFCURVE",
"1068 371 CURVE SMOOTH",
"1108 395 OFFCURVE",
"1124 432 OFFCURVE",
"1124 484 CURVE SMOOTH"
);
}
);
width = 1545;
}
);
unicode = 0042;
},
{
glyphname = C;
lastChange = "2012-07-01 20:33:18 +0000";
layers = (
{
anchors = (
{
name = bottom;
position = "{790, 0}";
},
{
name = top;
position = "{790, 1409}";
}
);
layerId = "3DB320B4-16A0-42F5-9048-CF6BF22037FA";
name = Bold;
paths = (
{
closed = 1;
nodes = (
"721 1206 OFFCURVE",
"621 1159 OFFCURVE",
"554 1074 CURVE SMOOTH",
"486 989 OFFCURVE",
"452 864 OFFCURVE",
"451 711 CURVE",
"463 640 OFFCURVE",
"477 594 OFFCURVE",
"497 562 CURVE",
"516 529 OFFCURVE",
"541 507 OFFCURVE",
"574 484 CURVE SMOOTH",
"642 436 OFFCURVE",
"749 411 OFFCURVE",
"878 400 CURVE",
"955 400 OFFCURVE",
"1031 400 OFFCURVE",
"1106 424 CURVE SMOOTH",
"1181 448 OFFCURVE",
"1254 496 OFFCURVE",
"1326 595 CURVE",
"1326 128 LINE",
"1242 67 OFFCURVE",
"1179 28 OFFCURVE",
"1120 9 CURVE SMOOTH",
"1062 -10 OFFCURVE",
"973 -19 OFFCURVE",
"852 -19 CURVE SMOOTH",
"640 -19 OFFCURVE",
"469 52 OFFCURVE",
"353 179 CURVE SMOOTH",
"236 306 OFFCURVE",
"171 488 OFFCURVE",
"171 711 CURVE SMOOTH",
"171 930 OFFCURVE",
"236 1109 OFFCURVE",
"354 1233 CURVE SMOOTH",
"472 1357 OFFCURVE",
"643 1428 OFFCURVE",
"856 1429 CURVE SMOOTH",
"863 1429 OFFCURVE",
"872 1429 OFFCURVE",
"881 1430 CURVE",
"890 1430 OFFCURVE",
"899 1430 OFFCURVE",
"906 1430 CURVE SMOOTH",
"994 1430 OFFCURVE",
"1066 1421 OFFCURVE",
"1133 1401 CURVE SMOOTH",
"1200 1380 OFFCURVE",
"1261 1346 OFFCURVE",
"1328 1295 CURVE",
"1328 1049 LINE",
"1188 1118 OFFCURVE",
"1089 1160 OFFCURVE",
"1032 1179 CURVE SMOOTH",
"975 1196 OFFCURVE",
"919 1206 OFFCURVE",
"860 1206 CURVE SMOOTH"
);
}
);
width = 1580;
}
);
unicode = 0043;
},
{
glyphname = D;
lastChange = "2012-07-01 20:33:18 +0000";
layers = (
{
anchors = (
{
name = center;
position = "{846, 705}";
},
{
name = top;
position = "{846, 1409}";
}
);
layerId = "3DB320B4-16A0-42F5-9048-CF6BF22037FA";
name = Bold;
paths = (
{
closed = 1;
nodes = (
"1517 498 OFFCURVE",
"1448 318 OFFCURVE",
"1328 194 CURVE SMOOTH",
"1208 69 OFFCURVE",
"1036 0 OFFCURVE",
"829 0 CURVE SMOOTH",
"294 0 LINE",
"294 1409 LINE",
"773 1409 LINE SMOOTH",
"1008 1409 OFFCURVE",
"1191 1349 OFFCURVE",
"1321 1229 CURVE SMOOTH",
"1452 1108 OFFCURVE",
"1517 942 OFFCURVE",
"1517 718 CURVE SMOOTH"
);
},
{
closed = 1;
nodes = (
"1260 1057 OFFCURVE",
"1089 1189 OFFCURVE",
"768 1189 CURVE SMOOTH",
"549 1189 LINE",
"549 402 LINE",
"809 402 LINE SMOOTH",
"946 402 OFFCURVE",
"1060 441 OFFCURVE",
"1138 511 CURVE SMOOTH",
"1216 581 OFFCURVE",
"1260 681 OFFCURVE",
"1260 806 CURVE SMOOTH"
);
}
);
width = 1692;
}
);
unicode = 0044;
},
{
glyphname = E;
lastChange = "2012-07-01 20:33:18 +0000";
layers = (
{
anchors = (
{
name = bottom;
position = "{767, 0}";
},
{
name = ogonek;
position = "{1381, 10}";
},
{
name = top;
position = "{767, 1409}";
}
);
layerId = "3DB320B4-16A0-42F5-9048-CF6BF22037FA";
name = Bold;
paths = (
{
closed = 1;
nodes = (
"294 0 LINE",
"294 1409 LINE",
"1240 1409 LINE",
"1240 1187 LINE",
"551 1187 LINE",
"551 834 LINE",
"1164 834 LINE",
"1164 613 LINE",
"551 613 LINE",
"551 432 LINE",
"1280 432 LINE",
"1280 0 LINE"
);
}
);
width = 1534;
}
);
unicode = 0045;
},
{
glyphname = F;
lastChange = "2012-07-01 20:33:18 +0000";
layers = (
{
layerId = "3DB320B4-16A0-42F5-9048-CF6BF22037FA";
name = Bold;
paths = (
{
closed = 1;
nodes = (
"643 1186 LINE",
"639 1123 OFFCURVE",
"635 1067 OFFCURVE",
"631 1011 CURVE SMOOTH",
"626 954 OFFCURVE",
"622 897 OFFCURVE",
"618 832 CURVE",
"1123 832 LINE",
"1123 540 LINE",
"618 540 LINE",
"625 455 OFFCURVE",
"633 361 OFFCURVE",
"642 269 CURVE SMOOTH",
"650 176 OFFCURVE",
"658 84 OFFCURVE",
"665 0 CURVE",
"294 0 LINE",
"294 1409 LINE",
"1288 1409 LINE",
"1288 1186 LINE"
);
}
);
width = 1316;
}
);
unicode = 0046;
},
{
glyphname = G;
lastChange = "2012-07-01 20:33:18 +0000";
layers = (
{
anchors = (
{
name = bottom;
position = "{839, 0}";
},
{
name = top;
position = "{839, 1409}";
}
);
layerId = "3DB320B4-16A0-42F5-9048-CF6BF22037FA";
name = Bold;
paths = (
{
closed = 1;
nodes = (
"182 938 OFFCURVE",
"248 1117 OFFCURVE",
"369 1240 CURVE SMOOTH",
"489 1363 OFFCURVE",
"664 1429 OFFCURVE",
"883 1429 CURVE SMOOTH",
"1186 1429 OFFCURVE",
"1310 1358 OFFCURVE",
"1438 1170 CURVE",
"1278 995 LINE",
"1193 1167 OFFCURVE",
"1063 1242 OFFCURVE",
"882 1242 CURVE SMOOTH",
"738 1242 OFFCURVE",
"635 1180 OFFCURVE",
"568 1084 CURVE SMOOTH",
"500 987 OFFCURVE",
"470 855 OFFCURVE",
"470 715 CURVE",
"483 608 OFFCURVE",
"517 518 OFFCURVE",
"582 451 CURVE SMOOTH",
"647 383 OFFCURVE",
"745 338 OFFCURVE",
"886 323 CURVE",
"889 322 OFFCURVE",
"893 322 OFFCURVE",
"896 322 CURVE SMOOTH",
"899 322 OFFCURVE",
"903 322 OFFCURVE",
"907 322 CURVE SMOOTH",
"1007 322 OFFCURVE",
"1091 363 OFFCURVE",
"1167 434 CURVE",
"1167 478 LINE",
"882 478 LINE",
"882 752 LINE",
"1466 752 LINE",
"1466 238 LINE",
"1426 151 OFFCURVE",
"1343 87 OFFCURVE",
"1239 44 CURVE SMOOTH",
"1134 1 OFFCURVE",
"1006 -19 OFFCURVE",
"878 -19 CURVE SMOOTH",
"661 -19 OFFCURVE",
"487 52 OFFCURVE",
"367 180 CURVE SMOOTH",
"247 307 OFFCURVE",
"182 488 OFFCURVE",
"182 711 CURVE SMOOTH"
);
}
);
width = 1677;
}
);
unicode = 0047;
},
{
glyphname = H;
lastChange = "2012-07-01 20:33:18 +0000";
layers = (
{
anchors = (
{
name = center;
position = "{864, 705}";
},
{
name = top;
position = "{864, 1409}";
}
);
layerId = "3DB320B4-16A0-42F5-9048-CF6BF22037FA";
name = Bold;
paths = (
{
closed = 1;
nodes = (
"1127 0 LINE",
"1127 504 LINE",
"622 504 LINE",
"623 464 OFFCURVE",
"625 423 OFFCURVE",
"627 380 CURVE SMOOTH",
"630 294 OFFCURVE",
"633 205 OFFCURVE",
"635 121 CURVE SMOOTH",
"636 78 OFFCURVE",
"637 38 OFFCURVE",
"638 0 CURVE",
"235 0 LINE",
"324 1409 LINE",
"672 1409 LINE",
"642 798 LINE",
"1145 798 LINE",
"1115 1409 LINE",
"1405 1409 LINE",
"1500 0 LINE"
);
}
);
width = 1728;
}
);
unicode = 0048;
},
{
glyphname = I;
lastChange = "2012-07-01 20:33:18 +0000";
layers = (
{
anchors = (
{
name = ogonek;
position = "{818, 10}";
},
{
name = top;
position = "{455, 1409}";
}
);
layerId = "3DB320B4-16A0-42F5-9048-CF6BF22037FA";
name = Bold;
paths = (
{
closed = 1;
nodes = (
"244 0 LINE",
"294 1409 LINE",
"619 1409 LINE",
"669 0 LINE"
);
}
);
width = 909;
}
);
unicode = 0049;
},
{
glyphname = J;
lastChange = "2012-07-01 20:33:18 +0000";
layers = (
{
anchors = (
{
name = top;
position = "{504, 1409}";
}
);
layerId = "3DB320B4-16A0-42F5-9048-CF6BF22037FA";
name = Bold;
paths = (
{
closed = 1;
nodes = (
"286 -494 OFFCURVE",
"267 -495 OFFCURVE",
"250 -495 CURVE SMOOTH",
"166 -495 OFFCURVE",
"93 -475 OFFCURVE",
"30 -436 CURVE",
"30 55 LINE",
"110 -22 OFFCURVE",
"162 -65 OFFCURVE",
"185 -74 CURVE SMOOTH",
"208 -83 OFFCURVE",
"231 -87 OFFCURVE",
"254 -87 CURVE SMOOTH",
"257 -87 OFFCURVE",
"259 -87 OFFCURVE",
"262 -86 CURVE",
"264 -86 OFFCURVE",
"266 -86 OFFCURVE",
"269 -86 CURVE SMOOTH",
"270 -86 OFFCURVE",
"272 -86 OFFCURVE",
"274 -86 CURVE",
"275 -87 OFFCURVE",
"277 -87 OFFCURVE",
"279 -87 CURVE SMOOTH",
"309 -87 OFFCURVE",
"341 -74 OFFCURVE",
"376 -47 CURVE",
"395 -34 OFFCURVE",
"413 11 OFFCURVE",
"429 87 CURVE SMOOTH",
"444 162 OFFCURVE",
"457 263 OFFCURVE",
"466 389 CURVE SMOOTH",
"539 1417 LINE",
"848 1392 LINE",
"726 -72 LINE SMOOTH",
"714 -216 OFFCURVE",
"662 -316 OFFCURVE",
"583 -383 CURVE SMOOTH",
"506 -448 OFFCURVE",
"413 -484 OFFCURVE",
"305 -493 CURVE SMOOTH"
);
}
);
width = 1008;
}
);
unicode = 004A;
},
{
glyphname = K;
lastChange = "2012-07-01 20:33:18 +0000";
layers = (
{
anchors = (
{
name = bottom;
position = "{850, 0}";
},
{
name = top;
position = "{850, 1409}";
}
);
layerId = "3DB320B4-16A0-42F5-9048-CF6BF22037FA";
name = Bold;
paths = (
{
closed = 1;
nodes = (
"960 0 LINE",
"583 520 LINE",
"653 0 LINE",
"294 0 LINE",
"294 1409 LINE",
"585 1409 LINE",
"558 818 LINE",
"655 916 OFFCURVE",
"753 1015 OFFCURVE",
"851 1114 CURVE SMOOTH",
"949 1213 OFFCURVE",
"1046 1312 OFFCURVE",
"1143 1409 CURVE",
"1479 1409 LINE",
"783 681 LINE",
"862 612 OFFCURVE",
"955 536 OFFCURVE",
"1053 457 CURVE SMOOTH",
"1102 418 OFFCURVE",
"1151 378 OFFCURVE",
"1202 339 CURVE SMOOTH",
"1303 259 OFFCURVE",
"1401 182 OFFCURVE",
"1492 107 CURVE SMOOTH",
"1537 70 OFFCURVE",
"1579 34 OFFCURVE",
"1617 0 CURVE"
);
}
);
width = 1700;
}
);
unicode = 004B;
},
{
glyphname = L;
lastChange = "2012-07-01 20:33:18 +0000";
layers = (
{
anchors = (
{
name = bottom;
position = "{626, 0}";
},
{
name = top;
position = "{626, 1409}";
}
);
layerId = "3DB320B4-16A0-42F5-9048-CF6BF22037FA";
name = Bold;
paths = (
{
closed = 1;
nodes = (
"294 0 LINE",
"344 1409 LINE",
"662 1409 LINE",
"612 337 LINE",
"1234 337 LINE",
"1234 0 LINE"
);
}
);
width = 1252;
}
);
unicode = 004C;
},
{
glyphname = M;
lastChange = "2012-07-01 20:33:18 +0000";
layers = (
{
layerId = "3DB320B4-16A0-42F5-9048-CF6BF22037FA";
name = Bold;
paths = (
{
closed = 1;
nodes = (
"1463 0 LINE",
"1531 931 LINE",
"1506 862 OFFCURVE",
"1479 791 OFFCURVE",
"1452 720 CURVE SMOOTH",
"1425 648 OFFCURVE",
"1397 576 OFFCURVE",
"1370 504 CURVE SMOOTH",
"1343 432 OFFCURVE",
"1316 361 OFFCURVE",
"1289 290 CURVE SMOOTH",
"1262 219 OFFCURVE",
"1236 149 OFFCURVE",
"1212 82 CURVE",
"932 82 LINE",
"608 940 LINE",
"613 788 OFFCURVE",
"625 626 OFFCURVE",
"637 465 CURVE SMOOTH",
"649 304 OFFCURVE",
"660 144 OFFCURVE",
"667 -1 CURVE",
"294 -1 LINE",
"294 1409 LINE",
"711 1409 LINE",
"1072 516 LINE",
"1450 1409 LINE",
"1808 1409 LINE",
"1808 0 LINE"
);
}
);
width = 2100;
}
);
unicode = 004D;
},
{
glyphname = N;
lastChange = "2012-07-01 20:33:18 +0000";
layers = (
{
anchors = (
{
name = bottom;
position = "{926, 0}";
},
{
name = top;
position = "{926, 1409}";
}
);
layerId = "3DB320B4-16A0-42F5-9048-CF6BF22037FA";
name = Bold;
paths = (
{
closed = 1;
nodes = (
"1130 0 LINE",
"596 998 LINE",
"605 829 OFFCURVE",
"617 662 OFFCURVE",
"632 497 CURVE SMOOTH",
"647 332 OFFCURVE",
"659 166 OFFCURVE",
"668 0 CURVE",
"294 0 LINE",
"294 1409 LINE",
"652 1409 LINE",
"1273 519 LINE",
"1273 1409 LINE",
"1559 1409 LINE",
"1559 0 LINE"
);
}
);
width = 1852;
}
);
unicode = 004E;
},
{
glyphname = O;
lastChange = "2012-07-01 20:33:18 +0000";
layers = (
{
anchors = (
{
name = top;
position = "{889, 1409}";
}
);
layerId = "3DB320B4-16A0-42F5-9048-CF6BF22037FA";
name = Bold;
paths = (
{
closed = 1;
nodes = (
"1588 484 OFFCURVE",
"1520 302 OFFCURVE",
"1397 176 CURVE SMOOTH",
"1273 50 OFFCURVE",
"1096 -19 OFFCURVE",
"876 -19 CURVE SMOOTH",
"661 -19 OFFCURVE",
"490 53 OFFCURVE",
"372 181 CURVE SMOOTH",
"254 309 OFFCURVE",
"190 491 OFFCURVE",
"190 711 CURVE SMOOTH",
"190 938 OFFCURVE",
"258 1117 OFFCURVE",
"380 1240 CURVE SMOOTH",
"502 1363 OFFCURVE",
"680 1429 OFFCURVE",
"901 1429 CURVE SMOOTH",
"1114 1429 OFFCURVE",
"1285 1359 OFFCURVE",
"1404 1235 CURVE SMOOTH",
"1523 1110 OFFCURVE",
"1588 931 OFFCURVE",
"1588 711 CURVE SMOOTH"
);
},
{
closed = 1;
nodes = (
"1328 900 OFFCURVE",
"1289 1011 OFFCURVE",
"1214 1088 CURVE SMOOTH",
"1139 1164 OFFCURVE",
"1030 1206 OFFCURVE",
"890 1206 CURVE SMOOTH",
"750 1206 OFFCURVE",
"639 1167 OFFCURVE",
"564 1092 CURVE SMOOTH",
"489 1016 OFFCURVE",
"449 906 OFFCURVE",
"449 763 CURVE SMOOTH",
"449 624 OFFCURVE",
"484 528 OFFCURVE",
"559 476 CURVE SMOOTH",
"637 421 OFFCURVE",
"747 394 OFFCURVE",
"888 394 CURVE SMOOTH",
"1180 394 OFFCURVE",
"1328 476 OFFCURVE",
"1328 763 CURVE SMOOTH"
);
}
);
width = 1777;
}
);
unicode = 004F;
},
{
glyphname = P;
lastChange = "2012-07-01 20:33:18 +0000";
layers = (
{
layerId = "3DB320B4-16A0-42F5-9048-CF6BF22037FA";
name = Bold;
paths = (
{
closed = 1;
nodes = (
"1321 830 OFFCURVE",
"1273 718 OFFCURVE",
"1187 639 CURVE SMOOTH",
"1101 560 OFFCURVE",
"976 516 OFFCURVE",
"824 516 CURVE SMOOTH",
"555 516 LINE",
"635 0 LINE",
"240 0 LINE",
"331 1403 LINE",
"813 1403 LINE SMOOTH",
"972 1403 OFFCURVE",
"1099 1364 OFFCURVE",
"1187 1289 CURVE SMOOTH",
"1274 1214 OFFCURVE",
"1321 1106 OFFCURVE",
"1321 966 CURVE SMOOTH"
);
},
{
closed = 1;
nodes = (
"1112 1138 OFFCURVE",
"1016 1202 OFFCURVE",
"824 1202 CURVE SMOOTH",
"617 1202 LINE",
"615 1167 OFFCURVE",
"613 1134 OFFCURVE",
"612 1103 CURVE SMOOTH",
"610 1071 OFFCURVE",
"608 1039 OFFCURVE",
"607 1008 CURVE SMOOTH",
"605 977 OFFCURVE",
"603 945 OFFCURVE",
"602 913 CURVE SMOOTH",
"600 881 OFFCURVE",
"598 847 OFFCURVE",
"596 811 CURVE",
"832 811 LINE SMOOTH",
"1019 811 OFFCURVE",
"1112 872 OFFCURVE",
"1112 1009 CURVE SMOOTH"
);
}
);
width = 1355;
}
);
unicode = 0050;
},
{
glyphname = Q;
lastChange = "2012-07-01 20:33:18 +0000";
layers = (
{
layerId = "3DB320B4-16A0-42F5-9048-CF6BF22037FA";
name = Bold;
paths = (
{
closed = 1;
nodes = (
"1508 520 OFFCURVE",
"1485 378 OFFCURVE",
"1427 274 CURVE SMOOTH",
"1369 169 OFFCURVE",
"1278 103 OFFCURVE",
"1142 67 CURVE",
"1165 -2 OFFCURVE",
"1189 -39 OFFCURVE",
"1215 -44 CURVE SMOOTH",
"1256 -51 OFFCURVE",
"1309 -57 OFFCURVE",
"1373 -57 CURVE SMOOTH",
"1408 -57 OFFCURVE",
"1464 -47 OFFCURVE",
"1555 -27 CURVE",
"1394 -319 LINE",
"1323 -336 OFFCURVE",
"1259 -344 OFFCURVE",
"1200 -344 CURVE SMOOTH",
"1099 -344 OFFCURVE",
"1019 -318 OFFCURVE",
"950 -262 CURVE SMOOTH",
"881 -207 OFFCURVE",
"821 -124 OFFCURVE",
"761 -11 CURVE",
"538 -3 OFFCURVE",
"376 75 OFFCURVE",
"269 203 CURVE SMOOTH",
"161 331 OFFCURVE",
"109 508 OFFCURVE",
"109 711 CURVE SMOOTH",
"109 938 OFFCURVE",
"176 1117 OFFCURVE",
"299 1240 CURVE SMOOTH",
"422 1363 OFFCURVE",
"600 1429 OFFCURVE",
"821 1429 CURVE SMOOTH",
"1034 1429 OFFCURVE",
"1205 1359 OFFCURVE",
"1324 1235 CURVE SMOOTH",
"1443 1110 OFFCURVE",
"1508 931 OFFCURVE",
"1508 711 CURVE SMOOTH"
);
},
{
closed = 1;
nodes = (
"1248 887 OFFCURVE",
"1210 1003 OFFCURVE",
"1136 1083 CURVE SMOOTH",
"1062 1162 OFFCURVE",
"951 1206 OFFCURVE",
"810 1206 CURVE SMOOTH",
"669 1206 OFFCURVE",
"559 1164 OFFCURVE",
"484 1085 CURVE SMOOTH",
"408 1006 OFFCURVE",
"369 891 OFFCURVE",
"369 746 CURVE SMOOTH",
"369 459 OFFCURVE",
"525 398 OFFCURVE",
"642 383 CURVE",
"607 540 LINE",
"950 607 LINE",
"991 422 LINE",
"1079 451 LINE",
"1192 508 OFFCURVE",
"1248 606 OFFCURVE",
"1248 746 CURVE SMOOTH"
);
}
);
width = 1744;
}
);
unicode = 0051;
},
{
glyphname = R;
lastChange = "2012-07-01 20:33:18 +0000";
layers = (
{
anchors = (
{
name = bottom;
position = "{831, 0}";
},
{
name = top;
position = "{831, 1409}";
}
);
layerId = "3DB320B4-16A0-42F5-9048-CF6BF22037FA";
name = Bold;
paths = (
{
closed = 1;
nodes = (
"1051 0 LINE",
"682 525 LINE",
"605 525 LINE",
"682 0 LINE",
"274 0 LINE",
"324 1409 LINE",
"887 1409 LINE SMOOTH",
"1012 1409 OFFCURVE",
"1106 1370 OFFCURVE",
"1169 1298 CURVE SMOOTH",
"1232 1226 OFFCURVE",
"1263 1122 OFFCURVE",
"1263 990 CURVE SMOOTH",
"1263 926 OFFCURVE",
"1241 844 OFFCURVE",
"1206 772 CURVE SMOOTH",
"1171 699 OFFCURVE",
"1124 633 OFFCURVE",
"1073 600 CURVE",
"1619 0 LINE"
);
},
{
closed = 1;
nodes = (
"1012 1065 OFFCURVE",
"987 1116 OFFCURVE",
"952 1149 CURVE SMOOTH",
"916 1182 OFFCURVE",
"869 1198 OFFCURVE",
"828 1198 CURVE SMOOTH",
"579 1198 LINE",
"579 819 LINE",
"835 819 LINE SMOOTH",
"876 819 OFFCURVE",
"921 843 OFFCURVE",
"955 877 CURVE SMOOTH",
"989 911 OFFCURVE",
"1012 954 OFFCURVE",
"1012 997 CURVE SMOOTH"
);
}
);
width = 1661;
}
);
unicode = 0052;
},
{
glyphname = S;
lastChange = "2012-07-01 20:33:18 +0000";
layers = (
{
anchors = (
{
name = bottom;
position = "{768, 0}";
},
{
name = top;
position = "{768, 1409}";
}
);
layerId = "3DB320B4-16A0-42F5-9048-CF6BF22037FA";
name = Bold;
paths = (
{
closed = 1;
nodes = (
"1353 274 OFFCURVE",
"1298 167 OFFCURVE",
"1198 94 CURVE SMOOTH",
"1097 21 OFFCURVE",
"949 -19 OFFCURVE",
"765 -19 CURVE SMOOTH",
"421 -19 OFFCURVE",
"218 114 OFFCURVE",
"156 380 CURVE",
"458 513 LINE",
"494 426 OFFCURVE",
"531 378 OFFCURVE",
"569 371 CURVE SMOOTH",
"616 363 OFFCURVE",
"682 360 OFFCURVE",
"769 360 CURVE SMOOTH",
"873 360 OFFCURVE",
"929 362 OFFCURVE",
"963 373 CURVE SMOOTH",
"997 384 OFFCURVE",
"1010 401 OFFCURVE",
"1026 432 CURVE",
"1028 447 OFFCURVE",
"1029 458 OFFCURVE",
"1029 466 CURVE SMOOTH",
"1029 523 OFFCURVE",
"980 554 OFFCURVE",
"885 577 CURVE SMOOTH",
"720 616 LINE SMOOTH",
"611 641 OFFCURVE",
"532 665 OFFCURVE",
"472 689 CURVE SMOOTH",
"412 713 OFFCURVE",
"370 740 OFFCURVE",
"334 772 CURVE SMOOTH",
"262 837 OFFCURVE",
"224 923 OFFCURVE",
"224 1034 CURVE SMOOTH",
"224 1161 OFFCURVE",
"273 1259 OFFCURVE",
"365 1327 CURVE SMOOTH",
"457 1394 OFFCURVE",
"593 1429 OFFCURVE",
"769 1429 CURVE SMOOTH",
"929 1429 OFFCURVE",
"1049 1409 OFFCURVE",
"1139 1353 CURVE SMOOTH",
"1229 1297 OFFCURVE",
"1289 1203 OFFCURVE",
"1332 1055 CURVE",
"1078 1011 LINE",
"1038 1155 OFFCURVE",
"942 1217 OFFCURVE",
"767 1217 CURVE SMOOTH",
"576 1217 OFFCURVE",
"476 1159 OFFCURVE",
"476 1044 CURVE SMOOTH",
"476 977 OFFCURVE",
"513 940 OFFCURVE",
"582 909 CURVE SMOOTH",
"642 882 OFFCURVE",
"720 866 OFFCURVE",
"804 847 CURVE SMOOTH",
"887 828 OFFCURVE",
"976 809 OFFCURVE",
"1058 780 CURVE SMOOTH",
"1140 751 OFFCURVE",
"1213 711 OFFCURVE",
"1266 652 CURVE SMOOTH",
"1319 592 OFFCURVE",
"1353 514 OFFCURVE",
"1353 406 CURVE SMOOTH"
);
}
);
width = 1536;
}
);
unicode = 0053;
},
{
glyphname = T;
lastChange = "2012-07-01 20:33:18 +0000";
layers = (
{
anchors = (
{
name = bottom;
position = "{687, 0}";
},
{
name = center;
position = "{687, 705}";
},
{
name = top;
position = "{687, 1409}";
}
);
layerId = "3DB320B4-16A0-42F5-9048-CF6BF22037FA";
name = Bold;
paths = (
{
closed = 1;
nodes = (
"817 1185 LINE",
"825 1002 OFFCURVE",
"834 802 OFFCURVE",
"843 599 CURVE SMOOTH",
"847 498 OFFCURVE",
"851 396 OFFCURVE",
"855 295 CURVE SMOOTH",
"859 194 OFFCURVE",
"863 95 OFFCURVE",
"867 0 CURVE",
"510 0 LINE",
"558 1185 LINE",
"101 1165 LINE",
"101 1409 LINE",
"1273 1409 LINE",
"1273 1165 LINE"
);
}
);
width = 1374;
}
);
unicode = 0054;
},
{
glyphname = U;
lastChange = "2012-07-01 20:33:18 +0000";
layers = (
{
anchors = (
{
name = ogonek;
position = "{1521, 10}";
},
{
name = top;
position = "{845, 1409}";
}
);
layerId = "3DB320B4-16A0-42F5-9048-CF6BF22037FA";
name = Bold;
paths = (
{
closed = 1;
nodes = (
"660 -19 OFFCURVE",
"515 32 OFFCURVE",
"414 125 CURVE SMOOTH",
"313 217 OFFCURVE",
"255 353 OFFCURVE",
"255 522 CURVE",
"305 1409 LINE",
"552 1409 LINE",
"502 710 LINE",
"517 501 OFFCURVE",
"628 383 OFFCURVE",
"833 383 CURVE SMOOTH",
"941 383 OFFCURVE",
"1026 409 OFFCURVE",
"1085 463 CURVE SMOOTH",
"1144 517 OFFCURVE",
"1175 598 OFFCURVE",
"1175 711 CURVE SMOOTH",
"1175 1409 LINE",
"1440 1409 LINE",
"1440 538 LINE SMOOTH",
"1440 363 OFFCURVE",
"1379 225 OFFCURVE",
"1274 129 CURVE SMOOTH",
"1169 33 OFFCURVE",
"1016 -19 OFFCURVE",
"835 -19 CURVE SMOOTH"
);
}
);
width = 1690;
}
);
unicode = 0055;
},
{
glyphname = V;
lastChange = "2012-07-01 20:33:18 +0000";
layers = (
{
layerId = "3DB320B4-16A0-42F5-9048-CF6BF22037FA";
name = Bold;
paths = (
{
closed = 1;
nodes = (
"968 0 LINE",
"592 0 LINE",
"87 1409 LINE",
"356 1409 LINE",
"781 538 LINE",
"1204 1409 LINE",
"1473 1409 LINE"
);
}
);
width = 1559;
}
);
unicode = 0056;
},
{
glyphname = W;
lastChange = "2012-07-01 20:33:18 +0000";
layers = (
{
anchors = (
{
name = top;
position = "{1122, 1409}";
}
);
layerId = "3DB320B4-16A0-42F5-9048-CF6BF22037FA";
name = Bold;
paths = (
{
closed = 1;
nodes = (
"1663 0 LINE",
"1295 0 LINE",
"1121 658 LINE",
"938 0 LINE",
"580 0 LINE",
"115 1409 LINE",
"380 1409 LINE",
"754 529 LINE",
"1043 1062 LINE",
"1218 1062 LINE",
"1511 529 LINE",
"1560 678 OFFCURVE",
"1624 825 OFFCURVE",
"1688 971 CURVE SMOOTH",
"1751 1117 OFFCURVE",
"1815 1261 OFFCURVE",
"1863 1409 CURVE",
"2129 1409 LINE"
);
}
);
width = 2243;
}
);
unicode = 0057;
},
{
glyphname = X;
lastChange = "2012-07-01 20:33:18 +0000";
layers = (
{
layerId = "3DB320B4-16A0-42F5-9048-CF6BF22037FA";
name = Bold;
paths = (
{
closed = 1;
nodes = (
"1203 0 LINE",
"901 482 LINE",
"607 0 LINE",
"151 0 LINE",
"749 731 LINE",
"712 784 OFFCURVE",
"673 839 OFFCURVE",
"632 897 CURVE SMOOTH",
"550 1013 OFFCURVE",
"466 1131 OFFCURVE",
"384 1246 CURVE SMOOTH",
"343 1303 OFFCURVE",
"304 1358 OFFCURVE",
"267 1409 CURVE",
"560 1409 LINE",
"898 931 LINE",
"1244 1409 LINE",
"1545 1409 LINE",
"1053 729 LINE",
"1673 0 LINE"
);
}
);
width = 1817;
}
);
unicode = 0058;
},
{
glyphname = Y;
lastChange = "2012-07-01 20:33:18 +0000";
layers = (
{
anchors = (
{
name = top;
position = "{750, 1409}";
}
);
layerId = "3DB320B4-16A0-42F5-9048-CF6BF22037FA";
name = Bold;
paths = (
{
closed = 1;
nodes = (
"907 502 LINE",
"1000 0 LINE",
"496 0 LINE",
"593 502 LINE",
"553 573 OFFCURVE",
"511 647 OFFCURVE",
"468 724 CURVE SMOOTH",
"425 801 OFFCURVE",
"381 878 OFFCURVE",
"338 956 CURVE SMOOTH",
"294 1033 OFFCURVE",
"250 1110 OFFCURVE",
"207 1187 CURVE SMOOTH",
"164 1264 OFFCURVE",
"122 1338 OFFCURVE",
"82 1409 CURVE",
"367 1409 LINE",
"753 814 LINE",
"1135 1409 LINE",
"1420 1409 LINE"
);
}
);
width = 1500;
}
);
unicode = 0059;
},
{
glyphname = Z;
lastChange = "2012-07-01 20:33:18 +0000";
layers = (
{
anchors = (
{
name = top;
position = "{831, 1409}";
}
);
layerId = "3DB320B4-16A0-42F5-9048-CF6BF22037FA";
name = Bold;
paths = (
{
closed = 1;
nodes = (
"1394 0 LINE",
"257 0 LINE",
"257 361 LINE",
"974 1167 LINE",
"326 1167 LINE",
"326 1409 LINE",
"1350 1409 LINE",
"1350 1206 LINE",
"721 396 LINE",
"1394 396 LINE"
);
}
);
width = 1662;
}
);
unicode = 005A;
},
{
glyphname = bracketleft;
lastChange = "2012-07-01 20:33:18 +0000";
layers = (
{
layerId = "3DB320B4-16A0-42F5-9048-CF6BF22037FA";
name = Bold;
paths = (
{
closed = 1;
nodes = (
"294 -392 LINE",
"354 1454 LINE",
"924 1454 LINE",
"924 1204 LINE",
"665 1215 LINE",
"653 991 OFFCURVE",
"637 774 OFFCURVE",
"620 557 CURVE SMOOTH",
"603 340 OFFCURVE",
"587 123 OFFCURVE",
"575 -102 CURVE",
"608 -103 OFFCURVE",
"646 -105 OFFCURVE",
"683 -108 CURVE SMOOTH",
"720 -111 OFFCURVE",
"756 -113 OFFCURVE",
"784 -114 CURVE",
"770 -392 LINE"
);
}
);
width = 1021;
}
);
unicode = 005B;
},
{
glyphname = backslash;
lastChange = "2012-07-01 20:33:18 +0000";
layers = (
{
layerId = "3DB320B4-16A0-42F5-9048-CF6BF22037FA";
name = Bold;
paths = (
{
closed = 1;
nodes = (
"422 -18 LINE",
"26 1444 LINE",
"283 1444 LINE",
"683 -18 LINE"
);
}
);
width = 708;
}
);
unicode = 005C;
},
{
glyphname = bracketright;
lastChange = "2012-07-01 20:33:18 +0000";
layers = (
{
layerId = "3DB320B4-16A0-42F5-9048-CF6BF22037FA";
name = Bold;
paths = (
{
closed = 1;
nodes = (
"141 -381 LINE",
"151 -82 LINE",
"371 -90 LINE",
"417 1219 LINE",
"254 1219 LINE",
"262 1459 LINE",
"745 1442 LINE",
"681 -400 LINE"
);
}
);
width = 970;
}
);
unicode = 005D;
},
{
glyphname = asciicircum;
lastChange = "2012-07-01 20:33:18 +0000";
layers = (
{
layerId = "3DB320B4-16A0-42F5-9048-CF6BF22037FA";
name = Bold;
paths = (
{
closed = 1;
nodes = (
"804 605 LINE",
"606 1153 LINE",
"390 605 LINE",
"95 605 LINE",
"480 1376 LINE",
"732 1376 LINE",
"1120 605 LINE"
);
}
);
width = 1214;
}
);
unicode = 005E;
},
{
glyphname = underscore;
lastChange = "2012-07-01 20:33:18 +0000";
layers = (
{
layerId = "3DB320B4-16A0-42F5-9048-CF6BF22037FA";
name = Bold;
paths = (
{
closed = 1;
nodes = (
"294 -365 LINE",
"294 -139 LINE",
"1477 -139 LINE",
"1477 -365 LINE"
);
}
);
width = 1770;
}
);
unicode = 005F;
},
{
glyphname = grave;
lastChange = "2012-07-01 20:33:18 +0000";
layers = (
{
anchors = (
{
name = _top;
position = "{298.5, 1092}";
}
);
layerId = "3DB320B4-16A0-42F5-9048-CF6BF22037FA";
name = Bold;
paths = (
{
closed = 1;
nodes = (
"384 1079 LINE",
"53 1358 LINE",
"53 1466 LINE",
"321 1466 LINE",
"544 1171 LINE",
"544 1079 LINE"
);
}
);
width = 650;
}
);
unicode = 0060;
},
{
glyphname = a;
lastChange = "2012-07-01 20:33:18 +0000";
layers = (
{
anchors = (
{
name = ogonek;
position = "{1260, 10}";
},
{
name = top;
position = "{700, 1092}";
}
);
layerId = "3DB320B4-16A0-42F5-9048-CF6BF22037FA";
name = Bold;
paths = (
{
closed = 1;
nodes = (
"426 -19 OFFCURVE",
"340 14 OFFCURVE",
"283 72 CURVE SMOOTH",
"226 130 OFFCURVE",
"197 214 OFFCURVE",
"197 319 CURVE SMOOTH",
"197 551 OFFCURVE",
"356 659 OFFCURVE",
"652 675 CURVE SMOOTH",
"859 686 LINE",
"859 707 LINE SMOOTH",
"859 775 OFFCURVE",
"846 832 OFFCURVE",
"818 872 CURVE SMOOTH",
"789 912 OFFCURVE",
"745 934 OFFCURVE",
"684 934 CURVE SMOOTH",
"621 934 OFFCURVE",
"558 915 OFFCURVE",
"510 881 CURVE SMOOTH",
"462 847 OFFCURVE",
"427 798 OFFCURVE",
"420 741 CURVE",
"236 758 LINE",
"272 987 OFFCURVE",
"421 1101 OFFCURVE",
"684 1101 CURVE SMOOTH",
"964 1101 OFFCURVE",
"1103 970 OFFCURVE",
"1103 725 CURVE SMOOTH",
"1103 362 LINE",
"1105 345 OFFCURVE",
"1107 330 OFFCURVE",
"1108 317 CURVE SMOOTH",
"1111 289 OFFCURVE",
"1117 269 OFFCURVE",
"1130 258 CURVE SMOOTH",
"1137 252 OFFCURVE",
"1146 249 OFFCURVE",
"1158 249 CURVE SMOOTH",
"1165 249 OFFCURVE",
"1176 250 OFFCURVE",
"1191 253 CURVE",
"1206 255 OFFCURVE",
"1225 259 OFFCURVE",
"1250 265 CURVE",
"1250 13 LINE",
"1189 -3 OFFCURVE",
"1134 -9 OFFCURVE",
"1085 -9 CURVE SMOOTH",
"968 -9 OFFCURVE",
"905 35 OFFCURVE",
"878 134 CURVE",
"794 26 OFFCURVE",
"687 -19 OFFCURVE",
"539 -19 CURVE SMOOTH"
);
},
{
closed = 1;
nodes = (
"617 314 OFFCURVE",
"666 328 OFFCURVE",
"707 347 CURVE SMOOTH",
"747 366 OFFCURVE",
"780 390 OFFCURVE",
"801 413 CURVE SMOOTH",
"821 434 OFFCURVE",
"831 463 OFFCURVE",
"831 502 CURVE SMOOTH",
"831 542 LINE",
"639 542 LINE SMOOTH",
"574 542 OFFCURVE",
"518 542 OFFCURVE",
"490 531 CURVE SMOOTH",
"427 507 OFFCURVE",
"396 466 OFFCURVE",
"395 394 CURVE",
"404 361 OFFCURVE",
"430 341 OFFCURVE",
"461 329 CURVE SMOOTH",
"492 317 OFFCURVE",
"529 314 OFFCURVE",
"564 314 CURVE SMOOTH"
);
}
);
width = 1400;
}
);
unicode = 0061;
},
{
glyphname = b;
lastChange = "2012-07-01 20:33:18 +0000";
layers = (
{
layerId = "3DB320B4-16A0-42F5-9048-CF6BF22037FA";
name = Bold;
paths = (
{
closed = 1;
nodes = (
"526 1017 LINE",
"526 1020 OFFCURVE",
"526 1023 OFFCURVE",
"527 1028 CURVE",
"527 1032 OFFCURVE",
"527 1035 OFFCURVE",
"527 1036 CURVE",
"526 1035 OFFCURVE",
"526 1033 OFFCURVE",
"526 1031 CURVE SMOOTH",
"526 1021 LINE"
);
},
{
closed = 1;
nodes = (
"1198 168 OFFCURVE",
"1058 -19 OFFCURVE",
"787 -19 CURVE SMOOTH",
"658 -19 OFFCURVE",
"568 15 OFFCURVE",
"495 91 CURVE",
"487 0 LINE",
"249 0 LINE",
"250 15 OFFCURVE",
"252 32 OFFCURVE",
"254 69 CURVE SMOOTH",
"255 87 OFFCURVE",
"256 111 OFFCURVE",
"257 141 CURVE SMOOTH",
"260 201 OFFCURVE",
"264 297 OFFCURVE",
"271 435 CURVE SMOOTH",
"278 573 OFFCURVE",
"288 764 OFFCURVE",
"301 1019 CURVE SMOOTH",
"308 1146 OFFCURVE",
"315 1292 OFFCURVE",
"324 1456 CURVE",
"567 1456 LINE",
"525 1022 LINE",
"525 1013 LINE",
"526 1013 OFFCURVE",
"526 1014 OFFCURVE",
"526 1017 CURVE",
"590 1073 OFFCURVE",
"679 1101 OFFCURVE",
"787 1101 CURVE SMOOTH",
"927 1101 OFFCURVE",
"1028 1056 OFFCURVE",
"1096 964 CURVE SMOOTH",
"1164 872 OFFCURVE",
"1199 732 OFFCURVE",
"1207 543 CURVE"
);
},
{
closed = 1;
nodes = (
"985 474 OFFCURVE",
"1006 549 OFFCURVE",
"1015 652 CURVE",
"1006 760 OFFCURVE",
"989 826 OFFCURVE",
"956 866 CURVE SMOOTH",
"923 905 OFFCURVE",
"873 916 OFFCURVE",
"800 916 CURVE SMOOTH",
"719 916 OFFCURVE",
"661 901 OFFCURVE",
"623 860 CURVE SMOOTH",
"585 819 OFFCURVE",
"567 753 OFFCURVE",
"567 650 CURVE SMOOTH",
"567 455 OFFCURVE",
"635 366 OFFCURVE",
"799 366 CURVE SMOOTH",
"870 366 OFFCURVE",
"920 387 OFFCURVE",
"951 429 CURVE SMOOTH"
);
}
);
width = 1283;
}
);
unicode = 0062;
},
{
glyphname = c;
lastChange = "2012-07-01 20:33:18 +0000";
layers = (
{
anchors = (
{
name = bottom;
position = "{621, 0}";
},
{
name = top;
position = "{621, 1092}";
}
);
layerId = "3DB320B4-16A0-42F5-9048-CF6BF22037FA";
name = Bold;
paths = (
{
closed = 1;
nodes = (
"443 458 OFFCURVE",
"469 400 OFFCURVE",
"510 364 CURVE SMOOTH",
"551 328 OFFCURVE",
"607 315 OFFCURVE",
"667 315 CURVE SMOOTH",
"697 315 OFFCURVE",
"722 318 OFFCURVE",
"741 324 CURVE SMOOTH",
"760 330 OFFCURVE",
"776 334 OFFCURVE",
"787 335 CURVE SMOOTH",
"796 336 OFFCURVE",
"807 343 OFFCURVE",
"820 356 CURVE SMOOTH",
"833 369 OFFCURVE",
"849 387 OFFCURVE",
"867 410 CURVE",
"1101 203 LINE",
"1026 115 OFFCURVE",
"964 58 OFFCURVE",
"913 27 CURVE SMOOTH",
"862 -4 OFFCURVE",
"779 -19 OFFCURVE",
"665 -19 CURVE SMOOTH",
"357 -19 OFFCURVE",
"194 174 OFFCURVE",
"194 542 CURVE SMOOTH",
"194 906 OFFCURVE",
"360 1101 OFFCURVE",
"663 1101 CURVE SMOOTH",
"774 1101 OFFCURVE",
"862 1077 OFFCURVE",
"926 1028 CURVE",
"955 1004 OFFCURVE",
"975 982 OFFCURVE",
"992 955 CURVE SMOOTH",
"1001 941 OFFCURVE",
"1010 926 OFFCURVE",
"1019 910 CURVE SMOOTH",
"1028 893 OFFCURVE",
"1040 875 OFFCURVE",
"1053 855 CURVE",
"890 717 LINE",
"855 774 OFFCURVE",
"828 819 OFFCURVE",
"794 849 CURVE SMOOTH",
"760 879 OFFCURVE",
"719 895 OFFCURVE",
"659 895 CURVE SMOOTH",
"579 895 OFFCURVE",
"526 871 OFFCURVE",
"492 816 CURVE SMOOTH",
"458 760 OFFCURVE",
"443 673 OFFCURVE",
"443 546 CURVE SMOOTH"
);
}
);
width = 1242;
}
);
unicode = 0063;
},
{
glyphname = d;
lastChange = "2012-07-01 20:33:18 +0000";
layers = (
{
anchors = (
{
name = center;
position = "{648, 546}";
}
);
layerId = "3DB320B4-16A0-42F5-9048-CF6BF22037FA";
name = Bold;
paths = (
{
closed = 1;
nodes = (
"761 0 LINE",
"759 13 OFFCURVE",
"757 22 OFFCURVE",
"756 29 CURVE",
"754 35 OFFCURVE",
"753 41 OFFCURVE",
"753 48 CURVE",
"721 17 OFFCURVE",
"683 1 OFFCURVE",
"639 -8 CURVE SMOOTH",
"594 -17 OFFCURVE",
"542 -19 OFFCURVE",
"486 -19 CURVE SMOOTH",
"346 -19 OFFCURVE",
"245 27 OFFCURVE",
"177 119 CURVE SMOOTH",
"109 211 OFFCURVE",
"75 349 OFFCURVE",
"68 536 CURVE",
"75 913 OFFCURVE",
"214 1101 OFFCURVE",
"486 1101 CURVE SMOOTH",
"611 1101 OFFCURVE",
"701 1071 OFFCURVE",
"769 999 CURVE",
"797 1459 LINE",
"1038 1459 LINE",
"995 244 LINE SMOOTH",
"994 222 OFFCURVE",
"994 199 OFFCURVE",
"994 176 CURVE",
"993 153 OFFCURVE",
"993 130 OFFCURVE",
"992 108 CURVE SMOOTH",
"991 86 OFFCURVE",
"991 66 OFFCURVE",
"991 47 CURVE",
"990 28 OFFCURVE",
"990 13 OFFCURVE",
"989 0 CURVE"
);
},
{
closed = 1;
nodes = (
"298 804 OFFCURVE",
"277 743 OFFCURVE",
"270 635 CURVE",
"277 527 OFFCURVE",
"296 460 OFFCURVE",
"332 421 CURVE SMOOTH",
"367 381 OFFCURVE",
"418 369 OFFCURVE",
"487 369 CURVE SMOOTH",
"654 369 OFFCURVE",
"716 432 OFFCURVE",
"716 643 CURVE SMOOTH",
"716 742 OFFCURVE",
"699 808 OFFCURVE",
"661 851 CURVE SMOOTH",
"623 894 OFFCURVE",
"564 912 OFFCURVE",
"484 912 CURVE SMOOTH",
"413 912 OFFCURVE",
"361 889 OFFCURVE",
"330 849 CURVE"
);
}
);
width = 1295;
}
);
unicode = 0064;
},
{
glyphname = e;
lastChange = "2012-07-01 20:33:18 +0000";
layers = (
{
anchors = (
{
name = bottom;
position = "{679, 0}";
},
{
name = ogonek;
position = "{1221, 10}";
},
{
name = top;
position = "{679, 1092}";
}
);
layerId = "3DB320B4-16A0-42F5-9048-CF6BF22037FA";
name = Bold;
paths = (
{
closed = 1;
nodes = (
"442 579 LINE",
"449 487 OFFCURVE",
"474 433 OFFCURVE",
"518 398 CURVE SMOOTH",
"542 378 OFFCURVE",
"569 360 OFFCURVE",
"602 347 CURVE SMOOTH",
"634 334 OFFCURVE",
"675 325 OFFCURVE",
"730 325 CURVE SMOOTH",
"771 325 OFFCURVE",
"804 326 OFFCURVE",
"827 328 CURVE SMOOTH",
"850 330 OFFCURVE",
"867 332 OFFCURVE",
"877 333 CURVE",
"897 336 OFFCURVE",
"915 338 OFFCURVE",
"932 339 CURVE",
"965 339 OFFCURVE",
"1001 342 OFFCURVE",
"1049 354 CURVE SMOOTH",
"1072 360 OFFCURVE",
"1101 371 OFFCURVE",
"1135 386 CURVE",
"1135 49 LINE",
"1087 20 OFFCURVE",
"1038 5 OFFCURVE",
"984 -3 CURVE SMOOTH",
"957 -7 OFFCURVE",
"928 -10 OFFCURVE",
"899 -12 CURVE SMOOTH",
"870 -14 OFFCURVE",
"839 -16 OFFCURVE",
"808 -19 CURVE",
"690 -19 LINE SMOOTH",
"365 -19 OFFCURVE",
"194 174 OFFCURVE",
"194 539 CURVE SMOOTH",
"194 908 OFFCURVE",
"368 1101 OFFCURVE",
"683 1101 CURVE SMOOTH",
"955 1101 OFFCURVE",
"1108 944 OFFCURVE",
"1137 645 CURVE",
"1137 581 LINE"
);
},
{
closed = 1;
nodes = (
"913 751 LINE",
"896 798 OFFCURVE",
"870 840 OFFCURVE",
"833 871 CURVE SMOOTH",
"796 902 OFFCURVE",
"745 921 OFFCURVE",
"680 921 CURVE SMOOTH",
"620 921 OFFCURVE",
"572 901 OFFCURVE",
"536 870 CURVE SMOOTH",
"500 838 OFFCURVE",
"476 796 OFFCURVE",
"463 751 CURVE"
);
}
);
width = 1357;
}
);
unicode = 0065;
},
{
glyphname = f;
lastChange = "2012-07-01 20:33:18 +0000";
layers = (
{
layerId = "3DB320B4-16A0-42F5-9048-CF6BF22037FA";
name = Bold;
paths = (
{
closed = 1;
nodes = (
"519 894 LINE",
"524 750 OFFCURVE",
"530 598 OFFCURVE",
"535 446 CURVE SMOOTH",
"539 294 OFFCURVE",
"544 141 OFFCURVE",
"549 0 CURVE",
"174 0 LINE",
"224 894 LINE",
"117 894 LINE",
"117 1099 LINE",
"234 1099 LINE",
"235 1114 OFFCURVE",
"237 1129 OFFCURVE",
"238 1144 CURVE SMOOTH",
"239 1159 OFFCURVE",
"240 1174 OFFCURVE",
"240 1189 CURVE SMOOTH",
"243 1360 OFFCURVE",
"350 1455 OFFCURVE",
"541 1455 CURVE SMOOTH",
"590 1455 OFFCURVE",
"643 1451 OFFCURVE",
"706 1436 CURVE",
"706 1235 LINE",
"654 1244 OFFCURVE",
"615 1249 OFFCURVE",
"595 1249 CURVE SMOOTH",
"535 1249 OFFCURVE",
"510 1219 OFFCURVE",
"510 1164 CURVE SMOOTH",
"510 1099 LINE",
"706 1099 LINE",
"706 894 LINE"
);
}
);
width = 841;
}
);
unicode = 0066;
},
{
glyphname = g;
lastChange = "2012-07-01 20:33:18 +0000";
layers = (
{
anchors = (
{
name = top;
position = "{699, 1092}";
}
);
layerId = "3DB320B4-16A0-42F5-9048-CF6BF22037FA";
name = Bold;
paths = (
{
closed = 1;
nodes = (
"648 -454 OFFCURVE",
"623 -454 OFFCURVE",
"600 -455 CURVE SMOOTH",
"577 -456 OFFCURVE",
"554 -456 OFFCURVE",
"531 -456 CURVE SMOOTH",
"439 -456 OFFCURVE",
"359 -450 OFFCURVE",
"290 -407 CURVE",
"290 -77 LINE",
"347 -100 OFFCURVE",
"403 -109 OFFCURVE",
"457 -115 CURVE SMOOTH",
"511 -121 OFFCURVE",
"563 -121 OFFCURVE",
"614 -121 CURVE SMOOTH",
"620 -121 LINE SMOOTH",
"651 -121 OFFCURVE",
"695 -121 OFFCURVE",
"734 -109 CURVE",
"767 -96 OFFCURVE",
"801 -58 OFFCURVE",
"829 -13 CURVE SMOOTH",
"857 32 OFFCURVE",
"881 85 OFFCURVE",
"897 128 CURVE",
"862 79 LINE SMOOTH",
"842 51 OFFCURVE",
"802 29 OFFCURVE",
"758 15 CURVE SMOOTH",
"714 1 OFFCURVE",
"665 -7 OFFCURVE",
"625 -7 CURVE SMOOTH",
"490 -7 OFFCURVE",
"390 35 OFFCURVE",
"322 127 CURVE SMOOTH",
"253 218 OFFCURVE",
"214 358 OFFCURVE",
"205 553 CURVE",
"210 749 OFFCURVE",
"253 885 OFFCURVE",
"328 973 CURVE SMOOTH",
"403 1060 OFFCURVE",
"509 1099 OFFCURVE",
"644 1099 CURVE SMOOTH",
"761 1099 OFFCURVE",
"857 1057 OFFCURVE",
"925 980 CURVE",
"932 1028 OFFCURVE",
"937 1058 OFFCURVE",
"952 1083 CURVE",
"1175 1083 LINE",
"1174 1074 OFFCURVE",
"1172 1046 OFFCURVE",
"1170 997 CURVE SMOOTH",
"1165 899 OFFCURVE",
"1158 725 OFFCURVE",
"1149 481 CURVE SMOOTH",
"1144 358 OFFCURVE",
"1139 220 OFFCURVE",
"1134 65 CURVE SMOOTH",
"1129 -91 OFFCURVE",
"1088 -219 OFFCURVE",
"1011 -308 CURVE SMOOTH",
"934 -397 OFFCURVE",
"821 -449 OFFCURVE",
"673 -454 CURVE SMOOTH"
);
},
{
closed = 1;
nodes = (
"877 714 OFFCURVE",
"853 785 OFFCURVE",
"813 833 CURVE SMOOTH",
"772 881 OFFCURVE",
"715 908 OFFCURVE",
"647 908 CURVE SMOOTH",
"571 908 OFFCURVE",
"514 893 OFFCURVE",
"475 851 CURVE SMOOTH",
"435 809 OFFCURVE",
"415 742 OFFCURVE",
"415 639 CURVE SMOOTH",
"415 434 OFFCURVE",
"466 350 OFFCURVE",
"645 350 CURVE SMOOTH",
"704 350 OFFCURVE",
"744 361 OFFCURVE",
"775 382 CURVE SMOOTH",
"806 403 OFFCURVE",
"827 434 OFFCURVE",
"847 474 CURVE",
"866 517 OFFCURVE",
"877 567 OFFCURVE",
"877 626 CURVE SMOOTH"
);
}
);
width = 1397;
}
);
unicode = 0067;
},
{
glyphname = h;
lastChange = "2012-07-01 20:33:18 +0000";
layers = (
{
anchors = (
{
name = center;
position = "{675, 546}";
},
{
name = top;
position = "{675, 1092}";
}
);
layerId = "3DB320B4-16A0-42F5-9048-CF6BF22037FA";
name = Bold;
paths = (
{
closed = 1;
nodes = (
"606 1457 LINE",
"587 1234 OFFCURVE",
"575 1070 OFFCURVE",
"570 989 CURVE",
"642 1068 OFFCURVE",
"731 1101 OFFCURVE",
"855 1101 CURVE SMOOTH",
"975 1101 OFFCURVE",
"1065 1070 OFFCURVE",
"1124 1008 CURVE SMOOTH",
"1180 948 OFFCURVE",
"1214 843 OFFCURVE",
"1221 711 CURVE SMOOTH",
"1260 0 LINE",
"923 0 LINE",
"968 679 LINE",
"968 771 OFFCURVE",
"959 825 OFFCURVE",
"933 857 CURVE SMOOTH",
"907 889 OFFCURVE",
"863 897 OFFCURVE",
"798 897 CURVE SMOOTH",
"727 897 OFFCURVE",
"674 872 OFFCURVE",
"638 826 CURVE SMOOTH",
"602 780 OFFCURVE",
"584 714 OFFCURVE",
"584 634 CURVE SMOOTH",
"584 537 OFFCURVE",
"593 427 OFFCURVE",
"604 317 CURVE SMOOTH",
"615 207 OFFCURVE",
"626 96 OFFCURVE",
"630 0 CURVE",
"294 0 LINE",
"294 1457 LINE"
);
}
);
width = 1349;
}
);
unicode = 0068;
},
{
glyphname = i;
lastChange = "2012-07-01 20:33:18 +0000";
layers = (
{
layerId = "3DB320B4-16A0-42F5-9048-CF6BF22037FA";
name = Bold;
paths = (
{
closed = 1;
nodes = (
"295 1185 LINE",
"295 1457 LINE",
"565 1457 LINE",
"565 1185 LINE"
);
},
{
closed = 1;
nodes = (
"231 0 LINE",
"271 1092 LINE",
"557 1092 LINE",
"597 0 LINE"
);
}
);
width = 840;
}
);
unicode = 0069;
},
{
glyphname = j;
lastChange = "2012-07-01 20:33:18 +0000";
layers = (
{
layerId = "3DB320B4-16A0-42F5-9048-CF6BF22037FA";
name = Bold;
paths = (
{
closed = 1;
nodes = (
"388 1192 LINE",
"388 1464 LINE",
"658 1464 LINE",
"658 1192 LINE"
);
},
{
closed = 1;
nodes = (
"577 -95 LINE",
"545 -199 OFFCURVE",
"504 -273 OFFCURVE",
"452 -321 CURVE SMOOTH",
"399 -370 OFFCURVE",
"333 -393 OFFCURVE",
"250 -393 CURVE SMOOTH",
"180 -393 OFFCURVE",
"108 -384 OFFCURVE",
"34 -365 CURVE",
"34 -69 LINE",
"176 -95 LINE",
"183 -96 OFFCURVE",
"188 -97 OFFCURVE",
"195 -97 CURVE SMOOTH",
"228 -97 OFFCURVE",
"250 -79 OFFCURVE",
"261 -68 CURVE",
"268 -62 OFFCURVE",
"272 -50 OFFCURVE",
"275 -33 CURVE SMOOTH",
"278 -16 OFFCURVE",
"280 6 OFFCURVE",
"282 34 CURVE SMOOTH",
"355 1092 LINE",
"647 1092 LINE"
);
}
);
width = 837;
}
);
unicode = 006A;
},
{
glyphname = k;
lastChange = "2012-07-01 20:33:18 +0000";
layers = (
{
anchors = (
{
name = bottom;
position = "{612, 0}";
}
);
layerId = "3DB320B4-16A0-42F5-9048-CF6BF22037FA";
name = Bold;
paths = (
{
closed = 1;
nodes = (
"768 0 LINE",
"724 81 OFFCURVE",
"687 149 OFFCURVE",
"658 204 CURVE SMOOTH",
"598 315 OFFCURVE",
"560 385 OFFCURVE",
"539 423 CURVE SMOOTH",
"528 442 OFFCURVE",
"521 455 OFFCURVE",
"516 464 CURVE SMOOTH",
"511 473 OFFCURVE",
"508 478 OFFCURVE",
"507 479 CURVE SMOOTH",
"506 480 OFFCURVE",
"506 481 OFFCURVE",
"506 481 CURVE",
"506 476 OFFCURVE",
"507 465 OFFCURVE",
"510 447 CURVE SMOOTH",
"513 428 OFFCURVE",
"516 401 OFFCURVE",
"521 364 CURVE SMOOTH",
"530 290 OFFCURVE",
"542 173 OFFCURVE",
"557 0 CURVE",
"294 0 LINE",
"294 1457 LINE",
"523 1457 LINE",
"523 664 LINE",
"896 1083 LINE",
"1195 1083 LINE",
"704 556 LINE",
"1216 0 LINE"
);
}
);
width = 1223;
}
);
unicode = 006B;
},
{
glyphname = l;
lastChange = "2012-07-01 20:33:18 +0000";
layers = (
{
anchors = (
{
name = bottom;
position = "{418, 0}";
},
{
name = top;
position = "{418, 1092}";
},
{
name = topright;
position = "{815, 1092}";
}
);
layerId = "3DB320B4-16A0-42F5-9048-CF6BF22037FA";
name = Bold;
paths = (
{
closed = 1;
nodes = (
"274 2 LINE",
"344 1387 LINE",
"641 1387 LINE",
"591 237 LINE",
"716 237 LINE",
"716 2 LINE"
);
}
);
width = 835;
}
);
unicode = 006C;
},
{
glyphname = m;
lastChange = "2012-07-01 20:33:18 +0000";
layers = (
{
layerId = "3DB320B4-16A0-42F5-9048-CF6BF22037FA";
name = Bold;
paths = (
{
closed = 1;
nodes = (
"809 0 LINE",
"898 697 LINE SMOOTH",
"902 728 OFFCURVE",
"905 756 OFFCURVE",
"905 775 CURVE SMOOTH",
"905 830 OFFCURVE",
"891 861 OFFCURVE",
"864 878 CURVE SMOOTH",
"837 894 OFFCURVE",
"799 897 OFFCURVE",
"751 897 CURVE SMOOTH",
"630 897 OFFCURVE",
"559 802 OFFCURVE",
"556 610 CURVE",
"589 0 LINE",
"266 0 LINE",
"315 832 LINE",
"315 942 OFFCURVE",
"311 1026 OFFCURVE",
"303 1083 CURVE",
"537 1083 LINE",
"540 1064 OFFCURVE",
"544 1025 OFFCURVE",
"545 988 CURVE",
"612 1063 OFFCURVE",
"695 1092 OFFCURVE",
"810 1092 CURVE SMOOTH",
"951 1092 OFFCURVE",
"1042 1054 OFFCURVE",
"1093 957 CURVE",
"1170 1054 OFFCURVE",
"1261 1092 OFFCURVE",
"1392 1092 CURVE SMOOTH",
"1505 1092 OFFCURVE",
"1588 1057 OFFCURVE",
"1642 988 CURVE",
"1689 919 OFFCURVE",
"1719 763 OFFCURVE",
"1727 527 CURVE SMOOTH",
"1730 448 OFFCURVE",
"1735 355 OFFCURVE",
"1741 263 CURVE SMOOTH",
"1744 216 OFFCURVE",
"1747 171 OFFCURVE",
"1750 126 CURVE SMOOTH",
"1753 81 OFFCURVE",
"1755 39 OFFCURVE",
"1757 0 CURVE",
"1427 0 LINE",
"1480 679 LINE",
"1483 700 OFFCURVE",
"1484 719 OFFCURVE",
"1484 734 CURVE SMOOTH",
"1484 846 OFFCURVE",
"1433 897 OFFCURVE",
"1333 897 CURVE SMOOTH",
"1272 897 OFFCURVE",
"1231 885 OFFCURVE",
"1203 845 CURVE SMOOTH",
"1174 805 OFFCURVE",
"1155 736 OFFCURVE",
"1138 621 CURVE",
"1109 0 LINE"
);
}
);
width = 2010;
}
);
unicode = 006D;
},
{
glyphname = n;
lastChange = "2012-07-01 20:33:18 +0000";
layers = (
{
anchors = (
{
name = bottom;
position = "{720, 0}";
},
{
name = top;
position = "{720, 1092}";
}
);
layerId = "3DB320B4-16A0-42F5-9048-CF6BF22037FA";
name = Bold;
paths = (
{
closed = 1;
nodes = (
"862 0 LINE",
"928 687 LINE",
"929 694 OFFCURVE",
"929 700 OFFCURVE",
"929 706 CURVE SMOOTH",
"929 711 OFFCURVE",
"929 717 OFFCURVE",
"929 723 CURVE SMOOTH",
"929 794 OFFCURVE",
"917 837 OFFCURVE",
"889 862 CURVE SMOOTH",
"861 887 OFFCURVE",
"816 895 OFFCURVE",
"751 895 CURVE SMOOTH",
"682 895 OFFCURVE",
"632 872 OFFCURVE",
"599 825 CURVE SMOOTH",
"567 781 OFFCURVE",
"547 725 OFFCURVE",
"546 656 CURVE",
"578 0 LINE",
"256 0 LINE",
"269 263 OFFCURVE",
"279 447 OFFCURVE",
"285 579 CURVE SMOOTH",
"288 644 OFFCURVE",
"290 697 OFFCURVE",
"292 738 CURVE SMOOTH",
"294 778 OFFCURVE",
"295 810 OFFCURVE",
"296 834 CURVE SMOOTH",
"297 857 OFFCURVE",
"297 874 OFFCURVE",
"298 885 CURVE",
"298 895 OFFCURVE",
"298 903 OFFCURVE",
"298 908 CURVE SMOOTH",
"298 921 OFFCURVE",
"298 934 OFFCURVE",
"297 948 CURVE SMOOTH",
"296 961 OFFCURVE",
"296 975 OFFCURVE",
"296 989 CURVE SMOOTH",
"296 1009 OFFCURVE",
"298 1037 OFFCURVE",
"302 1073 CURVE",
"534 1073 LINE",
"528 986 LINE",
"597 1058 OFFCURVE",
"687 1092 OFFCURVE",
"808 1092 CURVE SMOOTH",
"929 1092 OFFCURVE",
"1014 1064 OFFCURVE",
"1071 1001 CURVE SMOOTH",
"1128 938 OFFCURVE",
"1157 842 OFFCURVE",
"1168 703 CURVE SMOOTH",
"1223 0 LINE"
);
}
);
width = 1440;
}
);
unicode = 006E;
},
{
glyphname = o;
lastChange = "2012-07-01 20:33:18 +0000";
layers = (
{
anchors = (
{
name = top;
position = "{688, 1092}";
}
);
layerId = "3DB320B4-16A0-42F5-9048-CF6BF22037FA";
name = Bold;
paths = (
{
closed = 1;
nodes = (
"1175 163 OFFCURVE",
"1003 -19 OFFCURVE",
"683 -19 CURVE SMOOTH",
"364 -19 OFFCURVE",
"200 179 OFFCURVE",
"200 542 CURVE SMOOTH",
"200 909 OFFCURVE",
"363 1092 OFFCURVE",
"689 1092 CURVE SMOOTH",
"1013 1092 OFFCURVE",
"1175 921 OFFCURVE",
"1175 542 CURVE SMOOTH"
);
},
{
closed = 1;
nodes = (
"925 679 OFFCURVE",
"910 764 OFFCURVE",
"873 817 CURVE SMOOTH",
"836 870 OFFCURVE",
"777 894 OFFCURVE",
"692 894 CURVE SMOOTH",
"604 894 OFFCURVE",
"543 870 OFFCURVE",
"505 816 CURVE SMOOTH",
"467 762 OFFCURVE",
"450 678 OFFCURVE",
"450 558 CURVE SMOOTH",
"450 387 OFFCURVE",
"514 355 OFFCURVE",
"682 355 CURVE SMOOTH",
"777 355 OFFCURVE",
"840 368 OFFCURVE",
"876 392 CURVE SMOOTH",
"909 414 OFFCURVE",
"925 469 OFFCURVE",
"925 558 CURVE SMOOTH"
);
}
);
width = 1376;
}
);
unicode = 006F;
},
{
glyphname = p;
lastChange = "2012-07-01 20:33:18 +0000";
layers = (
{
layerId = "3DB320B4-16A0-42F5-9048-CF6BF22037FA";
name = Bold;
paths = (
{
closed = 1;
nodes = (
"1254 169 OFFCURVE",
"1118 -19 OFFCURVE",
"846 -19 CURVE SMOOTH",
"721 -19 OFFCURVE",
"628 25 OFFCURVE",
"563 93 CURVE",
"597 -397 LINE",
"263 -397 LINE",
"313 1078 LINE",
"613 1078 LINE",
"585 1017 LINE",
"649 1073 OFFCURVE",
"730 1100 OFFCURVE",
"846 1100 CURVE SMOOTH",
"1119 1100 OFFCURVE",
"1254 929 OFFCURVE",
"1254 546 CURVE SMOOTH"
);
},
{
closed = 1;
nodes = (
"1057 399 OFFCURVE",
"1076 478 OFFCURVE",
"1084 610 CURVE",
"1076 706 OFFCURVE",
"1057 790 OFFCURVE",
"1021 848 CURVE SMOOTH",
"985 906 OFFCURVE",
"931 940 OFFCURVE",
"854 940 CURVE SMOOTH",
"790 940 OFFCURVE",
"744 920 OFFCURVE",
"710 889 CURVE SMOOTH",
"676 857 OFFCURVE",
"652 815 OFFCURVE",
"635 770 CURVE SMOOTH",
"616 724 OFFCURVE",
"607 659 OFFCURVE",
"607 574 CURVE SMOOTH",
"607 361 OFFCURVE",
"669 337 OFFCURVE",
"856 337 CURVE SMOOTH",
"932 337 OFFCURVE",
"991 351 OFFCURVE",
"1026 374 CURVE"
);
}
);
width = 1328;
}
);
unicode = 0070;
},
{
glyphname = q;
lastChange = "2012-07-01 20:33:18 +0000";
layers = (
{
layerId = "3DB320B4-16A0-42F5-9048-CF6BF22037FA";
name = Bold;
paths = (
{
closed = 1;
nodes = (
"199 -19 OFFCURVE",
"74 166 OFFCURVE",
"74 537 CURVE SMOOTH",
"74 913 OFFCURVE",
"210 1101 OFFCURVE",
"482 1101 CURVE SMOOTH",
"614 1101 OFFCURVE",
"705 1069 OFFCURVE",
"778 973 CURVE",
"794 1096 LINE",
"1028 1096 LINE",
"1028 -396 LINE",
"728 -396 LINE",
"760 84 LINE",
"692 11 OFFCURVE",
"610 -19 OFFCURVE",
"482 -19 CURVE SMOOTH"
);
},
{
closed = 1;
nodes = (
"721 800 OFFCURVE",
"652 903 OFFCURVE",
"489 903 CURVE SMOOTH",
"345 903 OFFCURVE",
"287 801 OFFCURVE",
"287 569 CURVE SMOOTH",
"287 374 OFFCURVE",
"340 343 OFFCURVE",
"488 343 CURVE SMOOTH",
"572 343 OFFCURVE",
"631 355 OFFCURVE",
"668 391 CURVE SMOOTH",
"705 426 OFFCURVE",
"721 485 OFFCURVE",
"721 580 CURVE SMOOTH"
);
}
);
width = 1319;
}
);
unicode = 0071;
},
{
glyphname = r;
lastChange = "2012-07-01 20:33:18 +0000";
layers = (
{
anchors = (
{
name = bottom;
position = "{476, 0}";
},
{
name = top;
position = "{476, 1092}";
}
);
layerId = "3DB320B4-16A0-42F5-9048-CF6BF22037FA";
name = Bold;
paths = (
{
closed = 1;
nodes = (
"253 0 LINE",
"293 1083 LINE",
"572 1083 LINE",
"572 994 LINE",
"632 1062 OFFCURVE",
"701 1093 OFFCURVE",
"782 1101 CURVE",
"811 1101 OFFCURVE",
"849 1096 OFFCURVE",
"894 1083 CURVE",
"867 853 LINE",
"822 868 OFFCURVE",
"790 872 OFFCURVE",
"767 873 CURVE",
"715 869 OFFCURVE",
"670 835 OFFCURVE",
"638 791 CURVE SMOOTH",
"606 746 OFFCURVE",
"586 690 OFFCURVE",
"585 645 CURVE",
"621 0 LINE"
);
}
);
width = 951;
}
);
unicode = 0072;
},
{
glyphname = s;
lastChange = "2012-07-01 20:33:18 +0000";
layers = (
{
anchors = (
{
name = bottom;
position = "{625, 0}";
},
{
name = top;
position = "{625, 1092}";
}
);
layerId = "3DB320B4-16A0-42F5-9048-CF6BF22037FA";
name = Bold;
paths = (
{
closed = 1;
nodes = (
"1072 209 OFFCURVE",
"1029 126 OFFCURVE",
"953 69 CURVE SMOOTH",
"876 12 OFFCURVE",
"764 -19 OFFCURVE",
"625 -19 CURVE SMOOTH",
"494 -19 OFFCURVE",
"397 4 OFFCURVE",
"323 45 CURVE SMOOTH",
"249 85 OFFCURVE",
"198 143 OFFCURVE",
"161 214 CURVE",
"399 423 LINE",
"411 398 OFFCURVE",
"427 375 OFFCURVE",
"443 356 CURVE SMOOTH",
"459 336 OFFCURVE",
"475 323 OFFCURVE",
"486 315 CURVE SMOOTH",
"509 298 OFFCURVE",
"562 285 OFFCURVE",
"634 277 CURVE",
"669 277 OFFCURVE",
"696 278 OFFCURVE",
"715 279 CURVE SMOOTH",
"734 280 OFFCURVE",
"749 283 OFFCURVE",
"759 286 CURVE SMOOTH",
"778 292 OFFCURVE",
"780 300 OFFCURVE",
"783 312 CURVE SMOOTH",
"785 321 OFFCURVE",
"786 329 OFFCURVE",
"786 336 CURVE SMOOTH",
"786 355 OFFCURVE",
"785 373 OFFCURVE",
"773 390 CURVE SMOOTH",
"761 406 OFFCURVE",
"737 422 OFFCURVE",
"689 434 CURVE SMOOTH",
"568 466 LINE SMOOTH",
"471 493 OFFCURVE",
"400 515 OFFCURVE",
"355 538 CURVE SMOOTH",
"264 585 OFFCURVE",
"205 667 OFFCURVE",
"205 770 CURVE SMOOTH",
"205 981 OFFCURVE",
"348 1089 OFFCURVE",
"627 1089 CURVE SMOOTH",
"744 1089 OFFCURVE",
"827 1075 OFFCURVE",
"878 1048 CURVE SMOOTH",
"925 1021 OFFCURVE",
"971 991 OFFCURVE",
"1022 952 CURVE",
"896 774 LINE",
"853 807 OFFCURVE",
"820 828 OFFCURVE",
"784 851 CURVE SMOOTH",
"781 853 LINE",
"740 873 OFFCURVE",
"695 888 OFFCURVE",
"627 888 CURVE SMOOTH",
"499 888 OFFCURVE",
"443 854 OFFCURVE",
"443 786 CURVE SMOOTH",
"443 755 OFFCURVE",
"465 731 OFFCURVE",
"509 712 CURVE",
"515 709 OFFCURVE",
"527 705 OFFCURVE",
"545 700 CURVE SMOOTH",
"581 689 OFFCURVE",
"631 675 OFFCURVE",
"687 659 CURVE SMOOTH",
"743 643 OFFCURVE",
"797 627 OFFCURVE",
"839 613 CURVE SMOOTH",
"860 606 OFFCURVE",
"875 599 OFFCURVE",
"886 594 CURVE SMOOTH",
"1007 541 OFFCURVE",
"1072 447 OFFCURVE",
"1072 316 CURVE SMOOTH"
);
}
);
width = 1250;
}
);
unicode = 0073;
},
{
glyphname = t;
lastChange = "2012-07-01 20:33:18 +0000";
layers = (
{
anchors = (
{
name = bottom;
position = "{400, 0}";
},
{
name = center;
position = "{400, 546}";
}
);
layerId = "3DB320B4-16A0-42F5-9048-CF6BF22037FA";
name = Bold;
paths = (
{
closed = 1;
nodes = (
"672 -9 LINE",
"654 -10 OFFCURVE",
"634 -10 OFFCURVE",
"613 -11 CURVE SMOOTH",
"592 -12 OFFCURVE",
"571 -12 OFFCURVE",
"550 -13 CURVE SMOOTH",
"508 -14 OFFCURVE",
"467 -15 OFFCURVE",
"439 -15 CURVE SMOOTH",
"364 -15 OFFCURVE",
"304 -3 OFFCURVE",
"262 33 CURVE SMOOTH",
"220 68 OFFCURVE",
"197 124 OFFCURVE",
"197 212 CURVE SMOOTH",
"197 218 OFFCURVE",
"197 224 OFFCURVE",
"198 231 CURVE",
"198 238 OFFCURVE",
"198 244 OFFCURVE",
"198 251 CURVE SMOOTH",
"220 885 LINE",
"93 885 LINE",
"93 1099 LINE",
"232 1099 LINE",
"249 1383 LINE",
"449 1383 LINE",
"449 1099 LINE",
"662 1099 LINE",
"662 885 LINE",
"446 885 LINE",
"446 465 LINE SMOOTH",
"446 464 OFFCURVE",
"446 462 OFFCURVE",
"447 461 CURVE",
"447 460 OFFCURVE",
"447 458 OFFCURVE",
"447 457 CURVE",
"450 422 OFFCURVE",
"451 400 OFFCURVE",
"460 386 CURVE SMOOTH",
"469 372 OFFCURVE",
"486 364 OFFCURVE",
"518 359 CURVE",
"515 360 LINE",
"522 359 OFFCURVE",
"531 359 OFFCURVE",
"544 359 CURVE",
"556 358 OFFCURVE",
"569 358 OFFCURVE",
"584 357 CURVE SMOOTH",
"612 356 OFFCURVE",
"645 355 OFFCURVE",
"672 355 CURVE"
);
}
);
width = 800;
}
);
unicode = 0074;
},
{
glyphname = u;
lastChange = "2012-07-01 20:33:18 +0000";
layers = (
{
anchors = (
{
name = ogonek;
position = "{1336, 10}";
},
{
name = top;
position = "{742, 1092}";
}
);
layerId = "3DB320B4-16A0-42F5-9048-CF6BF22037FA";
name = Bold;
paths = (
{
closed = 1;
nodes = (
"514 1092 LINE",
"514 538 LINE SMOOTH",
"514 451 OFFCURVE",
"523 397 OFFCURVE",
"549 363 CURVE SMOOTH",
"575 329 OFFCURVE",
"617 316 OFFCURVE",
"685 316 CURVE SMOOTH",
"756 316 OFFCURVE",
"804 337 OFFCURVE",
"837 382 CURVE SMOOTH",
"870 426 OFFCURVE",
"888 496 OFFCURVE",
"899 595 CURVE SMOOTH",
"954 1092 LINE",
"1244 1092 LINE",
"1194 0 LINE",
"890 0 LINE",
"901 79 LINE",
"829 14 OFFCURVE",
"748 -19 OFFCURVE",
"628 -19 CURVE SMOOTH",
"507 -19 OFFCURVE",
"418 10 OFFCURVE",
"359 74 CURVE SMOOTH",
"299 138 OFFCURVE",
"271 235 OFFCURVE",
"271 374 CURVE SMOOTH",
"271 1092 LINE"
);
}
);
width = 1484;
}
);
unicode = 0075;
},
{
glyphname = v;
lastChange = "2012-07-01 20:33:18 +0000";
layers = (
{
layerId = "3DB320B4-16A0-42F5-9048-CF6BF22037FA";
name = Bold;
paths = (
{
closed = 1;
nodes = (
"792 0 LINE",
"456 0 LINE",
"113 1092 LINE",
"367 1092 LINE",
"629 458 LINE",
"901 1092 LINE",
"1157 1092 LINE"
);
}
);
width = 1260;
}
);
unicode = 0076;
},
{
glyphname = w;
lastChange = "2012-07-01 20:33:18 +0000";
layers = (
{
anchors = (
{
name = top;
position = "{918, 1092}";
}
);
layerId = "3DB320B4-16A0-42F5-9048-CF6BF22037FA";
name = Bold;
paths = (
{
closed = 1;
nodes = (
"1370 0 LINE",
"1088 0 LINE",
"917 312 LINE",
"742 0 LINE",
"461 0 LINE",
"178 1083 LINE",
"447 1083 LINE",
"645 416 LINE",
"712 505 OFFCURVE",
"780 598 OFFCURVE",
"843 683 CURVE",
"990 683 LINE",
"1187 416 LINE",
"1221 527 OFFCURVE",
"1256 638 OFFCURVE",
"1291 751 CURVE SMOOTH",
"1326 864 OFFCURVE",
"1360 974 OFFCURVE",
"1393 1083 CURVE",
"1660 1083 LINE"
);
}
);
width = 1836;
}
);
unicode = 0077;
},
{
glyphname = x;
lastChange = "2012-07-01 20:33:18 +0000";
layers = (
{
layerId = "3DB320B4-16A0-42F5-9048-CF6BF22037FA";
name = Bold;
paths = (
{
closed = 1;
nodes = (
"950 0 LINE",
"765 327 LINE",
"580 0 LINE",
"207 0 LINE",
"615 521 LINE",
"558 608 OFFCURVE",
"492 706 OFFCURVE",
"427 803 CURVE SMOOTH",
"362 900 OFFCURVE",
"297 998 OFFCURVE",
"241 1083 CURVE",
"545 1083 LINE",
"766 716 LINE",
"1004 1083 LINE",
"1283 1083 LINE",
"907 549 LINE",
"1344 0 LINE"
);
}
);
width = 1536;
}
);
unicode = 0078;
},
{
glyphname = y;
lastChange = "2012-07-01 20:33:18 +0000";
layers = (
{
anchors = (
{
name = top;
position = "{657, 1092}";
}
);
layerId = "3DB320B4-16A0-42F5-9048-CF6BF22037FA";
name = Bold;
paths = (
{
closed = 1;
nodes = (
"404 -396 OFFCURVE",
"348 -391 OFFCURVE",
"284 -382 CURVE",
"284 -53 LINE",
"332 -61 OFFCURVE",
"369 -64 OFFCURVE",
"400 -64 CURVE SMOOTH",
"464 -64 OFFCURVE",
"521 -49 OFFCURVE",
"565 -21 CURVE SMOOTH",
"609 7 OFFCURVE",
"639 47 OFFCURVE",
"647 98 CURVE",
"656 180 LINE",
"588 324 OFFCURVE",
"514 480 OFFCURVE",
"439 637 CURVE SMOOTH",
"402 715 OFFCURVE",
"365 793 OFFCURVE",
"329 870 CURVE SMOOTH",
"292 947 OFFCURVE",
"257 1021 OFFCURVE",
"223 1092 CURVE",
"465 1092 LINE",
"782 562 LINE",
"1064 1092 LINE",
"1280 1092 LINE",
"874 23 LINE SMOOTH",
"831 -90 OFFCURVE",
"792 -169 OFFCURVE",
"752 -227 CURVE SMOOTH",
"712 -285 OFFCURVE",
"670 -323 OFFCURVE",
"621 -352 CURVE SMOOTH",
"570 -381 OFFCURVE",
"515 -396 OFFCURVE",
"455 -396 CURVE SMOOTH"
);
}
);
width = 1314;
}
);
unicode = 0079;
},
{
glyphname = z;
lastChange = "2012-07-01 20:33:18 +0000";
layers = (
{
anchors = (
{
name = top;
position = "{703, 1092}";
}
);
layerId = "3DB320B4-16A0-42F5-9048-CF6BF22037FA";
name = Bold;
paths = (
{
closed = 1;
nodes = (
"272 0 LINE",
"272 262 LINE",
"794 898 LINE",
"303 898 LINE",
"303 1083 LINE",
"1109 1083 LINE",
"1109 925 LINE",
"637 288 LINE",
"1128 288 LINE",
"1128 0 LINE"
);
}
);
width = 1405;
}
);
unicode = 007A;
},
{
glyphname = braceleft;
lastChange = "2012-07-01 20:33:18 +0000";
layers = (
{
layerId = "3DB320B4-16A0-42F5-9048-CF6BF22037FA";
name = Bold;
paths = (
{
closed = 1;
nodes = (
"525 -382 LINE SMOOTH",
"334 -382 OFFCURVE",
"232 -267 OFFCURVE",
"232 -63 CURVE SMOOTH",
"232 261 LINE SMOOTH",
"232 366 OFFCURVE",
"173 414 OFFCURVE",
"38 421 CURVE",
"38 641 LINE",
"171 646 OFFCURVE",
"232 696 OFFCURVE",
"232 800 CURVE SMOOTH",
"232 1126 LINE SMOOTH",
"232 1333 OFFCURVE",
"328 1444 OFFCURVE",
"525 1444 CURVE SMOOTH",
"701 1444 LINE",
"701 1218 LINE",
"589 1218 LINE SMOOTH",
"518 1218 OFFCURVE",
"493 1173 OFFCURVE",
"493 1080 CURVE SMOOTH",
"493 759 LINE SMOOTH",
"493 690 OFFCURVE",
"473 630 OFFCURVE",
"433 580 CURVE",
"421 563 OFFCURVE",
"403 545 OFFCURVE",
"387 532 CURVE",
"454 480 OFFCURVE",
"493 399 OFFCURVE",
"493 303 CURVE SMOOTH",
"493 -18 LINE SMOOTH",
"493 -110 OFFCURVE",
"518 -156 OFFCURVE",
"589 -156 CURVE SMOOTH",
"701 -156 LINE",
"701 -382 LINE"
);
}
);
width = 924;
}
);
unicode = 007B;
},
{
glyphname = bar;
lastChange = "2012-07-01 20:33:18 +0000";
layers = (
{
layerId = "3DB320B4-16A0-42F5-9048-CF6BF22037FA";
name = Bold;
paths = (
{
closed = 1;
nodes = (
"265 657 LINE",
"265 1456 LINE",
"492 1456 LINE",
"492 647 LINE"
);
},
{
closed = 1;
nodes = (
"504 443 LINE",
"448 -408 LINE",
"230 -408 LINE",
"230 443 LINE"
);
}
);
width = 705;
}
);
unicode = 007C;
},
{
glyphname = braceright;
lastChange = "2012-07-01 20:33:18 +0000";
layers = (
{
layerId = "3DB320B4-16A0-42F5-9048-CF6BF22037FA";
name = Bold;
paths = (
{
closed = 1;
nodes = (
"337 -156 LINE SMOOTH",
"408 -156 OFFCURVE",
"434 -110 OFFCURVE",
"434 -18 CURVE SMOOTH",
"434 303 LINE SMOOTH",
"434 396 OFFCURVE",
"475 481 OFFCURVE",
"538 533 CURVE",
"466 590 OFFCURVE",
"434 666 OFFCURVE",
"434 759 CURVE SMOOTH",
"434 1080 LINE SMOOTH",
"434 1173 OFFCURVE",
"408 1218 OFFCURVE",
"337 1218 CURVE SMOOTH",
"227 1218 LINE",
"227 1444 LINE",
"401 1444 LINE SMOOTH",
"598 1444 OFFCURVE",
"694 1333 OFFCURVE",
"694 1126 CURVE SMOOTH",
"694 800 LINE SMOOTH",
"694 696 OFFCURVE",
"753 646 OFFCURVE",
"888 641 CURVE",
"888 420 LINE",
"752 416 OFFCURVE",
"694 365 OFFCURVE",
"694 261 CURVE SMOOTH",
"694 -63 LINE SMOOTH",
"694 -266 OFFCURVE",
"590 -382 OFFCURVE",
"401 -382 CURVE SMOOTH",
"227 -382 LINE",
"227 -156 LINE"
);
}
);
width = 926;
}
);
unicode = 007D;
},
{
glyphname = asciitilde;
lastChange = "2012-07-01 20:33:18 +0000";
layers = (
{
layerId = "3DB320B4-16A0-42F5-9048-CF6BF22037FA";
name = Bold;
paths = (
{
closed = 1;
nodes = (
"886 515 OFFCURVE",
"792 549 OFFCURVE",
"699 582 CURVE SMOOTH",
"623 609 OFFCURVE",
"561 622 OFFCURVE",
"510 622 CURVE SMOOTH",
"434 622 OFFCURVE",
"357 589 OFFCURVE",
"241 505 CURVE",
"241 730 LINE",
"326 794 OFFCURVE",
"420 826 OFFCURVE",
"524 826 CURVE SMOOTH",
"561 826 OFFCURVE",
"592 825 OFFCURVE",
"636 815 CURVE SMOOTH",
"680 805 OFFCURVE",
"736 788 OFFCURVE",
"824 757 CURVE SMOOTH",
"827 756 OFFCURVE",
"835 753 OFFCURVE",
"848 749 CURVE SMOOTH",
"874 741 OFFCURVE",
"911 730 OFFCURVE",
"948 723 CURVE SMOOTH",
"966 719 OFFCURVE",
"981 717 OFFCURVE",
"994 717 CURVE SMOOTH",
"1067 717 OFFCURVE",
"1155 759 OFFCURVE",
"1259 843 CURVE",
"1259 608 LINE",
"1214 576 OFFCURVE",
"1172 552 OFFCURVE",
"1128 537 CURVE SMOOTH",
"1084 522 OFFCURVE",
"1036 515 OFFCURVE",
"979 515 CURVE SMOOTH"
);
}
);
width = 1507;
}
);
unicode = 007E;
},
{
glyphname = exclamdown;
lastChange = "2012-07-01 20:33:18 +0000";
layers = (
{
layerId = "3DB320B4-16A0-42F5-9048-CF6BF22037FA";
name = Bold;
paths = (
{
closed = 1;
nodes = (
"307 726 LINE",
"549 726 LINE",
"549 -293 LINE",
"284 -293 LINE"
);
},
{
closed = 1;
nodes = (
"573 1083 LINE",
"573 792 LINE",
"289 792 LINE",
"289 1083 LINE"
);
}
);
width = 811;
}
);
unicode = 00A1;
},
{
glyphname = cent;
lastChange = "2012-07-01 20:33:18 +0000";
layers = (
{
layerId = "3DB320B4-16A0-42F5-9048-CF6BF22037FA";
name = Bold;
paths = (
{
closed = 1;
nodes = (
"683 416 OFFCURVE",
"748 480 OFFCURVE",
"767 620 CURVE",
"1038 526 LINE",
"1007 290 OFFCURVE",
"888 161 OFFCURVE",
"712 130 CURVE",
"712 -28 LINE",
"489 -28 LINE",
"489 130 LINE",
"248 173 OFFCURVE",
"128 357 OFFCURVE",
"128 681 CURVE SMOOTH",
"128 996 OFFCURVE",
"250 1188 OFFCURVE",
"489 1231 CURVE",
"489 1376 LINE",
"712 1376 LINE",
"712 1230 LINE",
"887 1194 OFFCURVE",
"994 1059 OFFCURVE",
"1037 844 CURVE",
"759 823 LINE",
"740 935 OFFCURVE",
"691 1003 OFFCURVE",
"596 1003 CURVE SMOOTH",
"525 1003 OFFCURVE",
"477 977 OFFCURVE",
"448 931 CURVE SMOOTH",
"419 885 OFFCURVE",
"407 818 OFFCURVE",
"407 741 CURVE SMOOTH",
"407 518 OFFCURVE",
"469 416 OFFCURVE",
"598 416 CURVE SMOOTH"
);
}
);
width = 1132;
}
);
unicode = 00A2;
},
{
glyphname = sterling;
lastChange = "2012-07-01 20:33:18 +0000";
layers = (
{
layerId = "3DB320B4-16A0-42F5-9048-CF6BF22037FA";
name = Bold;
paths = (
{
closed = 1;
nodes = (
"1213 348 LINE",
"1186 124 OFFCURVE",
"1060 0 OFFCURVE",
"859 0 CURVE SMOOTH",
"171 0 LINE",
"171 260 LINE",
"283 317 OFFCURVE",
"334 406 OFFCURVE",
"334 541 CURVE SMOOTH",
"334 582 LINE",
"161 582 LINE",
"161 777 LINE",
"334 777 LINE",
"334 1001 LINE SMOOTH",
"334 1269 OFFCURVE",
"478 1407 OFFCURVE",
"746 1407 CURVE SMOOTH",
"846 1407 OFFCURVE",
"933 1381 OFFCURVE",
"1002 1333 CURVE SMOOTH",
"1071 1285 OFFCURVE",
"1121 1215 OFFCURVE",
"1149 1127 CURVE",
"914 1078 LINE",
"887 1162 OFFCURVE",
"822 1213 OFFCURVE",
"750 1213 CURVE SMOOTH",
"633 1213 OFFCURVE",
"577 1156 OFFCURVE",
"577 1027 CURVE SMOOTH",
"577 777 LINE",
"957 777 LINE",
"957 582 LINE",
"577 582 LINE",
"577 558 LINE SMOOTH",
"577 445 OFFCURVE",
"544 341 OFFCURVE",
"485 273 CURVE",
"832 273 LINE SMOOTH",
"920 273 OFFCURVE",
"974 334 OFFCURVE",
"993 455 CURVE"
);
}
);
width = 1369;
}
);
unicode = 00A3;
},
{
glyphname = currency;
lastChange = "2012-07-01 20:33:18 +0000";
layers = (
{
layerId = "3DB320B4-16A0-42F5-9048-CF6BF22037FA";
name = Bold;
paths = (
{
closed = 1;
nodes = (
"259 758 OFFCURVE",
"280 835 OFFCURVE",
"321 905 CURVE",
"223 1003 LINE",
"372 1151 LINE",
"469 1052 LINE",
"540 1096 OFFCURVE",
"617 1118 OFFCURVE",
"701 1118 CURVE SMOOTH",
"785 1118 OFFCURVE",
"861 1097 OFFCURVE",
"930 1054 CURVE",
"1026 1150 LINE",
"1175 999 LINE",
"1080 905 LINE",
"1123 832 OFFCURVE",
"1145 756 OFFCURVE",
"1145 675 CURVE SMOOTH",
"1145 592 OFFCURVE",
"1123 515 OFFCURVE",
"1079 444 CURVE",
"1176 347 LINE",
"1030 196 LINE",
"930 295 LINE",
"861 254 OFFCURVE",
"785 233 OFFCURVE",
"701 233 CURVE SMOOTH",
"614 233 OFFCURVE",
"539 253 OFFCURVE",
"470 296 CURVE",
"368 194 LINE",
"221 345 LINE",
"321 444 LINE",
"280 514 OFFCURVE",
"259 591 OFFCURVE",
"259 675 CURVE SMOOTH"
);
},
{
closed = 1;
nodes = (
"477 614 OFFCURVE",
"499 561 OFFCURVE",
"543 517 CURVE",
"543 518 LINE",
"586 475 OFFCURVE",
"639 453 OFFCURVE",
"701 453 CURVE SMOOTH",
"761 453 OFFCURVE",
"818 478 OFFCURVE",
"859 519 CURVE SMOOTH",
"899 559 OFFCURVE",
"925 615 OFFCURVE",
"925 676 CURVE SMOOTH",
"925 739 OFFCURVE",
"898 795 OFFCURVE",
"857 836 CURVE SMOOTH",
"816 876 OFFCURVE",
"760 901 OFFCURVE",
"701 901 CURVE SMOOTH",
"642 901 OFFCURVE",
"586 876 OFFCURVE",
"545 836 CURVE SMOOTH",
"504 796 OFFCURVE",
"477 740 OFFCURVE",
"477 676 CURVE SMOOTH"
);
}
);
width = 1398;
}
);
unicode = 00A4;
},
{
glyphname = yen;
lastChange = "2012-07-01 20:33:18 +0000";
layers = (
{
layerId = "3DB320B4-16A0-42F5-9048-CF6BF22037FA";
name = Bold;
paths = (
{
closed = 1;
nodes = (
"901 735 LINE",
"1171 735 LINE",
"1171 544 LINE",
"814 544 LINE",
"814 475 LINE",
"1171 475 LINE",
"1171 282 LINE",
"814 282 LINE",
"814 0 LINE",
"574 0 LINE",
"574 282 LINE",
"219 282 LINE",
"219 475 LINE",
"574 475 LINE",
"574 544 LINE",
"219 544 LINE",
"219 735 LINE",
"489 735 LINE",
"458 787 OFFCURVE",
"425 841 OFFCURVE",
"392 897 CURVE SMOOTH",
"325 1008 OFFCURVE",
"257 1122 OFFCURVE",
"191 1231 CURVE SMOOTH",
"158 1286 OFFCURVE",
"126 1338 OFFCURVE",
"96 1387 CURVE",
"370 1387 LINE",
"694 823 LINE",
"748 916 OFFCURVE",
"803 1010 OFFCURVE",
"859 1107 CURVE SMOOTH",
"914 1203 OFFCURVE",
"968 1296 OFFCURVE",
"1021 1387 CURVE",
"1294 1387 LINE"
);
}
);
width = 1390;
}
);
unicode = 00A5;
},
{
glyphname = brokenbar;
lastChange = "2012-07-01 20:33:18 +0000";
layers = (
{
layerId = "3DB320B4-16A0-42F5-9048-CF6BF22037FA";
name = Bold;
paths = (
{
closed = 1;
nodes = (
"294 658 LINE",
"294 1457 LINE",
"523 1457 LINE",
"523 658 LINE"
);
},
{
closed = 1;
nodes = (
"294 -404 LINE",
"294 396 LINE",
"523 396 LINE",
"523 -404 LINE"
);
}
);
width = 811;
}
);
unicode = 00A6;
},
{
glyphname = section;
lastChange = "2012-07-01 20:33:18 +0000";
layers = (
{
layerId = "3DB320B4-16A0-42F5-9048-CF6BF22037FA";
name = Bold;
paths = (
{
closed = 1;
nodes = (
"894 1457 OFFCURVE",
"1045 1349 OFFCURVE",
"1088 1145 CURVE",
"863 1118 LINE",
"845 1214 OFFCURVE",
"777 1262 OFFCURVE",
"658 1262 CURVE SMOOTH",
"526 1262 OFFCURVE",
"459 1224 OFFCURVE",
"459 1159 CURVE SMOOTH",
"459 1123 OFFCURVE",
"477 1096 OFFCURVE",
"518 1073 CURVE SMOOTH",
"558 1049 OFFCURVE",
"621 1029 OFFCURVE",
"710 1008 CURVE SMOOTH",
"801 985 OFFCURVE",
"879 961 OFFCURVE",
"930 934 CURVE SMOOTH",
"1039 874 OFFCURVE",
"1102 791 OFFCURVE",
"1102 676 CURVE SMOOTH",
"1102 607 OFFCURVE",
"1081 545 OFFCURVE",
"1038 490 CURVE SMOOTH",
"1015 461 OFFCURVE",
"984 436 OFFCURVE",
"952 417 CURVE",
"1052 356 OFFCURVE",
"1096 279 OFFCURVE",
"1096 172 CURVE SMOOTH",
"1096 71 OFFCURVE",
"1054 -13 OFFCURVE",
"977 -70 CURVE SMOOTH",
"900 -127 OFFCURVE",
"788 -160 OFFCURVE",
"648 -160 CURVE SMOOTH",
"509 -160 OFFCURVE",
"405 -140 OFFCURVE",
"329 -91 CURVE SMOOTH",
"252 -42 OFFCURVE",
"201 38 OFFCURVE",
"172 159 CURVE",
"396 202 LINE",
"412 131 OFFCURVE",
"433 90 OFFCURVE",
"472 66 CURVE SMOOTH",
"511 42 OFFCURVE",
"565 36 OFFCURVE",
"648 36 CURVE SMOOTH",
"793 36 OFFCURVE",
"872 80 OFFCURVE",
"872 157 CURVE SMOOTH",
"872 201 OFFCURVE",
"854 231 OFFCURVE",
"810 259 CURVE SMOOTH",
"765 286 OFFCURVE",
"692 307 OFFCURVE",
"584 334 CURVE SMOOTH",
"453 365 OFFCURVE",
"361 408 OFFCURVE",
"302 462 CURVE SMOOTH",
"242 516 OFFCURVE",
"215 582 OFFCURVE",
"215 662 CURVE SMOOTH",
"215 711 OFFCURVE",
"229 760 OFFCURVE",
"256 804 CURVE SMOOTH",
"283 848 OFFCURVE",
"321 886 OFFCURVE",
"372 913 CURVE",
"284 966 OFFCURVE",
"235 1049 OFFCURVE",
"235 1146 CURVE SMOOTH",
"235 1343 OFFCURVE",
"379 1457 OFFCURVE",
"658 1457 CURVE SMOOTH"
);
},
{
closed = 1;
nodes = (
"880 688 OFFCURVE",
"864 718 OFFCURVE",
"824 746 CURVE SMOOTH",
"783 773 OFFCURVE",
"718 797 OFFCURVE",
"621 820 CURVE",
"510 812 OFFCURVE",
"439 756 OFFCURVE",
"439 675 CURVE SMOOTH",
"439 630 OFFCURVE",
"469 596 OFFCURVE",
"525 569 CURVE SMOOTH",
"556 554 OFFCURVE",
"610 537 OFFCURVE",
"686 517 CURVE",
"809 522 OFFCURVE",
"880 572 OFFCURVE",
"880 655 CURVE SMOOTH"
);
}
);
width = 1307;
}
);
unicode = 00A7;
},
{
glyphname = dieresis;
lastChange = "2012-07-01 20:33:18 +0000";
layers = (
{
anchors = (
{
name = _top;
position = "{591, 1092}";
}
);
layerId = "3DB320B4-16A0-42F5-9048-CF6BF22037FA";
name = Bold;
paths = (
{
closed = 1;
nodes = (
"661 1136 LINE",
"661 1382 LINE",
"888 1382 LINE",
"888 1136 LINE"
);
},
{
closed = 1;
nodes = (
"294 1136 LINE",
"294 1382 LINE",
"523 1382 LINE",
"523 1136 LINE"
);
}
);
width = 1180;
}
);
unicode = 00A8;
},
{
glyphname = copyright;
lastChange = "2012-07-01 20:33:18 +0000";
layers = (
{
layerId = "3DB320B4-16A0-42F5-9048-CF6BF22037FA";
name = Bold;
paths = (
{
closed = 1;
nodes = (
"1594 572 OFFCURVE",
"1561 452 OFFCURVE",
"1502 347 CURVE SMOOTH",
"1442 242 OFFCURVE",
"1356 151 OFFCURVE",
"1251 87 CURVE SMOOTH",
"1146 23 OFFCURVE",
"1020 -15 OFFCURVE",
"883 -15 CURVE SMOOTH",
"754 -15 OFFCURVE",
"632 21 OFFCURVE",
"527 83 CURVE SMOOTH",
"422 145 OFFCURVE",
"333 234 OFFCURVE",
"271 339 CURVE SMOOTH",
"209 444 OFFCURVE",
"172 567 OFFCURVE",
"172 696 CURVE SMOOTH",
"172 821 OFFCURVE",
"207 943 OFFCURVE",
"268 1048 CURVE SMOOTH",
"328 1153 OFFCURVE",
"415 1243 OFFCURVE",
"520 1307 CURVE SMOOTH",
"625 1370 OFFCURVE",
"750 1407 OFFCURVE",
"883 1407 CURVE SMOOTH",
"1011 1407 OFFCURVE",
"1134 1372 OFFCURVE",
"1239 1311 CURVE SMOOTH",
"1344 1250 OFFCURVE",
"1434 1161 OFFCURVE",
"1496 1056 CURVE SMOOTH",
"1558 951 OFFCURVE",
"1594 828 OFFCURVE",
"1594 696 CURVE SMOOTH"
);
},
{
closed = 1;
nodes = (
"1434 801 OFFCURVE",
"1407 895 OFFCURVE",
"1360 976 CURVE SMOOTH",
"1312 1057 OFFCURVE",
"1244 1127 OFFCURVE",
"1163 1176 CURVE SMOOTH",
"1082 1224 OFFCURVE",
"986 1252 OFFCURVE",
"883 1252 CURVE SMOOTH",
"739 1252 OFFCURVE",
"602 1193 OFFCURVE",
"502 1094 CURVE SMOOTH",
"401 995 OFFCURVE",
"335 859 OFFCURVE",
"335 704 CURVE SMOOTH",
"335 607 OFFCURVE",
"360 515 OFFCURVE",
"409 430 CURVE SMOOTH",
"460 343 OFFCURVE",
"530 293 OFFCURVE",
"612 263 CURVE SMOOTH",
"694 233 OFFCURVE",
"787 225 OFFCURVE",
"883 225 CURVE SMOOTH",
"982 225 OFFCURVE",
"1077 234 OFFCURVE",
"1159 264 CURVE SMOOTH",
"1241 294 OFFCURVE",
"1311 345 OFFCURVE",
"1360 430 CURVE SMOOTH",
"1409 515 OFFCURVE",
"1434 607 OFFCURVE",
"1434 704 CURVE SMOOTH"
);
},
{
closed = 1;
nodes = (
"682 527 OFFCURVE",
"761 431 OFFCURVE",
"894 431 CURVE SMOOTH",
"977 431 OFFCURVE",
"1043 482 OFFCURVE",
"1091 583 CURVE",
"1272 529 LINE",
"1221 433 OFFCURVE",
"1168 365 OFFCURVE",
"1106 322 CURVE SMOOTH",
"1044 279 OFFCURVE",
"974 260 OFFCURVE",
"894 260 CURVE SMOOTH",
"767 260 OFFCURVE",
"666 301 OFFCURVE",
"596 377 CURVE SMOOTH",
"526 452 OFFCURVE",
"487 562 OFFCURVE",
"487 698 CURVE SMOOTH",
"487 977 OFFCURVE",
"627 1130 OFFCURVE",
"887 1130 CURVE SMOOTH",
"1054 1130 OFFCURVE",
"1176 1045 OFFCURVE",
"1255 875 CURVE",
"1077 824 LINE",
"1034 915 OFFCURVE",
"969 958 OFFCURVE",
"889 958 CURVE SMOOTH",
"756 958 OFFCURVE",
"682 871 OFFCURVE",
"682 698 CURVE SMOOTH"
);
}
);
width = 1768;
}
);
unicode = 00A9;
},
{
glyphname = ordfeminine;
lastChange = "2012-07-01 20:33:18 +0000";
layers = (
{
layerId = "3DB320B4-16A0-42F5-9048-CF6BF22037FA";
name = Bold;
paths = (
{
closed = 1;
nodes = (
"370 607 OFFCURVE",
"307 630 OFFCURVE",
"263 671 CURVE SMOOTH",
"219 712 OFFCURVE",
"194 772 OFFCURVE",
"194 848 CURVE SMOOTH",
"194 932 OFFCURVE",
"221 993 OFFCURVE",
"275 1035 CURVE SMOOTH",
"329 1077 OFFCURVE",
"410 1100 OFFCURVE",
"521 1111 CURVE",
"651 1111 LINE",
"651 1133 LINE SMOOTH",
"651 1209 OFFCURVE",
"622 1240 OFFCURVE",
"547 1240 CURVE SMOOTH",
"486 1240 OFFCURVE",
"446 1208 OFFCURVE",
"434 1112 CURVE",
"219 1126 LINE",
"232 1214 OFFCURVE",
"268 1285 OFFCURVE",
"324 1334 CURVE SMOOTH",
"380 1382 OFFCURVE",
"454 1409 OFFCURVE",
"545 1409 CURVE SMOOTH",
"750 1409 OFFCURVE",
"858 1320 OFFCURVE",
"858 1139 CURVE SMOOTH",
"858 852 LINE SMOOTH",
"858 829 OFFCURVE",
"860 813 OFFCURVE",
"863 803 CURVE SMOOTH",
"866 793 OFFCURVE",
"872 788 OFFCURVE",
"880 788 CURVE SMOOTH",
"885 788 OFFCURVE",
"894 790 OFFCURVE",
"907 794 CURVE",
"920 797 OFFCURVE",
"937 802 OFFCURVE",
"957 809 CURVE",
"957 633 LINE",
"905 618 OFFCURVE",
"870 612 OFFCURVE",
"843 612 CURVE SMOOTH",
"763 612 OFFCURVE",
"707 643 OFFCURVE",
"679 696 CURVE",
"626 637 OFFCURVE",
"549 607 OFFCURVE",
"449 607 CURVE SMOOTH"
);
},
{
closed = 1;
nodes = (
"531 785 OFFCURVE",
"573 802 OFFCURVE",
"603 829 CURVE SMOOTH",
"633 856 OFFCURVE",
"651 892 OFFCURVE",
"651 931 CURVE SMOOTH",
"651 953 LINE",
"560 950 LINE SMOOTH",
"497 947 OFFCURVE",
"459 940 OFFCURVE",
"437 925 CURVE SMOOTH",
"415 910 OFFCURVE",
"408 888 OFFCURVE",
"408 860 CURVE SMOOTH",
"408 810 OFFCURVE",
"434 785 OFFCURVE",
"486 785 CURVE SMOOTH"
);
}
);
width = 1112;
}
);
unicode = 00AA;
},
{
glyphname = guillemotleft;
lastChange = "2012-07-01 20:33:18 +0000";
layers = (
{
layerId = "3DB320B4-16A0-42F5-9048-CF6BF22037FA";
name = Bold;
paths = (
{
closed = 1;
nodes = (
"882 118 LINE",
"553 486 LINE",
"553 574 LINE",
"897 937 LINE",
"1105 937 LINE",
"1105 854 LINE",
"798 527 LINE",
"1095 195 LINE",
"1095 115 LINE"
);
},
{
closed = 1;
nodes = (
"446 122 LINE",
"119 494 LINE",
"119 581 LINE",
"462 945 LINE",
"669 945 LINE",
"669 862 LINE",
"364 535 LINE",
"659 202 LINE",
"659 122 LINE"
);
}
);
width = 1372;
}
);
unicode = 00AB;
},
{
glyphname = logicalnot;
lastChange = "2012-07-01 20:33:18 +0000";
layers = (
{
layerId = "3DB320B4-16A0-42F5-9048-CF6BF22037FA";
name = Bold;
paths = (
{
closed = 1;
nodes = (
"695 162 LINE",
"804 540 LINE",
"743 533 OFFCURVE",
"681 527 OFFCURVE",
"618 520 CURVE SMOOTH",
"555 513 OFFCURVE",
"491 506 OFFCURVE",
"427 499 CURVE SMOOTH",
"299 485 OFFCURVE",
"173 470 OFFCURVE",
"54 457 CURVE",
"54 788 LINE",
"1059 788 LINE",
"1059 162 LINE"
);
}
);
width = 1352;
}
);
unicode = 00AC;
},
{
glyphname = registered;
lastChange = "2012-07-01 20:33:18 +0000";
layers = (
{
layerId = "3DB320B4-16A0-42F5-9048-CF6BF22037FA";
name = Bold;
paths = (
{
closed = 1;
nodes = (
"1594 572 OFFCURVE",
"1561 452 OFFCURVE",
"1502 347 CURVE SMOOTH",
"1442 242 OFFCURVE",
"1356 151 OFFCURVE",
"1251 87 CURVE SMOOTH",
"1146 23 OFFCURVE",
"1020 -15 OFFCURVE",
"883 -15 CURVE SMOOTH",
"754 -15 OFFCURVE",
"632 21 OFFCURVE",
"527 83 CURVE SMOOTH",
"422 145 OFFCURVE",
"333 234 OFFCURVE",
"271 339 CURVE SMOOTH",
"209 444 OFFCURVE",
"172 567 OFFCURVE",
"172 696 CURVE SMOOTH",
"172 821 OFFCURVE",
"207 943 OFFCURVE",
"268 1048 CURVE SMOOTH",
"328 1153 OFFCURVE",
"415 1243 OFFCURVE",
"520 1307 CURVE SMOOTH",
"625 1370 OFFCURVE",
"750 1407 OFFCURVE",
"883 1407 CURVE SMOOTH",
"1011 1407 OFFCURVE",
"1134 1372 OFFCURVE",
"1239 1311 CURVE SMOOTH",
"1344 1250 OFFCURVE",
"1434 1161 OFFCURVE",
"1496 1056 CURVE SMOOTH",
"1558 951 OFFCURVE",
"1594 828 OFFCURVE",
"1594 696 CURVE SMOOTH"
);
},
{
closed = 1;
nodes = (
"1434 801 OFFCURVE",
"1407 895 OFFCURVE",
"1360 976 CURVE SMOOTH",
"1312 1057 OFFCURVE",
"1244 1127 OFFCURVE",
"1163 1176 CURVE SMOOTH",
"1082 1224 OFFCURVE",
"986 1252 OFFCURVE",
"883 1252 CURVE SMOOTH",
"739 1252 OFFCURVE",
"602 1193 OFFCURVE",
"502 1094 CURVE SMOOTH",
"401 995 OFFCURVE",
"335 859 OFFCURVE",
"335 704 CURVE SMOOTH",
"335 607 OFFCURVE",
"360 515 OFFCURVE",
"409 430 CURVE SMOOTH",
"460 343 OFFCURVE",
"531 292 OFFCURVE",
"613 261 CURVE SMOOTH",
"695 229 OFFCURVE",
"788 220 OFFCURVE",
"883 220 CURVE SMOOTH",
"979 220 OFFCURVE",
"1074 230 OFFCURVE",
"1157 261 CURVE SMOOTH",
"1240 292 OFFCURVE",
"1311 345 OFFCURVE",
"1360 430 CURVE SMOOTH",
"1409 515 OFFCURVE",
"1434 607 OFFCURVE",
"1434 704 CURVE SMOOTH"
);
},
{
closed = 1;
nodes = (
"1001 269 LINE",
"861 582 LINE",
"772 582 LINE",
"772 269 LINE",
"580 269 LINE",
"580 1118 LINE",
"903 1118 LINE SMOOTH",
"1104 1118 OFFCURVE",
"1213 1021 OFFCURVE",
"1213 860 CURVE SMOOTH",
"1213 733 OFFCURVE",
"1152 650 OFFCURVE",
"1057 611 CURVE",
"1273 269 LINE"
);
},
{
closed = 1;
nodes = (
"1020 921 OFFCURVE",
"971 952 OFFCURVE",
"894 952 CURVE SMOOTH",
"772 952 LINE",
"772 746 LINE",
"905 746 LINE SMOOTH",
"981 746 OFFCURVE",
"1020 787 OFFCURVE",
"1020 858 CURVE SMOOTH"
);
}
);
width = 1768;
}
);
unicode = 00AE;
},
{
glyphname = macron;
lastChange = "2012-07-01 20:33:18 +0000";
layers = (
{
anchors = (
{
name = _top;
position = "{874, 1092}";
}
);
layerId = "3DB320B4-16A0-42F5-9048-CF6BF22037FA";
name = Bold;
paths = (
{
closed = 1;
nodes = (
"1454 1353 LINE",
"294 1353 LINE",
"294 1515 LINE",
"1454 1515 LINE"
);
}
);
width = 1747;
}
);
unicode = 00AF;
},
{
glyphname = degree;
lastChange = "2012-07-01 20:33:18 +0000";
layers = (
{
layerId = "3DB320B4-16A0-42F5-9048-CF6BF22037FA";
name = Bold;
paths = (
{
closed = 1;
nodes = (
"783 1023 OFFCURVE",
"749 947 OFFCURVE",
"694 892 CURVE SMOOTH",
"639 836 OFFCURVE",
"562 801 OFFCURVE",
"478 801 CURVE SMOOTH",
"395 801 OFFCURVE",
"320 835 OFFCURVE",
"264 890 CURVE SMOOTH",
"208 945 OFFCURVE",
"173 1020 OFFCURVE",
"173 1104 CURVE SMOOTH",
"173 1188 OFFCURVE",
"208 1263 OFFCURVE",
"264 1319 CURVE SMOOTH",
"319 1374 OFFCURVE",
"395 1407 OFFCURVE",
"478 1407 CURVE SMOOTH",
"646 1407 OFFCURVE",
"783 1276 OFFCURVE",
"783 1104 CURVE SMOOTH"
);
},
{
closed = 1;
nodes = (
"607 1139 OFFCURVE",
"593 1172 OFFCURVE",
"570 1196 CURVE SMOOTH",
"547 1220 OFFCURVE",
"514 1235 OFFCURVE",
"478 1235 CURVE SMOOTH",
"405 1235 OFFCURVE",
"350 1176 OFFCURVE",
"350 1104 CURVE SMOOTH",
"350 1068 OFFCURVE",
"364 1036 OFFCURVE",
"388 1012 CURVE SMOOTH",
"411 988 OFFCURVE",
"443 974 OFFCURVE",
"478 974 CURVE SMOOTH",
"514 974 OFFCURVE",
"546 988 OFFCURVE",
"570 1012 CURVE SMOOTH",
"593 1036 OFFCURVE",
"607 1068 OFFCURVE",
"607 1104 CURVE SMOOTH"
);
}
);
width = 957;
}
);
unicode = 00B0;
},
{
glyphname = plusminus;
lastChange = "2012-07-01 20:33:18 +0000";
layers = (
{
layerId = "3DB320B4-16A0-42F5-9048-CF6BF22037FA";
name = Bold;
paths = (
{
closed = 1;
nodes = (
"728 634 LINE",
"728 266 LINE",
"516 266 LINE",
"516 634 LINE",
"121 634 LINE",
"121 843 LINE",
"516 843 LINE",
"516 1210 LINE",
"728 1210 LINE",
"728 843 LINE",
"1123 843 LINE",
"1123 634 LINE"
);
},
{
closed = 1;
nodes = (
"121 0 LINE",
"121 210 LINE",
"1123 210 LINE",
"1123 0 LINE"
);
}
);
width = 1242;
}
);
unicode = 00B1;
},
{
glyphname = twosuperior;
lastChange = "2012-07-01 20:33:18 +0000";
layers = (
{
layerId = "3DB320B4-16A0-42F5-9048-CF6BF22037FA";
name = Bold;
paths = (
{
closed = 1;
nodes = (
"208 525 LINE",
"208 666 LINE",
"249 762 OFFCURVE",
"338 851 OFFCURVE",
"471 944 CURVE SMOOTH",
"578 1020 OFFCURVE",
"628 1078 OFFCURVE",
"628 1135 CURVE SMOOTH",
"628 1191 OFFCURVE",
"598 1225 OFFCURVE",
"530 1225 CURVE SMOOTH",
"466 1225 OFFCURVE",
"422 1179 OFFCURVE",
"411 1092 CURVE",
"211 1103 LINE",
"224 1207 OFFCURVE",
"260 1281 OFFCURVE",
"316 1329 CURVE SMOOTH",
"371 1377 OFFCURVE",
"445 1399 OFFCURVE",
"536 1399 CURVE SMOOTH",
"712 1399 OFFCURVE",
"830 1304 OFFCURVE",
"830 1144 CURVE SMOOTH",
"830 1040 OFFCURVE",
"767 942 OFFCURVE",
"640 849 CURVE SMOOTH",
"596 817 OFFCURVE",
"555 784 OFFCURVE",
"524 759 CURVE",
"509 746 OFFCURVE",
"496 736 OFFCURVE",
"486 729 CURVE",
"476 721 OFFCURVE",
"470 717 OFFCURVE",
"469 717 CURVE SMOOTH",
"468 717 OFFCURVE",
"467 715 OFFCURVE",
"466 712 CURVE SMOOTH",
"465 709 OFFCURVE",
"463 706 OFFCURVE",
"462 704 CURVE",
"842 704 LINE",
"842 525 LINE"
);
}
);
width = 1067;
}
);
unicode = 00B2;
},
{
glyphname = threesuperior;
lastChange = "2012-07-01 20:33:18 +0000";
layers = (
{
layerId = "3DB320B4-16A0-42F5-9048-CF6BF22037FA";
name = Bold;
paths = (
{
closed = 1;
nodes = (
"790 609 OFFCURVE",
"677 513 OFFCURVE",
"476 513 CURVE SMOOTH",
"276 513 OFFCURVE",
"163 607 OFFCURVE",
"137 796 CURVE",
"339 814 LINE",
"350 728 OFFCURVE",
"395 685 OFFCURVE",
"476 685 CURVE SMOOTH",
"551 685 OFFCURVE",
"588 718 OFFCURVE",
"588 785 CURVE SMOOTH",
"588 846 OFFCURVE",
"542 876 OFFCURVE",
"449 876 CURVE SMOOTH",
"355 876 LINE",
"355 1052 LINE",
"445 1052 LINE SMOOTH",
"522 1052 OFFCURVE",
"568 1085 OFFCURVE",
"568 1142 CURVE SMOOTH",
"568 1194 OFFCURVE",
"535 1225 OFFCURVE",
"471 1225 CURVE SMOOTH",
"407 1225 OFFCURVE",
"364 1180 OFFCURVE",
"357 1096 CURVE",
"156 1114 LINE",
"177 1295 OFFCURVE",
"294 1399 OFFCURVE",
"474 1399 CURVE SMOOTH",
"565 1399 OFFCURVE",
"639 1375 OFFCURVE",
"691 1333 CURVE SMOOTH",
"742 1291 OFFCURVE",
"771 1230 OFFCURVE",
"771 1159 CURVE SMOOTH",
"771 1082 OFFCURVE",
"742 1016 OFFCURVE",
"679 973 CURVE",
"751 936 OFFCURVE",
"790 870 OFFCURVE",
"790 778 CURVE SMOOTH"
);
}
);
width = 993;
}
);
unicode = 00B3;
},
{
glyphname = acute;
lastChange = "2012-07-01 20:33:18 +0000";
layers = (
{
anchors = (
{
name = _top;
position = "{327.5, 1092}";
}
);
layerId = "3DB320B4-16A0-42F5-9048-CF6BF22037FA";
name = Bold;
paths = (
{
closed = 1;
nodes = (
"93 1119 LINE",
"93 1187 LINE",
"314 1480 LINE",
"562 1480 LINE",
"562 1398 LINE",
"232 1119 LINE"
);
}
);
width = 599;
}
);
unicode = 00B4;
},
{
glyphname = mu1;
lastChange = "2012-07-01 20:33:18 +0000";
layers = (
{
layerId = "3DB320B4-16A0-42F5-9048-CF6BF22037FA";
name = Bold;
paths = (
{
closed = 1;
nodes = (
"294 -396 LINE",
"294 1083 LINE",
"537 1083 LINE",
"537 504 LINE SMOOTH",
"537 357 OFFCURVE",
"588 283 OFFCURVE",
"703 283 CURVE SMOOTH",
"847 283 OFFCURVE",
"927 380 OFFCURVE",
"927 559 CURVE SMOOTH",
"927 1083 LINE",
"1171 1083 LINE",
"1171 285 LINE SMOOTH",
"1171 251 OFFCURVE",
"1174 226 OFFCURVE",
"1179 211 CURVE SMOOTH",
"1184 195 OFFCURVE",
"1193 187 OFFCURVE",
"1206 187 CURVE SMOOTH",
"1212 187 OFFCURVE",
"1223 189 OFFCURVE",
"1238 192 CURVE SMOOTH",
"1253 195 OFFCURVE",
"1271 200 OFFCURVE",
"1294 206 CURVE",
"1294 9 LINE",
"1234 -10 OFFCURVE",
"1186 -19 OFFCURVE",
"1151 -19 CURVE SMOOTH",
"1046 -19 OFFCURVE",
"980 22 OFFCURVE",
"953 103 CURVE",
"884 19 OFFCURVE",
"800 -19 OFFCURVE",
"692 -19 CURVE SMOOTH",
"635 -19 OFFCURVE",
"579 -7 OFFCURVE",
"536 16 CURVE",
"536 -396 LINE"
);
}
);
width = 1341;
}
);
unicode = 00B5;
},
{
glyphname = paragraph;
lastChange = "2012-07-01 20:33:18 +0000";
layers = (
{
layerId = "3DB320B4-16A0-42F5-9048-CF6BF22037FA";
name = Bold;
paths = (
{
closed = 1;
nodes = (
"979 1218 LINE",
"1085 -246 LINE",
"743 -246 LINE",
"743 1218 LINE",
"652 1218 LINE",
"652 -246 LINE",
"378 -246 LINE",
"425 648 LINE",
"338 657 OFFCURVE",
"261 697 OFFCURVE",
"206 759 CURVE SMOOTH",
"151 821 OFFCURVE",
"118 907 OFFCURVE",
"118 1015 CURVE SMOOTH",
"118 1128 OFFCURVE",
"155 1222 OFFCURVE",
"222 1287 CURVE SMOOTH",
"289 1351 OFFCURVE",
"384 1387 OFFCURVE",
"500 1387 CURVE SMOOTH",
"1009 1387 LINE",
"1009 1218 LINE"
);
}
);
width = 1316;
}
);
unicode = 00B6;
},
{
glyphname = periodcentered;
lastChange = "2012-07-01 20:33:18 +0000";
layers = (
{
layerId = "3DB320B4-16A0-42F5-9048-CF6BF22037FA";
name = Bold;
paths = (
{
closed = 1;
nodes = (
"294 416 LINE",
"294 695 LINE",
"550 695 LINE",
"550 416 LINE"
);
}
);
width = 838;
}
);
unicode = 00B7;
},
{
glyphname = cedilla;
lastChange = "2012-07-01 20:33:18 +0000";
layers = (
{
anchors = (
{
name = _bottom;
position = "{386, 0}";
}
);
layerId = "3DB320B4-16A0-42F5-9048-CF6BF22037FA";
name = Bold;
paths = (
{
closed = 1;
nodes = (
"593 -335 OFFCURVE",
"495 -404 OFFCURVE",
"300 -404 CURVE SMOOTH",
"263 -404 OFFCURVE",
"226 -403 OFFCURVE",
"179 -396 CURVE",
"179 -230 LINE",
"236 -237 OFFCURVE",
"274 -240 OFFCURVE",
"297 -240 CURVE SMOOTH",
"363 -240 OFFCURVE",
"396 -227 OFFCURVE",
"396 -202 CURVE SMOOTH",
"396 -179 OFFCURVE",
"367 -168 OFFCURVE",
"310 -168 CURVE SMOOTH",
"286 -168 OFFCURVE",
"239 -172 OFFCURVE",
"202 -176 CURVE",
"290 75 LINE",
"473 75 LINE",
"434 -24 LINE",
"539 -43 OFFCURVE",
"593 -105 OFFCURVE",
"593 -198 CURVE SMOOTH"
);
}
);
width = 724;
}
);
unicode = 00B8;
},
{
glyphname = onesuperior;
lastChange = "2012-07-01 20:33:18 +0000";
layers = (
{
layerId = "3DB320B4-16A0-42F5-9048-CF6BF22037FA";
name = Bold;
paths = (
{
closed = 1;
nodes = (
"215 525 LINE",
"215 699 LINE",
"412 699 LINE",
"412 1167 LINE",
"224 1040 LINE",
"224 1243 LINE",
"444 1387 LINE",
"608 1387 LINE",
"608 699 LINE",
"809 699 LINE",
"809 525 LINE"
);
}
);
width = 919;
}
);
unicode = 00B9;
},
{
glyphname = ordmasculine;
lastChange = "2012-07-01 20:33:18 +0000";
layers = (
{
layerId = "3DB320B4-16A0-42F5-9048-CF6BF22037FA";
name = Bold;
paths = (
{
closed = 1;
nodes = (
"920 749 OFFCURVE",
"797 607 OFFCURVE",
"556 607 CURVE SMOOTH",
"321 607 OFFCURVE",
"197 747 OFFCURVE",
"197 1008 CURVE SMOOTH",
"197 1268 OFFCURVE",
"321 1409 OFFCURVE",
"560 1409 CURVE SMOOTH",
"800 1409 OFFCURVE",
"920 1275 OFFCURVE",
"920 1008 CURVE SMOOTH"
);
},
{
closed = 1;
nodes = (
"707 1092 OFFCURVE",
"699 1149 OFFCURVE",
"676 1185 CURVE SMOOTH",
"653 1221 OFFCURVE",
"617 1236 OFFCURVE",
"562 1236 CURVE SMOOTH",
"455 1236 OFFCURVE",
"413 1168 OFFCURVE",
"413 1008 CURVE SMOOTH",
"413 852 OFFCURVE",
"455 779 OFFCURVE",
"555 779 CURVE SMOOTH",
"666 779 OFFCURVE",
"707 851 OFFCURVE",
"707 1008 CURVE SMOOTH"
);
}
);
width = 1119;
}
);
unicode = 00BA;
},
{
glyphname = guillemotright;
lastChange = "2012-07-01 20:33:18 +0000";
layers = (
{
layerId = "3DB320B4-16A0-42F5-9048-CF6BF22037FA";
name = Bold;
paths = (
{
closed = 1;
nodes = (
"906 121 LINE",
"697 121 LINE",
"697 203 LINE",
"1005 526 LINE",
"711 863 LINE",
"711 944 LINE",
"920 944 LINE",
"1249 566 LINE",
"1249 477 LINE"
);
},
{
closed = 1;
nodes = (
"473 129 LINE",
"262 129 LINE",
"262 211 LINE",
"570 534 LINE",
"276 870 LINE",
"276 951 LINE",
"487 951 LINE",
"813 573 LINE",
"813 485 LINE"
);
}
);
width = 1369;
}
);
unicode = 00BB;
},
{
glyphname = onequarter;
lastChange = "2012-07-01 20:33:18 +0000";
layers = (
{
layerId = "3DB320B4-16A0-42F5-9048-CF6BF22037FA";
name = Bold;
paths = (
{
closed = 1;
nodes = (
"180 525 LINE",
"180 699 LINE",
"377 699 LINE",
"377 1167 LINE",
"189 1040 LINE",
"189 1243 LINE",
"409 1387 LINE",
"573 1387 LINE",
"573 699 LINE",
"774 699 LINE",
"774 525 LINE"
);
},
{
closed = 1;
nodes = (
"695 0 LINE",
"469 0 LINE",
"1336 1387 LINE",
"1559 1387 LINE"
);
},
{
closed = 1;
nodes = (
"1501 130 LINE",
"1501 -35 LINE",
"1304 -35 LINE",
"1304 130 LINE",
"926 130 LINE",
"926 283 LINE",
"1303 827 LINE",
"1501 827 LINE",
"1501 310 LINE",
"1604 310 LINE",
"1604 130 LINE"
);
},
{
closed = 1;
nodes = (
"1304 310 LINE",
"1304 529 LINE",
"1153 310 LINE"
);
}
);
width = 1758;
}
);
unicode = 00BC;
},
{
glyphname = onehalf;
lastChange = "2012-07-01 20:33:18 +0000";
layers = (
{
layerId = "3DB320B4-16A0-42F5-9048-CF6BF22037FA";
name = Bold;
paths = (
{
closed = 1;
nodes = (
"60 525 LINE",
"60 699 LINE",
"257 699 LINE",
"257 1167 LINE",
"69 1040 LINE",
"69 1243 LINE",
"289 1387 LINE",
"453 1387 LINE",
"453 699 LINE",
"654 699 LINE",
"654 525 LINE"
);
},
{
closed = 1;
nodes = (
"566 0 LINE",
"340 0 LINE",
"1207 1387 LINE",
"1430 1387 LINE"
);
},
{
closed = 1;
nodes = (
"975 -40 LINE",
"975 101 LINE",
"1016 197 OFFCURVE",
"1105 286 OFFCURVE",
"1238 379 CURVE SMOOTH",
"1345 455 OFFCURVE",
"1395 513 OFFCURVE",
"1395 570 CURVE SMOOTH",
"1395 626 OFFCURVE",
"1365 660 OFFCURVE",
"1297 660 CURVE SMOOTH",
"1233 660 OFFCURVE",
"1189 614 OFFCURVE",
"1178 527 CURVE",
"978 538 LINE",
"991 642 OFFCURVE",
"1027 716 OFFCURVE",
"1083 764 CURVE SMOOTH",
"1138 812 OFFCURVE",
"1212 834 OFFCURVE",
"1303 834 CURVE SMOOTH",
"1479 834 OFFCURVE",
"1597 739 OFFCURVE",
"1597 579 CURVE SMOOTH",
"1597 475 OFFCURVE",
"1534 377 OFFCURVE",
"1407 284 CURVE SMOOTH",
"1363 252 OFFCURVE",
"1322 219 OFFCURVE",
"1291 194 CURVE",
"1276 181 OFFCURVE",
"1263 171 OFFCURVE",
"1253 164 CURVE",
"1243 156 OFFCURVE",
"1237 152 OFFCURVE",
"1236 152 CURVE SMOOTH",
"1235 152 OFFCURVE",
"1234 150 OFFCURVE",
"1233 147 CURVE SMOOTH",
"1232 144 OFFCURVE",
"1230 141 OFFCURVE",
"1229 139 CURVE",
"1609 139 LINE",
"1609 -40 LINE"
);
}
);
width = 1797;
}
);
unicode = 00BD;
},
{
glyphname = threequarters;
lastChange = "2012-07-01 20:33:18 +0000";
layers = (
{
layerId = "3DB320B4-16A0-42F5-9048-CF6BF22037FA";
name = Bold;
paths = (
{
closed = 1;
nodes = (
"580 3 LINE",
"354 3 LINE",
"1221 1390 LINE",
"1444 1390 LINE"
);
},
{
closed = 1;
nodes = (
"1390 130 LINE",
"1390 -35 LINE",
"1193 -35 LINE",
"1193 130 LINE",
"815 130 LINE",
"815 283 LINE",
"1192 827 LINE",
"1390 827 LINE",
"1390 310 LINE",
"1493 310 LINE",
"1493 130 LINE"
);
},
{
closed = 1;
nodes = (
"1193 310 LINE",
"1193 529 LINE",
"1042 310 LINE"
);
},
{
closed = 1;
nodes = (
"711 609 OFFCURVE",
"598 513 OFFCURVE",
"397 513 CURVE SMOOTH",
"197 513 OFFCURVE",
"84 607 OFFCURVE",
"58 796 CURVE",
"260 814 LINE",
"271 728 OFFCURVE",
"316 685 OFFCURVE",
"397 685 CURVE SMOOTH",
"472 685 OFFCURVE",
"509 718 OFFCURVE",
"509 785 CURVE SMOOTH",
"509 846 OFFCURVE",
"463 876 OFFCURVE",
"370 876 CURVE SMOOTH",
"276 876 LINE",
"276 1052 LINE",
"366 1052 LINE SMOOTH",
"443 1052 OFFCURVE",
"489 1085 OFFCURVE",
"489 1142 CURVE SMOOTH",
"489 1194 OFFCURVE",
"456 1225 OFFCURVE",
"392 1225 CURVE SMOOTH",
"328 1225 OFFCURVE",
"285 1180 OFFCURVE",
"278 1096 CURVE",
"77 1114 LINE",
"98 1295 OFFCURVE",
"215 1399 OFFCURVE",
"395 1399 CURVE SMOOTH",
"486 1399 OFFCURVE",
"560 1375 OFFCURVE",
"612 1333 CURVE SMOOTH",
"663 1291 OFFCURVE",
"692 1230 OFFCURVE",
"692 1159 CURVE SMOOTH",
"692 1082 OFFCURVE",
"663 1016 OFFCURVE",
"600 973 CURVE",
"672 936 OFFCURVE",
"711 870 OFFCURVE",
"711 778 CURVE SMOOTH"
);
}
);
width = 1741;
}
);
unicode = 00BE;
},
{
glyphname = questiondown;
lastChange = "2012-07-01 20:33:18 +0000";
layers = (
{
layerId = "3DB320B4-16A0-42F5-9048-CF6BF22037FA";
name = Bold;
paths = (
{
closed = 1;
nodes = (
"90 181 OFFCURVE",
"106 245 OFFCURVE",
"142 303 CURVE SMOOTH",
"177 361 OFFCURVE",
"231 413 OFFCURVE",
"310 470 CURVE SMOOTH",
"382 522 LINE SMOOTH",
"450 570 OFFCURVE",
"486 647 OFFCURVE",
"487 744 CURVE",
"757 744 LINE",
"753 607 OFFCURVE",
"722 523 OFFCURVE",
"675 463 CURVE SMOOTH",
"652 432 OFFCURVE",
"633 414 OFFCURVE",
"621 403 CURVE",
"566 365 LINE SMOOTH",
"521 334 OFFCURVE",
"478 300 OFFCURVE",
"454 279 CURVE SMOOTH",
"433 260 OFFCURVE",
"409 229 OFFCURVE",
"409 178 CURVE SMOOTH",
"409 81 OFFCURVE",
"475 18 OFFCURVE",
"596 18 CURVE SMOOTH",
"656 18 OFFCURVE",
"700 30 OFFCURVE",
"739 67 CURVE SMOOTH",
"770 98 OFFCURVE",
"785 143 OFFCURVE",
"786 200 CURVE",
"1087 160 LINE",
"1066 -8 OFFCURVE",
"1010 -126 OFFCURVE",
"923 -202 CURVE SMOOTH",
"835 -279 OFFCURVE",
"719 -313 OFFCURVE",
"576 -313 CURVE SMOOTH",
"429 -313 OFFCURVE",
"308 -273 OFFCURVE",
"223 -201 CURVE SMOOTH",
"138 -129 OFFCURVE",
"90 -26 OFFCURVE",
"90 101 CURVE SMOOTH"
);
},
{
closed = 1;
nodes = (
"762 1083 LINE",
"762 792 LINE",
"476 792 LINE",
"476 1083 LINE"
);
}
);
width = 1158;
}
);
unicode = 00BF;
},
{
glyphname = Agrave;
lastChange = "2012-07-01 20:33:18 +0000";
layers = (
{
layerId = "3DB320B4-16A0-42F5-9048-CF6BF22037FA";
name = Bold;
paths = (
{
closed = 1;
nodes = (
"1004 0 LINE",
"937 248 LINE",
"389 248 LINE",
"331 0 LINE",
"-37 0 LINE",
"537 1409 LINE",
"793 1409 LINE",
"1359 0 LINE"
);
},
{
closed = 1;
nodes = (
"694 1033 OFFCURVE",
"679 1072 OFFCURVE",
"665 1116 CURVE",
"457 581 LINE",
"862 581 LINE",
"837 652 OFFCURVE",
"811 722 OFFCURVE",
"785 791 CURVE SMOOTH",
"759 860 OFFCURVE",
"734 930 OFFCURVE",
"709 999 CURVE"
);
},
{
closed = 1;
nodes = (
"615 1506 LINE",
"284 1785 LINE",
"284 1893 LINE",
"552 1893 LINE",
"775 1598 LINE",
"775 1506 LINE"
);
}
);
width = 1394;
}
);
unicode = 00C0;
},
{
glyphname = Aacute;
lastChange = "2012-07-01 20:33:18 +0000";
layers = (
{
layerId = "3DB320B4-16A0-42F5-9048-CF6BF22037FA";
name = Bold;
paths = (
{
closed = 1;
nodes = (
"1004 0 LINE",
"937 248 LINE",
"389 248 LINE",
"331 0 LINE",
"-37 0 LINE",
"537 1409 LINE",
"793 1409 LINE",
"1359 0 LINE"
);
},
{
closed = 1;
nodes = (
"694 1033 OFFCURVE",
"679 1072 OFFCURVE",
"665 1116 CURVE",
"457 581 LINE",
"862 581 LINE",
"837 652 OFFCURVE",
"811 722 OFFCURVE",
"785 791 CURVE SMOOTH",
"759 860 OFFCURVE",
"734 930 OFFCURVE",
"709 999 CURVE"
);
},
{
closed = 1;
nodes = (
"433 1446 LINE",
"433 1514 LINE",
"654 1807 LINE",
"902 1807 LINE",
"902 1725 LINE",
"572 1446 LINE"
);
}
);
width = 1394;
}
);
unicode = 00C1;
},
{
glyphname = Acircumflex;
lastChange = "2012-07-01 20:33:18 +0000";
layers = (
{
layerId = "3DB320B4-16A0-42F5-9048-CF6BF22037FA";
name = Bold;
paths = (
{
closed = 1;
nodes = (
"1004 0 LINE",
"937 248 LINE",
"389 248 LINE",
"331 0 LINE",
"-37 0 LINE",
"537 1409 LINE",
"793 1409 LINE",
"1359 0 LINE"
);
},
{
closed = 1;
nodes = (
"694 1033 OFFCURVE",
"679 1072 OFFCURVE",
"665 1116 CURVE",
"457 581 LINE",
"862 581 LINE",
"837 652 OFFCURVE",
"811 722 OFFCURVE",
"785 791 CURVE SMOOTH",
"759 860 OFFCURVE",
"734 930 OFFCURVE",
"709 999 CURVE"
);
},
{
closed = 1;
nodes = (
"946 1515 LINE",
"946 1446 LINE",
"798 1446 LINE",
"604 1594 LINE",
"401 1446 LINE",
"255 1446 LINE",
"255 1515 LINE",
"494 1791 LINE",
"718 1791 LINE"
);
}
);
width = 1394;
}
);
unicode = 00C2;
},
{
glyphname = Atilde;
lastChange = "2012-07-01 20:33:18 +0000";
layers = (
{
layerId = "3DB320B4-16A0-42F5-9048-CF6BF22037FA";
name = Bold;
paths = (
{
closed = 1;
nodes = (
"1004 0 LINE",
"937 248 LINE",
"389 248 LINE",
"331 0 LINE",
"-37 0 LINE",
"537 1409 LINE",
"793 1409 LINE",
"1359 0 LINE"
);
},
{
closed = 1;
nodes = (
"694 1033 OFFCURVE",
"679 1072 OFFCURVE",
"665 1116 CURVE",
"457 581 LINE",
"862 581 LINE",
"837 652 OFFCURVE",
"811 722 OFFCURVE",
"785 791 CURVE SMOOTH",
"759 860 OFFCURVE",
"734 930 OFFCURVE",
"709 999 CURVE"
);
},
{
closed = 1;
nodes = (
"780 1446 OFFCURVE",
"724 1474 OFFCURVE",
"675 1502 CURVE",
"650 1515 OFFCURVE",
"628 1528 OFFCURVE",
"607 1540 CURVE",
"586 1551 OFFCURVE",
"567 1557 OFFCURVE",
"552 1557 CURVE SMOOTH",
"508 1557 OFFCURVE",
"486 1518 OFFCURVE",
"475 1446 CURVE",
"316 1446 LINE",
"325 1539 OFFCURVE",
"338 1600 OFFCURVE",
"356 1644 CURVE SMOOTH",
"374 1687 OFFCURVE",
"396 1711 OFFCURVE",
"427 1734 CURVE SMOOTH",
"458 1758 OFFCURVE",
"498 1770 OFFCURVE",
"547 1770 CURVE SMOOTH",
"603 1770 OFFCURVE",
"660 1742 OFFCURVE",
"709 1715 CURVE SMOOTH",
"734 1701 OFFCURVE",
"757 1688 OFFCURVE",
"778 1677 CURVE",
"799 1665 OFFCURVE",
"816 1659 OFFCURVE",
"831 1659 CURVE SMOOTH",
"872 1659 OFFCURVE",
"897 1696 OFFCURVE",
"907 1770 CURVE",
"1067 1770 LINE",
"1052 1637 OFFCURVE",
"1025 1556 OFFCURVE",
"987 1508 CURVE SMOOTH",
"949 1460 OFFCURVE",
"898 1446 OFFCURVE",
"837 1446 CURVE SMOOTH"
);
}
);
width = 1394;
}
);
unicode = 00C3;
},
{
glyphname = Adieresis;
lastChange = "2012-07-01 20:33:18 +0000";
layers = (
{
layerId = "3DB320B4-16A0-42F5-9048-CF6BF22037FA";
name = Bold;
paths = (
{
closed = 1;
nodes = (
"1004 0 LINE",
"937 248 LINE",
"389 248 LINE",
"331 0 LINE",
"-37 0 LINE",
"537 1409 LINE",
"793 1409 LINE",
"1359 0 LINE"
);
},
{
closed = 1;
nodes = (
"694 1033 OFFCURVE",
"679 1072 OFFCURVE",
"665 1116 CURVE",
"457 581 LINE",
"862 581 LINE",
"837 652 OFFCURVE",
"811 722 OFFCURVE",
"785 791 CURVE SMOOTH",
"759 860 OFFCURVE",
"734 930 OFFCURVE",
"709 999 CURVE"
);
},
{
closed = 1;
nodes = (
"722 1520 LINE",
"722 1766 LINE",
"949 1766 LINE",
"949 1520 LINE"
);
},
{
closed = 1;
nodes = (
"355 1520 LINE",
"355 1766 LINE",
"584 1766 LINE",
"584 1520 LINE"
);
}
);
width = 1394;
}
);
unicode = 00C4;
},
{
glyphname = Aring;
lastChange = "2012-07-01 20:33:18 +0000";
layers = (
{
layerId = "3DB320B4-16A0-42F5-9048-CF6BF22037FA";
name = Bold;
paths = (
{
closed = 1;
nodes = (
"1086 0 LINE",
"1019 248 LINE",
"471 248 LINE",
"413 0 LINE",
"45 0 LINE",
"619 1409 LINE",
"875 1409 LINE",
"1441 0 LINE"
);
},
{
closed = 1;
nodes = (
"776 1033 OFFCURVE",
"761 1072 OFFCURVE",
"747 1116 CURVE",
"539 581 LINE",
"944 581 LINE",
"919 652 OFFCURVE",
"893 722 OFFCURVE",
"867 791 CURVE SMOOTH",
"841 860 OFFCURVE",
"816 930 OFFCURVE",
"791 999 CURVE"
);
},
{
closed = 1;
nodes = (
"1005 1650 OFFCURVE",
"975 1584 OFFCURVE",
"927 1537 CURVE SMOOTH",
"879 1489 OFFCURVE",
"814 1459 OFFCURVE",
"743 1459 CURVE SMOOTH",
"672 1459 OFFCURVE",
"606 1488 OFFCURVE",
"558 1536 CURVE SMOOTH",
"510 1584 OFFCURVE",
"480 1650 OFFCURVE",
"480 1722 CURVE SMOOTH",
"480 1794 OFFCURVE",
"510 1860 OFFCURVE",
"558 1908 CURVE SMOOTH",
"606 1955 OFFCURVE",
"672 1984 OFFCURVE",
"743 1984 CURVE SMOOTH",
"814 1984 OFFCURVE",
"879 1954 OFFCURVE",
"927 1907 CURVE SMOOTH",
"975 1859 OFFCURVE",
"1005 1794 OFFCURVE",
"1005 1722 CURVE SMOOTH"
);
},
{
closed = 1;
nodes = (
"830 1747 OFFCURVE",
"820 1769 OFFCURVE",
"804 1785 CURVE SMOOTH",
"788 1801 OFFCURVE",
"767 1810 OFFCURVE",
"743 1810 CURVE SMOOTH",
"694 1810 OFFCURVE",
"654 1773 OFFCURVE",
"654 1722 CURVE SMOOTH",
"654 1671 OFFCURVE",
"691 1632 OFFCURVE",
"743 1632 CURVE SMOOTH",
"798 1632 OFFCURVE",
"830 1674 OFFCURVE",
"830 1722 CURVE SMOOTH"
);
}
);
width = 1558;
}
);
unicode = 00C5;
},
{
glyphname = AE;
lastChange = "2012-07-01 20:33:18 +0000";
layers = (
{
anchors = (
{
name = top;
position = "{1152, 1409}";
}
);
layerId = "3DB320B4-16A0-42F5-9048-CF6BF22037FA";
name = Bold;
paths = (
{
closed = 1;
nodes = (
"1019 0 LINE",
"1019 390 LINE",
"562 390 LINE",
"531 327 OFFCURVE",
"500 262 OFFCURVE",
"468 195 CURVE SMOOTH",
"435 127 OFFCURVE",
"404 62 OFFCURVE",
"374 0 CURVE",
"102 0 LINE",
"788 1409 LINE",
"1993 1409 LINE",
"1993 1186 LINE",
"1275 1186 LINE",
"1275 834 LINE",
"1937 834 LINE",
"1937 612 LINE",
"1275 612 LINE",
"1275 291 LINE",
"2031 291 LINE",
"2031 0 LINE"
);
},
{
closed = 1;
nodes = (
"1019 1194 LINE",
"938 1194 LINE",
"663 607 LINE",
"1019 607 LINE"
);
}
);
width = 2303;
}
);
unicode = 00C6;
},
{
glyphname = Ccedilla;
lastChange = "2012-07-01 20:33:18 +0000";
layers = (
{
layerId = "3DB320B4-16A0-42F5-9048-CF6BF22037FA";
name = Bold;
paths = (
{
closed = 1;
nodes = (
"1095 -335 OFFCURVE",
"997 -404 OFFCURVE",
"802 -404 CURVE SMOOTH",
"765 -404 OFFCURVE",
"728 -403 OFFCURVE",
"681 -396 CURVE",
"681 -230 LINE",
"738 -237 OFFCURVE",
"776 -240 OFFCURVE",
"799 -240 CURVE SMOOTH",
"865 -240 OFFCURVE",
"898 -227 OFFCURVE",
"898 -202 CURVE SMOOTH",
"898 -179 OFFCURVE",
"869 -168 OFFCURVE",
"812 -168 CURVE SMOOTH",
"788 -168 OFFCURVE",
"741 -172 OFFCURVE",
"704 -176 CURVE",
"759 -18 LINE",
"552 -14 OFFCURVE",
"389 60 OFFCURVE",
"275 186 CURVE SMOOTH",
"161 312 OFFCURVE",
"99 492 OFFCURVE",
"99 711 CURVE SMOOTH",
"99 930 OFFCURVE",
"164 1109 OFFCURVE",
"282 1233 CURVE SMOOTH",
"400 1357 OFFCURVE",
"571 1428 OFFCURVE",
"784 1429 CURVE SMOOTH",
"791 1429 OFFCURVE",
"800 1429 OFFCURVE",
"809 1430 CURVE",
"818 1430 OFFCURVE",
"827 1430 OFFCURVE",
"834 1430 CURVE SMOOTH",
"922 1430 OFFCURVE",
"994 1421 OFFCURVE",
"1061 1401 CURVE SMOOTH",
"1128 1380 OFFCURVE",
"1189 1346 OFFCURVE",
"1256 1295 CURVE",
"1256 1049 LINE",
"1116 1118 OFFCURVE",
"1017 1160 OFFCURVE",
"960 1179 CURVE SMOOTH",
"903 1196 OFFCURVE",
"847 1206 OFFCURVE",
"788 1206 CURVE SMOOTH",
"649 1206 OFFCURVE",
"549 1159 OFFCURVE",
"482 1074 CURVE SMOOTH",
"414 989 OFFCURVE",
"380 864 OFFCURVE",
"379 711 CURVE",
"391 640 OFFCURVE",
"405 594 OFFCURVE",
"425 562 CURVE",
"444 529 OFFCURVE",
"469 507 OFFCURVE",
"502 484 CURVE SMOOTH",
"570 436 OFFCURVE",
"677 411 OFFCURVE",
"806 400 CURVE",
"883 400 OFFCURVE",
"959 400 OFFCURVE",
"1034 424 CURVE SMOOTH",
"1109 448 OFFCURVE",
"1182 496 OFFCURVE",
"1254 595 CURVE",
"1254 128 LINE",
"1170 67 OFFCURVE",
"1107 28 OFFCURVE",
"1048 9 CURVE SMOOTH",
"1019 0 OFFCURVE",
"983 -7 OFFCURVE",
"941 -12 CURVE",
"936 -24 LINE",
"1041 -43 OFFCURVE",
"1095 -105 OFFCURVE",
"1095 -198 CURVE SMOOTH"
);
}
);
width = 1457;
}
);
unicode = 00C7;
},
{
glyphname = Egrave;
lastChange = "2012-07-01 20:33:18 +0000";
layers = (
{
layerId = "3DB320B4-16A0-42F5-9048-CF6BF22037FA";
name = Bold;
paths = (
{
closed = 1;
nodes = (
"97 0 LINE",
"97 1409 LINE",
"1043 1409 LINE",
"1043 1187 LINE",
"354 1187 LINE",
"354 834 LINE",
"967 834 LINE",
"967 613 LINE",
"354 613 LINE",
"354 432 LINE",
"1083 432 LINE",
"1083 0 LINE"
);
},
{
closed = 1;
nodes = (
"544 1476 LINE",
"213 1755 LINE",
"213 1863 LINE",
"481 1863 LINE",
"704 1568 LINE",
"704 1476 LINE"
);
}
);
width = 1138;
}
);
unicode = 00C8;
},
{
glyphname = Eacute;
lastChange = "2012-07-01 20:33:18 +0000";
layers = (
{
layerId = "3DB320B4-16A0-42F5-9048-CF6BF22037FA";
name = Bold;
paths = (
{
closed = 1;
nodes = (
"96 0 LINE",
"96 1409 LINE",
"1042 1409 LINE",
"1042 1187 LINE",
"353 1187 LINE",
"353 834 LINE",
"966 834 LINE",
"966 613 LINE",
"353 613 LINE",
"353 432 LINE",
"1082 432 LINE",
"1082 0 LINE"
);
},
{
closed = 1;
nodes = (
"250 1446 LINE",
"250 1514 LINE",
"471 1807 LINE",
"719 1807 LINE",
"719 1725 LINE",
"389 1446 LINE"
);
}
);
width = 1138;
}
);
unicode = 00C9;
},
{
glyphname = Ecircumflex;
lastChange = "2012-07-01 20:33:18 +0000";
layers = (
{
layerId = "3DB320B4-16A0-42F5-9048-CF6BF22037FA";
name = Bold;
paths = (
{
closed = 1;
nodes = (
"96 0 LINE",
"96 1409 LINE",
"1042 1409 LINE",
"1042 1187 LINE",
"353 1187 LINE",
"353 834 LINE",
"966 834 LINE",
"966 613 LINE",
"353 613 LINE",
"353 432 LINE",
"1082 432 LINE",
"1082 0 LINE"
);
},
{
closed = 1;
nodes = (
"864 1557 LINE",
"864 1488 LINE",
"716 1488 LINE",
"522 1636 LINE",
"319 1488 LINE",
"173 1488 LINE",
"173 1557 LINE",
"412 1833 LINE",
"636 1833 LINE"
);
}
);
width = 1138;
}
);
unicode = 00CA;
},
{
glyphname = Edieresis;
lastChange = "2012-07-01 20:33:18 +0000";
layers = (
{
layerId = "3DB320B4-16A0-42F5-9048-CF6BF22037FA";
name = Bold;
paths = (
{
closed = 1;
nodes = (
"96 0 LINE",
"96 1409 LINE",
"1042 1409 LINE",
"1042 1187 LINE",
"353 1187 LINE",
"353 834 LINE",
"966 834 LINE",
"966 613 LINE",
"353 613 LINE",
"353 432 LINE",
"1082 432 LINE",
"1082 0 LINE"
);
},
{
closed = 1;
nodes = (
"651 1463 LINE",
"651 1709 LINE",
"878 1709 LINE",
"878 1463 LINE"
);
},
{
closed = 1;
nodes = (
"284 1463 LINE",
"284 1709 LINE",
"513 1709 LINE",
"513 1463 LINE"
);
}
);
width = 1138;
}
);
unicode = 00CB;
},
{
glyphname = Igrave;
lastChange = "2012-07-01 20:33:18 +0000";
layers = (
{
layerId = "3DB320B4-16A0-42F5-9048-CF6BF22037FA";
name = Bold;
paths = (
{
closed = 1;
nodes = (
"82 0 LINE",
"132 1409 LINE",
"457 1409 LINE",
"507 0 LINE"
);
},
{
closed = 1;
nodes = (
"245 1486 LINE",
"-86 1765 LINE",
"-86 1873 LINE",
"182 1873 LINE",
"405 1578 LINE",
"405 1486 LINE"
);
}
);
width = 552;
}
);
unicode = 00CC;
},
{
glyphname = Iacute;
lastChange = "2012-07-01 20:33:18 +0000";
layers = (
{
layerId = "3DB320B4-16A0-42F5-9048-CF6BF22037FA";
name = Bold;
paths = (
{
closed = 1;
nodes = (
"88 0 LINE",
"138 1409 LINE",
"463 1409 LINE",
"513 0 LINE"
);
},
{
closed = 1;
nodes = (
"148 1516 LINE",
"148 1584 LINE",
"369 1877 LINE",
"617 1877 LINE",
"617 1795 LINE",
"287 1516 LINE"
);
}
);
width = 552;
}
);
unicode = 00CD;
},
{
glyphname = Icircumflex;
lastChange = "2012-07-01 20:33:18 +0000";
layers = (
{
layerId = "3DB320B4-16A0-42F5-9048-CF6BF22037FA";
name = Bold;
paths = (
{
closed = 1;
nodes = (
"89 0 LINE",
"139 1409 LINE",
"464 1409 LINE",
"514 0 LINE"
);
},
{
closed = 1;
nodes = (
"632 1575 LINE",
"632 1506 LINE",
"484 1506 LINE",
"290 1654 LINE",
"87 1506 LINE",
"-59 1506 LINE",
"-59 1575 LINE",
"180 1851 LINE",
"404 1851 LINE"
);
}
);
width = 629;
}
);
unicode = 00CE;
},
{
glyphname = Idieresis;
lastChange = "2012-07-01 20:33:18 +0000";
layers = (
{
layerId = "3DB320B4-16A0-42F5-9048-CF6BF22037FA";
name = Bold;
paths = (
{
closed = 1;
nodes = (
"-17 0 LINE",
"33 1409 LINE",
"358 1409 LINE",
"408 0 LINE"
);
},
{
closed = 1;
nodes = (
"273 1535 LINE",
"273 1781 LINE",
"500 1781 LINE",
"500 1535 LINE"
);
},
{
closed = 1;
nodes = (
"-94 1535 LINE",
"-94 1781 LINE",
"135 1781 LINE",
"135 1535 LINE"
);
}
);
width = 552;
}
);
unicode = 00CF;
},
{
glyphname = Eth;
lastChange = "2012-07-01 20:33:18 +0000";
layers = (
{
layerId = "3DB320B4-16A0-42F5-9048-CF6BF22037FA";
name = Bold;
paths = (
{
closed = 1;
nodes = (
"1365 498 OFFCURVE",
"1296 318 OFFCURVE",
"1176 194 CURVE SMOOTH",
"1056 69 OFFCURVE",
"884 0 OFFCURVE",
"677 0 CURVE SMOOTH",
"142 0 LINE",
"142 1409 LINE",
"621 1409 LINE SMOOTH",
"856 1409 OFFCURVE",
"1039 1349 OFFCURVE",
"1169 1229 CURVE SMOOTH",
"1300 1108 OFFCURVE",
"1365 942 OFFCURVE",
"1365 718 CURVE SMOOTH"
);
},
{
closed = 1;
nodes = (
"397 1189 LINE",
"397 876 LINE",
"1103 876 LINE",
"1072 1081 OFFCURVE",
"905 1189 OFFCURVE",
"616 1189 CURVE SMOOTH"
);
},
{
closed = 1;
nodes = (
"657 402 LINE SMOOTH",
"870 402 OFFCURVE",
"1021 493 OFFCURVE",
"1081 650 CURVE",
"397 650 LINE",
"397 402 LINE"
);
}
);
width = 1413;
}
);
unicode = 00D0;
},
{
glyphname = Ntilde;
lastChange = "2012-07-01 20:33:18 +0000";
layers = (
{
layerId = "3DB320B4-16A0-42F5-9048-CF6BF22037FA";
name = Bold;
paths = (
{
closed = 1;
nodes = (
"780 1486 OFFCURVE",
"724 1514 OFFCURVE",
"675 1542 CURVE",
"650 1555 OFFCURVE",
"628 1568 OFFCURVE",
"607 1580 CURVE",
"586 1591 OFFCURVE",
"567 1597 OFFCURVE",
"552 1597 CURVE SMOOTH",
"508 1597 OFFCURVE",
"486 1558 OFFCURVE",
"475 1486 CURVE",
"316 1486 LINE",
"325 1579 OFFCURVE",
"338 1640 OFFCURVE",
"356 1684 CURVE SMOOTH",
"374 1727 OFFCURVE",
"396 1751 OFFCURVE",
"427 1774 CURVE SMOOTH",
"458 1798 OFFCURVE",
"498 1810 OFFCURVE",
"547 1810 CURVE SMOOTH",
"603 1810 OFFCURVE",
"660 1782 OFFCURVE",
"709 1755 CURVE SMOOTH",
"734 1741 OFFCURVE",
"757 1728 OFFCURVE",
"778 1717 CURVE",
"799 1705 OFFCURVE",
"816 1699 OFFCURVE",
"831 1699 CURVE SMOOTH",
"872 1699 OFFCURVE",
"897 1736 OFFCURVE",
"907 1810 CURVE",
"1067 1810 LINE",
"1052 1677 OFFCURVE",
"1025 1596 OFFCURVE",
"987 1548 CURVE SMOOTH",
"949 1500 OFFCURVE",
"898 1486 OFFCURVE",
"837 1486 CURVE SMOOTH"
);
},
{
closed = 1;
nodes = (
"916 0 LINE",
"382 998 LINE",
"391 829 OFFCURVE",
"403 662 OFFCURVE",
"418 497 CURVE SMOOTH",
"433 332 OFFCURVE",
"445 166 OFFCURVE",
"454 0 CURVE",
"80 0 LINE",
"80 1409 LINE",
"438 1409 LINE",
"1059 519 LINE",
"1059 1409 LINE",
"1345 1409 LINE",
"1345 0 LINE"
);
}
);
width = 1384;
}
);
unicode = 00D1;
},
{
glyphname = Ograve;
lastChange = "2012-07-01 20:33:18 +0000";
layers = (
{
layerId = "3DB320B4-16A0-42F5-9048-CF6BF22037FA";
name = Bold;
paths = (
{
closed = 1;
nodes = (
"1468 484 OFFCURVE",
"1400 302 OFFCURVE",
"1277 176 CURVE SMOOTH",
"1153 50 OFFCURVE",
"976 -19 OFFCURVE",
"756 -19 CURVE SMOOTH",
"541 -19 OFFCURVE",
"370 53 OFFCURVE",
"252 181 CURVE SMOOTH",
"134 309 OFFCURVE",
"70 491 OFFCURVE",
"70 711 CURVE SMOOTH",
"70 938 OFFCURVE",
"138 1117 OFFCURVE",
"260 1240 CURVE SMOOTH",
"382 1363 OFFCURVE",
"560 1429 OFFCURVE",
"781 1429 CURVE SMOOTH",
"994 1429 OFFCURVE",
"1165 1359 OFFCURVE",
"1284 1235 CURVE SMOOTH",
"1403 1110 OFFCURVE",
"1468 931 OFFCURVE",
"1468 711 CURVE SMOOTH"
);
},
{
closed = 1;
nodes = (
"1208 900 OFFCURVE",
"1169 1011 OFFCURVE",
"1094 1088 CURVE SMOOTH",
"1019 1164 OFFCURVE",
"910 1206 OFFCURVE",
"770 1206 CURVE SMOOTH",
"630 1206 OFFCURVE",
"519 1167 OFFCURVE",
"444 1092 CURVE SMOOTH",
"369 1016 OFFCURVE",
"329 906 OFFCURVE",
"329 763 CURVE SMOOTH",
"329 624 OFFCURVE",
"364 528 OFFCURVE",
"439 476 CURVE SMOOTH",
"517 421 OFFCURVE",
"627 394 OFFCURVE",
"768 394 CURVE SMOOTH",
"1060 394 OFFCURVE",
"1208 476 OFFCURVE",
"1208 763 CURVE SMOOTH"
);
},
{
closed = 1;
nodes = (
"653 1477 LINE",
"322 1756 LINE",
"322 1864 LINE",
"590 1864 LINE",
"813 1569 LINE",
"813 1477 LINE"
);
}
);
width = 1598;
}
);
unicode = 00D2;
},
{
glyphname = Oacute;
lastChange = "2012-07-01 20:33:18 +0000";
layers = (
{
layerId = "3DB320B4-16A0-42F5-9048-CF6BF22037FA";
name = Bold;
paths = (
{
closed = 1;
nodes = (
"1467 484 OFFCURVE",
"1399 302 OFFCURVE",
"1276 176 CURVE SMOOTH",
"1152 50 OFFCURVE",
"975 -19 OFFCURVE",
"755 -19 CURVE SMOOTH",
"540 -19 OFFCURVE",
"369 53 OFFCURVE",
"251 181 CURVE SMOOTH",
"133 309 OFFCURVE",
"69 491 OFFCURVE",
"69 711 CURVE SMOOTH",
"69 938 OFFCURVE",
"137 1117 OFFCURVE",
"259 1240 CURVE SMOOTH",
"381 1363 OFFCURVE",
"559 1429 OFFCURVE",
"780 1429 CURVE SMOOTH",
"993 1429 OFFCURVE",
"1164 1359 OFFCURVE",
"1283 1235 CURVE SMOOTH",
"1402 1110 OFFCURVE",
"1467 931 OFFCURVE",
"1467 711 CURVE SMOOTH"
);
},
{
closed = 1;
nodes = (
"1207 900 OFFCURVE",
"1168 1011 OFFCURVE",
"1093 1088 CURVE SMOOTH",
"1018 1164 OFFCURVE",
"909 1206 OFFCURVE",
"769 1206 CURVE SMOOTH",
"629 1206 OFFCURVE",
"518 1167 OFFCURVE",
"443 1092 CURVE SMOOTH",
"368 1016 OFFCURVE",
"328 906 OFFCURVE",
"328 763 CURVE SMOOTH",
"328 624 OFFCURVE",
"363 528 OFFCURVE",
"438 476 CURVE SMOOTH",
"516 421 OFFCURVE",
"626 394 OFFCURVE",
"767 394 CURVE SMOOTH",
"1059 394 OFFCURVE",
"1207 476 OFFCURVE",
"1207 763 CURVE SMOOTH"
);
},
{
closed = 1;
nodes = (
"561 1446 LINE",
"561 1514 LINE",
"782 1807 LINE",
"1030 1807 LINE",
"1030 1725 LINE",
"700 1446 LINE"
);
}
);
width = 1598;
}
);
unicode = 00D3;
},
{
glyphname = Ocircumflex;
lastChange = "2012-07-01 20:33:18 +0000";
layers = (
{
layerId = "3DB320B4-16A0-42F5-9048-CF6BF22037FA";
name = Bold;
paths = (
{
closed = 1;
nodes = (
"1467 484 OFFCURVE",
"1399 302 OFFCURVE",
"1276 176 CURVE SMOOTH",
"1152 50 OFFCURVE",
"975 -19 OFFCURVE",
"755 -19 CURVE SMOOTH",
"540 -19 OFFCURVE",
"369 53 OFFCURVE",
"251 181 CURVE SMOOTH",
"133 309 OFFCURVE",
"69 491 OFFCURVE",
"69 711 CURVE SMOOTH",
"69 938 OFFCURVE",
"137 1117 OFFCURVE",
"259 1240 CURVE SMOOTH",
"381 1363 OFFCURVE",
"559 1429 OFFCURVE",
"780 1429 CURVE SMOOTH",
"993 1429 OFFCURVE",
"1164 1359 OFFCURVE",
"1283 1235 CURVE SMOOTH",
"1402 1110 OFFCURVE",
"1467 931 OFFCURVE",
"1467 711 CURVE SMOOTH"
);
},
{
closed = 1;
nodes = (
"1207 900 OFFCURVE",
"1168 1011 OFFCURVE",
"1093 1088 CURVE SMOOTH",
"1018 1164 OFFCURVE",
"909 1206 OFFCURVE",
"769 1206 CURVE SMOOTH",
"629 1206 OFFCURVE",
"518 1167 OFFCURVE",
"443 1092 CURVE SMOOTH",
"368 1016 OFFCURVE",
"328 906 OFFCURVE",
"328 763 CURVE SMOOTH",
"328 624 OFFCURVE",
"363 528 OFFCURVE",
"438 476 CURVE SMOOTH",
"516 421 OFFCURVE",
"626 394 OFFCURVE",
"767 394 CURVE SMOOTH",
"1059 394 OFFCURVE",
"1207 476 OFFCURVE",
"1207 763 CURVE SMOOTH"
);
},
{
closed = 1;
nodes = (
"1074 1515 LINE",
"1074 1446 LINE",
"926 1446 LINE",
"732 1594 LINE",
"529 1446 LINE",
"383 1446 LINE",
"383 1515 LINE",
"622 1791 LINE",
"846 1791 LINE"
);
}
);
width = 1598;
}
);
unicode = 00D4;
},
{
glyphname = Otilde;
lastChange = "2012-07-01 20:33:18 +0000";
layers = (
{
layerId = "3DB320B4-16A0-42F5-9048-CF6BF22037FA";
name = Bold;
paths = (
{
closed = 1;
nodes = (
"1467 484 OFFCURVE",
"1399 302 OFFCURVE",
"1276 176 CURVE SMOOTH",
"1152 50 OFFCURVE",
"975 -19 OFFCURVE",
"755 -19 CURVE SMOOTH",
"540 -19 OFFCURVE",
"369 53 OFFCURVE",
"251 181 CURVE SMOOTH",
"133 309 OFFCURVE",
"69 491 OFFCURVE",
"69 711 CURVE SMOOTH",
"69 938 OFFCURVE",
"137 1117 OFFCURVE",
"259 1240 CURVE SMOOTH",
"381 1363 OFFCURVE",
"559 1429 OFFCURVE",
"780 1429 CURVE SMOOTH",
"993 1429 OFFCURVE",
"1164 1359 OFFCURVE",
"1283 1235 CURVE SMOOTH",
"1402 1110 OFFCURVE",
"1467 931 OFFCURVE",
"1467 711 CURVE SMOOTH"
);
},
{
closed = 1;
nodes = (
"1207 900 OFFCURVE",
"1168 1011 OFFCURVE",
"1093 1088 CURVE SMOOTH",
"1018 1164 OFFCURVE",
"909 1206 OFFCURVE",
"769 1206 CURVE SMOOTH",
"629 1206 OFFCURVE",
"518 1167 OFFCURVE",
"443 1092 CURVE SMOOTH",
"368 1016 OFFCURVE",
"328 906 OFFCURVE",
"328 763 CURVE SMOOTH",
"328 624 OFFCURVE",
"363 528 OFFCURVE",
"438 476 CURVE SMOOTH",
"516 421 OFFCURVE",
"626 394 OFFCURVE",
"767 394 CURVE SMOOTH",
"1059 394 OFFCURVE",
"1207 476 OFFCURVE",
"1207 763 CURVE SMOOTH"
);
},
{
closed = 1;
nodes = (
"908 1446 OFFCURVE",
"852 1474 OFFCURVE",
"803 1502 CURVE",
"778 1515 OFFCURVE",
"756 1528 OFFCURVE",
"735 1540 CURVE",
"714 1551 OFFCURVE",
"695 1557 OFFCURVE",
"680 1557 CURVE SMOOTH",
"636 1557 OFFCURVE",
"614 1518 OFFCURVE",
"603 1446 CURVE",
"444 1446 LINE",
"453 1539 OFFCURVE",
"466 1600 OFFCURVE",
"484 1644 CURVE SMOOTH",
"502 1687 OFFCURVE",
"524 1711 OFFCURVE",
"555 1734 CURVE SMOOTH",
"586 1758 OFFCURVE",
"626 1770 OFFCURVE",
"675 1770 CURVE SMOOTH",
"731 1770 OFFCURVE",
"788 1742 OFFCURVE",
"837 1715 CURVE SMOOTH",
"862 1701 OFFCURVE",
"885 1688 OFFCURVE",
"906 1677 CURVE",
"927 1665 OFFCURVE",
"944 1659 OFFCURVE",
"959 1659 CURVE SMOOTH",
"1000 1659 OFFCURVE",
"1025 1696 OFFCURVE",
"1035 1770 CURVE",
"1195 1770 LINE",
"1180 1637 OFFCURVE",
"1153 1556 OFFCURVE",
"1115 1508 CURVE SMOOTH",
"1077 1460 OFFCURVE",
"1026 1446 OFFCURVE",
"965 1446 CURVE SMOOTH"
);
}
);
width = 1598;
}
);
unicode = 00D5;
},
{
glyphname = Odieresis;
lastChange = "2012-07-01 20:33:18 +0000";
layers = (
{
layerId = "3DB320B4-16A0-42F5-9048-CF6BF22037FA";
name = Bold;
paths = (
{
closed = 1;
nodes = (
"1467 484 OFFCURVE",
"1399 302 OFFCURVE",
"1276 176 CURVE SMOOTH",
"1152 50 OFFCURVE",
"975 -19 OFFCURVE",
"755 -19 CURVE SMOOTH",
"540 -19 OFFCURVE",
"369 53 OFFCURVE",
"251 181 CURVE SMOOTH",
"133 309 OFFCURVE",
"69 491 OFFCURVE",
"69 711 CURVE SMOOTH",
"69 938 OFFCURVE",
"137 1117 OFFCURVE",
"259 1240 CURVE SMOOTH",
"381 1363 OFFCURVE",
"559 1429 OFFCURVE",
"780 1429 CURVE SMOOTH",
"993 1429 OFFCURVE",
"1164 1359 OFFCURVE",
"1283 1235 CURVE SMOOTH",
"1402 1110 OFFCURVE",
"1467 931 OFFCURVE",
"1467 711 CURVE SMOOTH"
);
},
{
closed = 1;
nodes = (
"1207 900 OFFCURVE",
"1168 1011 OFFCURVE",
"1093 1088 CURVE SMOOTH",
"1018 1164 OFFCURVE",
"909 1206 OFFCURVE",
"769 1206 CURVE SMOOTH",
"629 1206 OFFCURVE",
"518 1167 OFFCURVE",
"443 1092 CURVE SMOOTH",
"368 1016 OFFCURVE",
"328 906 OFFCURVE",
"328 763 CURVE SMOOTH",
"328 624 OFFCURVE",
"363 528 OFFCURVE",
"438 476 CURVE SMOOTH",
"516 421 OFFCURVE",
"626 394 OFFCURVE",
"767 394 CURVE SMOOTH",
"1059 394 OFFCURVE",
"1207 476 OFFCURVE",
"1207 763 CURVE SMOOTH"
);
},
{
closed = 1;
nodes = (
"817 1465 LINE",
"817 1711 LINE",
"1044 1711 LINE",
"1044 1465 LINE"
);
},
{
closed = 1;
nodes = (
"450 1465 LINE",
"450 1711 LINE",
"679 1711 LINE",
"679 1465 LINE"
);
}
);
width = 1598;
}
);
unicode = 00D6;
},
{
glyphname = multiply;
lastChange = "2012-07-01 20:33:18 +0000";
layers = (
{
layerId = "3DB320B4-16A0-42F5-9048-CF6BF22037FA";
name = Bold;
paths = (
{
closed = 1;
nodes = (
"211 345 LINE",
"541 675 LINE",
"213 1003 LINE",
"362 1151 LINE",
"688 823 LINE",
"714 849 OFFCURVE",
"741 876 OFFCURVE",
"769 904 CURVE SMOOTH",
"797 931 OFFCURVE",
"825 959 OFFCURVE",
"853 987 CURVE SMOOTH",
"909 1043 OFFCURVE",
"964 1098 OFFCURVE",
"1015 1149 CURVE",
"1165 999 LINE",
"838 675 LINE",
"1166 347 LINE",
"1020 196 LINE",
"690 526 LINE",
"358 194 LINE"
);
}
);
width = 1372;
}
);
unicode = 00D7;
},
{
glyphname = Oslash;
lastChange = "2012-07-01 20:33:18 +0000";
layers = (
{
anchors = (
{
name = top;
position = "{799, 1409}";
}
);
layerId = "3DB320B4-16A0-42F5-9048-CF6BF22037FA";
name = Bold;
paths = (
{
closed = 1;
nodes = (
"401 -30 LINE",
"423 52 LINE",
"195 165 OFFCURVE",
"69 398 OFFCURVE",
"69 711 CURVE SMOOTH",
"69 938 OFFCURVE",
"137 1117 OFFCURVE",
"259 1240 CURVE SMOOTH",
"381 1363 OFFCURVE",
"559 1429 OFFCURVE",
"780 1429 CURVE SMOOTH",
"783 1429 OFFCURVE",
"787 1429 OFFCURVE",
"790 1429 CURVE",
"793 1428 OFFCURVE",
"797 1428 OFFCURVE",
"800 1428 CURVE",
"815 1483 LINE",
"1088 1483 LINE",
"1060 1381 LINE",
"1188 1332 OFFCURVE",
"1291 1248 OFFCURVE",
"1360 1134 CURVE SMOOTH",
"1429 1020 OFFCURVE",
"1467 876 OFFCURVE",
"1467 711 CURVE SMOOTH",
"1467 484 OFFCURVE",
"1399 302 OFFCURVE",
"1276 176 CURVE SMOOTH",
"1152 50 OFFCURVE",
"975 -19 OFFCURVE",
"755 -19 CURVE SMOOTH",
"730 -19 OFFCURVE",
"706 -18 OFFCURVE",
"682 -16 CURVE",
"678 -30 LINE"
);
},
{
closed = 1;
nodes = (
"1207 951 OFFCURVE",
"1135 1087 OFFCURVE",
"999 1156 CURVE",
"793 394 LINE",
"1058 399 OFFCURVE",
"1207 476 OFFCURVE",
"1207 763 CURVE SMOOTH"
);
},
{
closed = 1;
nodes = (
"328 624 OFFCURVE",
"363 528 OFFCURVE",
"438 476 CURVE SMOOTH",
"465 457 OFFCURVE",
"492 442 OFFCURVE",
"527 430 CURVE",
"739 1205 LINE",
"607 1200 OFFCURVE",
"505 1158 OFFCURVE",
"435 1083 CURVE SMOOTH",
"365 1008 OFFCURVE",
"328 900 OFFCURVE",
"328 763 CURVE SMOOTH"
);
}
);
width = 1598;
}
);
unicode = 00D8;
},
{
glyphname = Ugrave;
lastChange = "2012-07-01 20:33:18 +0000";
layers = (
{
layerId = "3DB320B4-16A0-42F5-9048-CF6BF22037FA";
name = Bold;
paths = (
{
closed = 1;
nodes = (
"478 -19 OFFCURVE",
"333 32 OFFCURVE",
"232 125 CURVE SMOOTH",
"131 217 OFFCURVE",
"73 353 OFFCURVE",
"73 522 CURVE",
"123 1409 LINE",
"370 1409 LINE",
"320 710 LINE",
"335 501 OFFCURVE",
"446 383 OFFCURVE",
"651 383 CURVE SMOOTH",
"759 383 OFFCURVE",
"844 409 OFFCURVE",
"903 463 CURVE SMOOTH",
"962 517 OFFCURVE",
"993 598 OFFCURVE",
"993 711 CURVE SMOOTH",
"993 1409 LINE",
"1258 1409 LINE",
"1258 538 LINE SMOOTH",
"1258 363 OFFCURVE",
"1197 225 OFFCURVE",
"1092 129 CURVE SMOOTH",
"987 33 OFFCURVE",
"834 -19 OFFCURVE",
"653 -19 CURVE SMOOTH"
);
},
{
closed = 1;
nodes = (
"676 1406 LINE",
"345 1685 LINE",
"345 1793 LINE",
"613 1793 LINE",
"836 1498 LINE",
"836 1406 LINE"
);
}
);
width = 1383;
}
);
unicode = 00D9;
},
{
glyphname = Uacute;
lastChange = "2012-07-01 20:33:18 +0000";
layers = (
{
layerId = "3DB320B4-16A0-42F5-9048-CF6BF22037FA";
name = Bold;
paths = (
{
closed = 1;
nodes = (
"478 -19 OFFCURVE",
"333 32 OFFCURVE",
"232 125 CURVE SMOOTH",
"131 217 OFFCURVE",
"73 353 OFFCURVE",
"73 522 CURVE",
"123 1409 LINE",
"370 1409 LINE",
"320 710 LINE",
"335 501 OFFCURVE",
"446 383 OFFCURVE",
"651 383 CURVE SMOOTH",
"759 383 OFFCURVE",
"844 409 OFFCURVE",
"903 463 CURVE SMOOTH",
"962 517 OFFCURVE",
"993 598 OFFCURVE",
"993 711 CURVE SMOOTH",
"993 1409 LINE",
"1258 1409 LINE",
"1258 538 LINE SMOOTH",
"1258 363 OFFCURVE",
"1197 225 OFFCURVE",
"1092 129 CURVE SMOOTH",
"987 33 OFFCURVE",
"834 -19 OFFCURVE",
"653 -19 CURVE SMOOTH"
);
},
{
closed = 1;
nodes = (
"443 1446 LINE",
"443 1514 LINE",
"664 1807 LINE",
"912 1807 LINE",
"912 1725 LINE",
"582 1446 LINE"
);
}
);
width = 1383;
}
);
unicode = 00DA;
},
{
glyphname = Ucircumflex;
lastChange = "2012-07-01 20:33:18 +0000";
layers = (
{
layerId = "3DB320B4-16A0-42F5-9048-CF6BF22037FA";
name = Bold;
paths = (
{
closed = 1;
nodes = (
"478 -19 OFFCURVE",
"333 32 OFFCURVE",
"232 125 CURVE SMOOTH",
"131 217 OFFCURVE",
"73 353 OFFCURVE",
"73 522 CURVE",
"123 1409 LINE",
"370 1409 LINE",
"320 710 LINE",
"335 501 OFFCURVE",
"446 383 OFFCURVE",
"651 383 CURVE SMOOTH",
"759 383 OFFCURVE",
"844 409 OFFCURVE",
"903 463 CURVE SMOOTH",
"962 517 OFFCURVE",
"993 598 OFFCURVE",
"993 711 CURVE SMOOTH",
"993 1409 LINE",
"1258 1409 LINE",
"1258 538 LINE SMOOTH",
"1258 363 OFFCURVE",
"1197 225 OFFCURVE",
"1092 129 CURVE SMOOTH",
"987 33 OFFCURVE",
"834 -19 OFFCURVE",
"653 -19 CURVE SMOOTH"
);
},
{
closed = 1;
nodes = (
"1008 1515 LINE",
"1008 1446 LINE",
"860 1446 LINE",
"666 1594 LINE",
"463 1446 LINE",
"317 1446 LINE",
"317 1515 LINE",
"556 1791 LINE",
"780 1791 LINE"
);
}
);
width = 1383;
}
);
unicode = 00DB;
},
{
glyphname = Udieresis;
lastChange = "2012-07-01 20:33:18 +0000";
layers = (
{
layerId = "3DB320B4-16A0-42F5-9048-CF6BF22037FA";
name = Bold;
paths = (
{
closed = 1;
nodes = (
"478 -19 OFFCURVE",
"333 32 OFFCURVE",
"232 125 CURVE SMOOTH",
"131 217 OFFCURVE",
"73 353 OFFCURVE",
"73 522 CURVE",
"123 1409 LINE",
"370 1409 LINE",
"320 710 LINE",
"335 501 OFFCURVE",
"446 383 OFFCURVE",
"651 383 CURVE SMOOTH",
"759 383 OFFCURVE",
"844 409 OFFCURVE",
"903 463 CURVE SMOOTH",
"962 517 OFFCURVE",
"993 598 OFFCURVE",
"993 711 CURVE SMOOTH",
"993 1409 LINE",
"1258 1409 LINE",
"1258 538 LINE SMOOTH",
"1258 363 OFFCURVE",
"1197 225 OFFCURVE",
"1092 129 CURVE SMOOTH",
"987 33 OFFCURVE",
"834 -19 OFFCURVE",
"653 -19 CURVE SMOOTH"
);
},
{
closed = 1;
nodes = (
"744 1466 LINE",
"744 1712 LINE",
"971 1712 LINE",
"971 1466 LINE"
);
},
{
closed = 1;
nodes = (
"377 1466 LINE",
"377 1712 LINE",
"606 1712 LINE",
"606 1466 LINE"
);
}
);
width = 1383;
}
);
unicode = 00DC;
},
{
glyphname = Yacute;
lastChange = "2012-07-01 20:33:18 +0000";
layers = (
{
layerId = "3DB320B4-16A0-42F5-9048-CF6BF22037FA";
name = Bold;
paths = (
{
closed = 1;
nodes = (
"843 502 LINE",
"936 0 LINE",
"432 0 LINE",
"529 502 LINE",
"489 573 OFFCURVE",
"447 647 OFFCURVE",
"404 724 CURVE SMOOTH",
"361 801 OFFCURVE",
"317 878 OFFCURVE",
"274 956 CURVE SMOOTH",
"230 1033 OFFCURVE",
"186 1110 OFFCURVE",
"143 1187 CURVE SMOOTH",
"100 1264 OFFCURVE",
"58 1338 OFFCURVE",
"18 1409 CURVE",
"303 1409 LINE",
"689 814 LINE",
"1071 1409 LINE",
"1356 1409 LINE"
);
},
{
closed = 1;
nodes = (
"556 1446 LINE",
"556 1514 LINE",
"777 1807 LINE",
"1025 1807 LINE",
"1025 1725 LINE",
"695 1446 LINE"
);
}
);
width = 1476;
}
);
unicode = 00DD;
},
{
glyphname = Thorn;
lastChange = "2012-07-01 20:33:18 +0000";
layers = (
{
layerId = "3DB320B4-16A0-42F5-9048-CF6BF22037FA";
name = Bold;
paths = (
{
closed = 1;
nodes = (
"1401 601 OFFCURVE",
"1354 488 OFFCURVE",
"1269 408 CURVE SMOOTH",
"1184 328 OFFCURVE",
"1060 281 OFFCURVE",
"905 281 CURVE SMOOTH",
"551 281 LINE",
"551 0 LINE",
"294 0 LINE",
"294 1409 LINE",
"551 1409 LINE",
"551 1171 LINE",
"893 1171 LINE SMOOTH",
"1053 1171 OFFCURVE",
"1179 1130 OFFCURVE",
"1267 1055 CURVE SMOOTH",
"1354 979 OFFCURVE",
"1401 870 OFFCURVE",
"1401 733 CURVE SMOOTH"
);
},
{
closed = 1;
nodes = (
"1144 875 OFFCURVE",
"1054 960 OFFCURVE",
"871 960 CURVE SMOOTH",
"551 960 LINE",
"551 490 LINE",
"879 490 LINE SMOOTH",
"1048 490 OFFCURVE",
"1144 578 OFFCURVE",
"1144 730 CURVE SMOOTH"
);
}
);
width = 1411;
}
);
unicode = 00DE;
},
{
glyphname = germandbls;
lastChange = "2012-07-01 20:33:18 +0000";
layers = (
{
layerId = "3DB320B4-16A0-42F5-9048-CF6BF22037FA";
name = Bold;
paths = (
{
closed = 1;
nodes = (
"1298 207 OFFCURVE",
"1264 124 OFFCURVE",
"1201 68 CURVE SMOOTH",
"1137 11 OFFCURVE",
"1044 -19 OFFCURVE",
"927 -19 CURVE SMOOTH",
"816 -19 OFFCURVE",
"716 1 OFFCURVE",
"627 40 CURVE",
"627 312 LINE",
"694 273 OFFCURVE",
"748 252 OFFCURVE",
"795 238 CURVE SMOOTH",
"842 224 OFFCURVE",
"883 220 OFFCURVE",
"924 220 CURVE SMOOTH",
"1015 220 OFFCURVE",
"1064 261 OFFCURVE",
"1064 336 CURVE SMOOTH",
"1064 400 OFFCURVE",
"1021 452 OFFCURVE",
"916 488 CURVE",
"852 532 OFFCURVE",
"803 575 OFFCURVE",
"771 623 CURVE SMOOTH",
"739 671 OFFCURVE",
"723 723 OFFCURVE",
"723 784 CURVE SMOOTH",
"723 829 OFFCURVE",
"733 865 OFFCURVE",
"753 898 CURVE SMOOTH",
"773 930 OFFCURVE",
"801 958 OFFCURVE",
"840 990 CURVE SMOOTH",
"903 1041 OFFCURVE",
"930 1082 OFFCURVE",
"930 1130 CURVE SMOOTH",
"930 1167 OFFCURVE",
"909 1198 OFFCURVE",
"876 1219 CURVE SMOOTH",
"843 1240 OFFCURVE",
"794 1251 OFFCURVE",
"741 1251 CURVE SMOOTH",
"582 1251 OFFCURVE",
"511 1166 OFFCURVE",
"511 989 CURVE SMOOTH",
"511 0 LINE",
"269 0 LINE",
"269 994 LINE SMOOTH",
"269 1303 OFFCURVE",
"428 1457 OFFCURVE",
"741 1457 CURVE SMOOTH",
"992 1457 OFFCURVE",
"1165 1336 OFFCURVE",
"1165 1143 CURVE SMOOTH",
"1165 1044 OFFCURVE",
"1127 958 OFFCURVE",
"1048 886 CURVE SMOOTH",
"1005 847 OFFCURVE",
"982 826 OFFCURVE",
"970 811 CURVE SMOOTH",
"957 795 OFFCURVE",
"955 786 OFFCURVE",
"955 774 CURVE SMOOTH",
"955 754 OFFCURVE",
"970 733 OFFCURVE",
"994 713 CURVE SMOOTH",
"1017 693 OFFCURVE",
"1048 671 OFFCURVE",
"1081 650 CURVE",
"1086 648 OFFCURVE",
"1090 645 OFFCURVE",
"1095 642 CURVE",
"1100 638 OFFCURVE",
"1104 635 OFFCURVE",
"1109 632 CURVE",
"1235 547 OFFCURVE",
"1298 440 OFFCURVE",
"1298 312 CURVE SMOOTH"
);
}
);
width = 1453;
}
);
unicode = 00DF;
},
{
glyphname = agrave;
lastChange = "2012-07-01 20:33:18 +0000";
layers = (
{
layerId = "3DB320B4-16A0-42F5-9048-CF6BF22037FA";
name = Bold;
paths = (
{
closed = 1;
nodes = (
"302 -19 OFFCURVE",
"216 14 OFFCURVE",
"159 72 CURVE SMOOTH",
"102 130 OFFCURVE",
"73 214 OFFCURVE",
"73 319 CURVE SMOOTH",
"73 551 OFFCURVE",
"232 659 OFFCURVE",
"528 675 CURVE SMOOTH",
"735 686 LINE",
"735 707 LINE SMOOTH",
"735 775 OFFCURVE",
"722 832 OFFCURVE",
"694 872 CURVE SMOOTH",
"665 912 OFFCURVE",
"621 934 OFFCURVE",
"560 934 CURVE SMOOTH",
"497 934 OFFCURVE",
"434 915 OFFCURVE",
"386 881 CURVE SMOOTH",
"338 847 OFFCURVE",
"303 798 OFFCURVE",
"296 741 CURVE",
"112 758 LINE",
"148 987 OFFCURVE",
"297 1101 OFFCURVE",
"560 1101 CURVE SMOOTH",
"840 1101 OFFCURVE",
"979 970 OFFCURVE",
"979 725 CURVE SMOOTH",
"979 362 LINE",
"981 345 OFFCURVE",
"983 330 OFFCURVE",
"984 317 CURVE SMOOTH",
"987 289 OFFCURVE",
"993 269 OFFCURVE",
"1006 258 CURVE SMOOTH",
"1013 252 OFFCURVE",
"1022 249 OFFCURVE",
"1034 249 CURVE SMOOTH",
"1041 249 OFFCURVE",
"1052 250 OFFCURVE",
"1067 253 CURVE",
"1082 255 OFFCURVE",
"1101 259 OFFCURVE",
"1126 265 CURVE",
"1126 13 LINE",
"1065 -3 OFFCURVE",
"1010 -9 OFFCURVE",
"961 -9 CURVE SMOOTH",
"844 -9 OFFCURVE",
"781 35 OFFCURVE",
"754 134 CURVE",
"670 26 OFFCURVE",
"563 -19 OFFCURVE",
"415 -19 CURVE SMOOTH"
);
},
{
closed = 1;
nodes = (
"493 314 OFFCURVE",
"542 328 OFFCURVE",
"583 347 CURVE SMOOTH",
"623 366 OFFCURVE",
"656 390 OFFCURVE",
"677 413 CURVE SMOOTH",
"697 434 OFFCURVE",
"707 463 OFFCURVE",
"707 502 CURVE SMOOTH",
"707 542 LINE",
"515 542 LINE SMOOTH",
"450 542 OFFCURVE",
"394 542 OFFCURVE",
"366 531 CURVE SMOOTH",
"303 507 OFFCURVE",
"272 466 OFFCURVE",
"271 394 CURVE",
"280 361 OFFCURVE",
"306 341 OFFCURVE",
"337 329 CURVE SMOOTH",
"368 317 OFFCURVE",
"405 314 OFFCURVE",
"440 314 CURVE SMOOTH"
);
},
{
closed = 1;
nodes = (
"517 1140 LINE",
"186 1419 LINE",
"186 1527 LINE",
"454 1527 LINE",
"677 1232 LINE",
"677 1140 LINE"
);
}
);
width = 1252;
}
);
unicode = 00E0;
},
{
glyphname = aacute;
lastChange = "2012-07-01 20:33:18 +0000";
layers = (
{
layerId = "3DB320B4-16A0-42F5-9048-CF6BF22037FA";
name = Bold;
paths = (
{
closed = 1;
nodes = (
"302 -19 OFFCURVE",
"216 14 OFFCURVE",
"159 72 CURVE SMOOTH",
"102 130 OFFCURVE",
"73 214 OFFCURVE",
"73 319 CURVE SMOOTH",
"73 551 OFFCURVE",
"232 659 OFFCURVE",
"528 675 CURVE SMOOTH",
"735 686 LINE",
"735 707 LINE SMOOTH",
"735 775 OFFCURVE",
"722 832 OFFCURVE",
"694 872 CURVE SMOOTH",
"665 912 OFFCURVE",
"621 934 OFFCURVE",
"560 934 CURVE SMOOTH",
"497 934 OFFCURVE",
"434 915 OFFCURVE",
"386 881 CURVE SMOOTH",
"338 847 OFFCURVE",
"303 798 OFFCURVE",
"296 741 CURVE",
"112 758 LINE",
"148 987 OFFCURVE",
"297 1101 OFFCURVE",
"560 1101 CURVE SMOOTH",
"840 1101 OFFCURVE",
"979 970 OFFCURVE",
"979 725 CURVE SMOOTH",
"979 362 LINE",
"981 345 OFFCURVE",
"983 330 OFFCURVE",
"984 317 CURVE SMOOTH",
"987 289 OFFCURVE",
"993 269 OFFCURVE",
"1006 258 CURVE SMOOTH",
"1013 252 OFFCURVE",
"1022 249 OFFCURVE",
"1034 249 CURVE SMOOTH",
"1041 249 OFFCURVE",
"1052 250 OFFCURVE",
"1067 253 CURVE",
"1082 255 OFFCURVE",
"1101 259 OFFCURVE",
"1126 265 CURVE",
"1126 13 LINE",
"1065 -3 OFFCURVE",
"1010 -9 OFFCURVE",
"961 -9 CURVE SMOOTH",
"844 -9 OFFCURVE",
"781 35 OFFCURVE",
"754 134 CURVE",
"670 26 OFFCURVE",
"563 -19 OFFCURVE",
"415 -19 CURVE SMOOTH"
);
},
{
closed = 1;
nodes = (
"493 314 OFFCURVE",
"542 328 OFFCURVE",
"583 347 CURVE SMOOTH",
"623 366 OFFCURVE",
"656 390 OFFCURVE",
"677 413 CURVE SMOOTH",
"697 434 OFFCURVE",
"707 463 OFFCURVE",
"707 502 CURVE SMOOTH",
"707 542 LINE",
"515 542 LINE SMOOTH",
"450 542 OFFCURVE",
"394 542 OFFCURVE",
"366 531 CURVE SMOOTH",
"303 507 OFFCURVE",
"272 466 OFFCURVE",
"271 394 CURVE",
"280 361 OFFCURVE",
"306 341 OFFCURVE",
"337 329 CURVE SMOOTH",
"368 317 OFFCURVE",
"405 314 OFFCURVE",
"440 314 CURVE SMOOTH"
);
},
{
closed = 1;
nodes = (
"303 1119 LINE",
"303 1187 LINE",
"524 1480 LINE",
"772 1480 LINE",
"772 1398 LINE",
"442 1119 LINE"
);
}
);
width = 1252;
}
);
unicode = 00E1;
},
{
glyphname = acircumflex;
lastChange = "2012-07-01 20:33:18 +0000";
layers = (
{
layerId = "3DB320B4-16A0-42F5-9048-CF6BF22037FA";
name = Bold;
paths = (
{
closed = 1;
nodes = (
"894 1188 LINE",
"894 1119 LINE",
"746 1119 LINE",
"552 1267 LINE",
"349 1119 LINE",
"203 1119 LINE",
"203 1188 LINE",
"442 1464 LINE",
"666 1464 LINE"
);
},
{
closed = 1;
nodes = (
"302 -19 OFFCURVE",
"216 14 OFFCURVE",
"159 72 CURVE SMOOTH",
"102 130 OFFCURVE",
"73 214 OFFCURVE",
"73 319 CURVE SMOOTH",
"73 551 OFFCURVE",
"232 659 OFFCURVE",
"528 675 CURVE SMOOTH",
"735 686 LINE",
"735 707 LINE SMOOTH",
"735 775 OFFCURVE",
"722 832 OFFCURVE",
"694 872 CURVE SMOOTH",
"665 912 OFFCURVE",
"621 934 OFFCURVE",
"560 934 CURVE SMOOTH",
"497 934 OFFCURVE",
"434 915 OFFCURVE",
"386 881 CURVE SMOOTH",
"338 847 OFFCURVE",
"303 798 OFFCURVE",
"296 741 CURVE",
"112 758 LINE",
"148 987 OFFCURVE",
"297 1101 OFFCURVE",
"560 1101 CURVE SMOOTH",
"840 1101 OFFCURVE",
"979 970 OFFCURVE",
"979 725 CURVE SMOOTH",
"979 362 LINE",
"981 345 OFFCURVE",
"983 330 OFFCURVE",
"984 317 CURVE SMOOTH",
"987 289 OFFCURVE",
"993 269 OFFCURVE",
"1006 258 CURVE SMOOTH",
"1013 252 OFFCURVE",
"1022 249 OFFCURVE",
"1034 249 CURVE SMOOTH",
"1041 249 OFFCURVE",
"1052 250 OFFCURVE",
"1067 253 CURVE",
"1082 255 OFFCURVE",
"1101 259 OFFCURVE",
"1126 265 CURVE",
"1126 13 LINE",
"1065 -3 OFFCURVE",
"1010 -9 OFFCURVE",
"961 -9 CURVE SMOOTH",
"844 -9 OFFCURVE",
"781 35 OFFCURVE",
"754 134 CURVE",
"670 26 OFFCURVE",
"563 -19 OFFCURVE",
"415 -19 CURVE SMOOTH"
);
},
{
closed = 1;
nodes = (
"493 314 OFFCURVE",
"542 328 OFFCURVE",
"583 347 CURVE SMOOTH",
"623 366 OFFCURVE",
"656 390 OFFCURVE",
"677 413 CURVE SMOOTH",
"697 434 OFFCURVE",
"707 463 OFFCURVE",
"707 502 CURVE SMOOTH",
"707 542 LINE",
"515 542 LINE SMOOTH",
"450 542 OFFCURVE",
"394 542 OFFCURVE",
"366 531 CURVE SMOOTH",
"303 507 OFFCURVE",
"272 466 OFFCURVE",
"271 394 CURVE",
"280 361 OFFCURVE",
"306 341 OFFCURVE",
"337 329 CURVE SMOOTH",
"368 317 OFFCURVE",
"405 314 OFFCURVE",
"440 314 CURVE SMOOTH"
);
}
);
width = 1252;
}
);
unicode = 00E2;
},
{
glyphname = atilde;
lastChange = "2012-07-01 20:33:18 +0000";
layers = (
{
layerId = "3DB320B4-16A0-42F5-9048-CF6BF22037FA";
name = Bold;
paths = (
{
closed = 1;
nodes = (
"302 -19 OFFCURVE",
"216 14 OFFCURVE",
"159 72 CURVE SMOOTH",
"102 130 OFFCURVE",
"73 214 OFFCURVE",
"73 319 CURVE SMOOTH",
"73 551 OFFCURVE",
"232 659 OFFCURVE",
"528 675 CURVE SMOOTH",
"735 686 LINE",
"735 707 LINE SMOOTH",
"735 775 OFFCURVE",
"722 832 OFFCURVE",
"694 872 CURVE SMOOTH",
"665 912 OFFCURVE",
"621 934 OFFCURVE",
"560 934 CURVE SMOOTH",
"497 934 OFFCURVE",
"434 915 OFFCURVE",
"386 881 CURVE SMOOTH",
"338 847 OFFCURVE",
"303 798 OFFCURVE",
"296 741 CURVE",
"112 758 LINE",
"148 987 OFFCURVE",
"297 1101 OFFCURVE",
"560 1101 CURVE SMOOTH",
"840 1101 OFFCURVE",
"979 970 OFFCURVE",
"979 725 CURVE SMOOTH",
"979 362 LINE",
"981 345 OFFCURVE",
"983 330 OFFCURVE",
"984 317 CURVE SMOOTH",
"987 289 OFFCURVE",
"993 269 OFFCURVE",
"1006 258 CURVE SMOOTH",
"1013 252 OFFCURVE",
"1022 249 OFFCURVE",
"1034 249 CURVE SMOOTH",
"1041 249 OFFCURVE",
"1052 250 OFFCURVE",
"1067 253 CURVE",
"1082 255 OFFCURVE",
"1101 259 OFFCURVE",
"1126 265 CURVE",
"1126 13 LINE",
"1065 -3 OFFCURVE",
"1010 -9 OFFCURVE",
"961 -9 CURVE SMOOTH",
"844 -9 OFFCURVE",
"781 35 OFFCURVE",
"754 134 CURVE",
"670 26 OFFCURVE",
"563 -19 OFFCURVE",
"415 -19 CURVE SMOOTH"
);
},
{
closed = 1;
nodes = (
"493 314 OFFCURVE",
"542 328 OFFCURVE",
"583 347 CURVE SMOOTH",
"623 366 OFFCURVE",
"656 390 OFFCURVE",
"677 413 CURVE SMOOTH",
"697 434 OFFCURVE",
"707 463 OFFCURVE",
"707 502 CURVE SMOOTH",
"707 542 LINE",
"515 542 LINE SMOOTH",
"450 542 OFFCURVE",
"394 542 OFFCURVE",
"366 531 CURVE SMOOTH",
"303 507 OFFCURVE",
"272 466 OFFCURVE",
"271 394 CURVE",
"280 361 OFFCURVE",
"306 341 OFFCURVE",
"337 329 CURVE SMOOTH",
"368 317 OFFCURVE",
"405 314 OFFCURVE",
"440 314 CURVE SMOOTH"
);
},
{
closed = 1;
nodes = (
"677 1119 OFFCURVE",
"621 1147 OFFCURVE",
"572 1175 CURVE",
"547 1188 OFFCURVE",
"525 1201 OFFCURVE",
"504 1213 CURVE",
"483 1224 OFFCURVE",
"464 1230 OFFCURVE",
"449 1230 CURVE SMOOTH",
"405 1230 OFFCURVE",
"383 1191 OFFCURVE",
"372 1119 CURVE",
"213 1119 LINE",
"222 1212 OFFCURVE",
"235 1273 OFFCURVE",
"253 1317 CURVE SMOOTH",
"271 1360 OFFCURVE",
"293 1384 OFFCURVE",
"324 1407 CURVE SMOOTH",
"355 1431 OFFCURVE",
"395 1443 OFFCURVE",
"444 1443 CURVE SMOOTH",
"500 1443 OFFCURVE",
"557 1415 OFFCURVE",
"606 1388 CURVE SMOOTH",
"631 1374 OFFCURVE",
"654 1361 OFFCURVE",
"675 1350 CURVE",
"696 1338 OFFCURVE",
"713 1332 OFFCURVE",
"728 1332 CURVE SMOOTH",
"769 1332 OFFCURVE",
"794 1369 OFFCURVE",
"804 1443 CURVE",
"964 1443 LINE",
"949 1310 OFFCURVE",
"922 1229 OFFCURVE",
"884 1181 CURVE SMOOTH",
"846 1133 OFFCURVE",
"795 1119 OFFCURVE",
"734 1119 CURVE SMOOTH"
);
}
);
width = 1252;
}
);
unicode = 00E3;
},
{
glyphname = adieresis;
lastChange = "2012-07-01 20:33:18 +0000";
layers = (
{
layerId = "3DB320B4-16A0-42F5-9048-CF6BF22037FA";
name = Bold;
paths = (
{
closed = 1;
nodes = (
"302 -19 OFFCURVE",
"216 14 OFFCURVE",
"159 72 CURVE SMOOTH",
"102 130 OFFCURVE",
"73 214 OFFCURVE",
"73 319 CURVE SMOOTH",
"73 551 OFFCURVE",
"232 659 OFFCURVE",
"528 675 CURVE SMOOTH",
"735 686 LINE",
"735 707 LINE SMOOTH",
"735 775 OFFCURVE",
"722 832 OFFCURVE",
"694 872 CURVE SMOOTH",
"665 912 OFFCURVE",
"621 934 OFFCURVE",
"560 934 CURVE SMOOTH",
"497 934 OFFCURVE",
"434 915 OFFCURVE",
"386 881 CURVE SMOOTH",
"338 847 OFFCURVE",
"303 798 OFFCURVE",
"296 741 CURVE",
"112 758 LINE",
"148 987 OFFCURVE",
"297 1101 OFFCURVE",
"560 1101 CURVE SMOOTH",
"840 1101 OFFCURVE",
"979 970 OFFCURVE",
"979 725 CURVE SMOOTH",
"979 362 LINE",
"981 345 OFFCURVE",
"983 330 OFFCURVE",
"984 317 CURVE SMOOTH",
"987 289 OFFCURVE",
"993 269 OFFCURVE",
"1006 258 CURVE SMOOTH",
"1013 252 OFFCURVE",
"1022 249 OFFCURVE",
"1034 249 CURVE SMOOTH",
"1041 249 OFFCURVE",
"1052 250 OFFCURVE",
"1067 253 CURVE",
"1082 255 OFFCURVE",
"1101 259 OFFCURVE",
"1126 265 CURVE",
"1126 13 LINE",
"1065 -3 OFFCURVE",
"1010 -9 OFFCURVE",
"961 -9 CURVE SMOOTH",
"844 -9 OFFCURVE",
"781 35 OFFCURVE",
"754 134 CURVE",
"670 26 OFFCURVE",
"563 -19 OFFCURVE",
"415 -19 CURVE SMOOTH"
);
},
{
closed = 1;
nodes = (
"493 314 OFFCURVE",
"542 328 OFFCURVE",
"583 347 CURVE SMOOTH",
"623 366 OFFCURVE",
"656 390 OFFCURVE",
"677 413 CURVE SMOOTH",
"697 434 OFFCURVE",
"707 463 OFFCURVE",
"707 502 CURVE SMOOTH",
"707 542 LINE",
"515 542 LINE SMOOTH",
"450 542 OFFCURVE",
"394 542 OFFCURVE",
"366 531 CURVE SMOOTH",
"303 507 OFFCURVE",
"272 466 OFFCURVE",
"271 394 CURVE",
"280 361 OFFCURVE",
"306 341 OFFCURVE",
"337 329 CURVE SMOOTH",
"368 317 OFFCURVE",
"405 314 OFFCURVE",
"440 314 CURVE SMOOTH"
);
},
{
closed = 1;
nodes = (
"641 1158 LINE",
"641 1404 LINE",
"868 1404 LINE",
"868 1158 LINE"
);
},
{
closed = 1;
nodes = (
"274 1158 LINE",
"274 1404 LINE",
"503 1404 LINE",
"503 1158 LINE"
);
}
);
width = 1252;
}
);
unicode = 00E4;
},
{
glyphname = aring;
lastChange = "2012-07-01 20:33:18 +0000";
layers = (
{
layerId = "3DB320B4-16A0-42F5-9048-CF6BF22037FA";
name = Bold;
paths = (
{
closed = 1;
nodes = (
"302 -19 OFFCURVE",
"216 14 OFFCURVE",
"159 72 CURVE SMOOTH",
"102 130 OFFCURVE",
"73 214 OFFCURVE",
"73 319 CURVE SMOOTH",
"73 551 OFFCURVE",
"232 659 OFFCURVE",
"528 675 CURVE SMOOTH",
"735 686 LINE",
"735 707 LINE SMOOTH",
"735 775 OFFCURVE",
"722 832 OFFCURVE",
"694 872 CURVE SMOOTH",
"665 912 OFFCURVE",
"621 934 OFFCURVE",
"560 934 CURVE SMOOTH",
"497 934 OFFCURVE",
"434 915 OFFCURVE",
"386 881 CURVE SMOOTH",
"338 847 OFFCURVE",
"303 798 OFFCURVE",
"296 741 CURVE",
"112 758 LINE",
"148 987 OFFCURVE",
"297 1101 OFFCURVE",
"560 1101 CURVE SMOOTH",
"840 1101 OFFCURVE",
"979 970 OFFCURVE",
"979 725 CURVE SMOOTH",
"979 362 LINE",
"981 345 OFFCURVE",
"983 330 OFFCURVE",
"984 317 CURVE SMOOTH",
"987 289 OFFCURVE",
"993 269 OFFCURVE",
"1006 258 CURVE SMOOTH",
"1013 252 OFFCURVE",
"1022 249 OFFCURVE",
"1034 249 CURVE SMOOTH",
"1041 249 OFFCURVE",
"1052 250 OFFCURVE",
"1067 253 CURVE",
"1082 255 OFFCURVE",
"1101 259 OFFCURVE",
"1126 265 CURVE",
"1126 13 LINE",
"1065 -3 OFFCURVE",
"1010 -9 OFFCURVE",
"961 -9 CURVE SMOOTH",
"844 -9 OFFCURVE",
"781 35 OFFCURVE",
"754 134 CURVE",
"670 26 OFFCURVE",
"563 -19 OFFCURVE",
"415 -19 CURVE SMOOTH"
);
},
{
closed = 1;
nodes = (
"493 314 OFFCURVE",
"542 328 OFFCURVE",
"583 347 CURVE SMOOTH",
"623 366 OFFCURVE",
"656 390 OFFCURVE",
"677 413 CURVE SMOOTH",
"697 434 OFFCURVE",
"707 463 OFFCURVE",
"707 502 CURVE SMOOTH",
"707 542 LINE",
"515 542 LINE SMOOTH",
"450 542 OFFCURVE",
"394 542 OFFCURVE",
"366 531 CURVE SMOOTH",
"303 507 OFFCURVE",
"272 466 OFFCURVE",
"271 394 CURVE",
"280 361 OFFCURVE",
"306 341 OFFCURVE",
"337 329 CURVE SMOOTH",
"368 317 OFFCURVE",
"405 314 OFFCURVE",
"440 314 CURVE SMOOTH"
);
},
{
closed = 1;
nodes = (
"831 1349 OFFCURVE",
"801 1283 OFFCURVE",
"753 1236 CURVE SMOOTH",
"705 1188 OFFCURVE",
"640 1158 OFFCURVE",
"569 1158 CURVE SMOOTH",
"498 1158 OFFCURVE",
"432 1187 OFFCURVE",
"384 1235 CURVE SMOOTH",
"336 1283 OFFCURVE",
"306 1349 OFFCURVE",
"306 1421 CURVE SMOOTH",
"306 1493 OFFCURVE",
"336 1559 OFFCURVE",
"384 1607 CURVE SMOOTH",
"432 1654 OFFCURVE",
"498 1683 OFFCURVE",
"569 1683 CURVE SMOOTH",
"640 1683 OFFCURVE",
"705 1653 OFFCURVE",
"753 1606 CURVE SMOOTH",
"801 1558 OFFCURVE",
"831 1493 OFFCURVE",
"831 1421 CURVE SMOOTH"
);
},
{
closed = 1;
nodes = (
"656 1446 OFFCURVE",
"646 1468 OFFCURVE",
"630 1484 CURVE SMOOTH",
"614 1500 OFFCURVE",
"593 1509 OFFCURVE",
"569 1509 CURVE SMOOTH",
"520 1509 OFFCURVE",
"480 1472 OFFCURVE",
"480 1421 CURVE SMOOTH",
"480 1370 OFFCURVE",
"517 1331 OFFCURVE",
"569 1331 CURVE SMOOTH",
"624 1331 OFFCURVE",
"656 1373 OFFCURVE",
"656 1421 CURVE SMOOTH"
);
}
);
width = 1252;
}
);
unicode = 00E5;
},
{
glyphname = ae;
lastChange = "2012-07-01 20:33:18 +0000";
layers = (
{
anchors = (
{
name = top;
position = "{1037, 1092}";
}
);
layerId = "3DB320B4-16A0-42F5-9048-CF6BF22037FA";
name = Bold;
paths = (
{
closed = 1;
nodes = (
"1144 469 LINE",
"1153 280 OFFCURVE",
"1234 182 OFFCURVE",
"1379 182 CURVE SMOOTH",
"1443 182 OFFCURVE",
"1494 199 OFFCURVE",
"1534 228 CURVE SMOOTH",
"1574 257 OFFCURVE",
"1603 298 OFFCURVE",
"1619 345 CURVE",
"1838 281 LINE",
"1762 81 OFFCURVE",
"1609 -19 OFFCURVE",
"1379 -19 CURVE SMOOTH",
"1192 -19 OFFCURVE",
"1060 50 OFFCURVE",
"981 182 CURVE",
"882 39 OFFCURVE",
"753 -19 OFFCURVE",
"580 -19 CURVE SMOOTH",
"464 -19 OFFCURVE",
"376 14 OFFCURVE",
"317 72 CURVE SMOOTH",
"258 130 OFFCURVE",
"229 214 OFFCURVE",
"229 319 CURVE SMOOTH",
"229 439 OFFCURVE",
"265 525 OFFCURVE",
"344 583 CURVE SMOOTH",
"423 641 OFFCURVE",
"544 673 OFFCURVE",
"713 686 CURVE",
"900 686 LINE",
"900 707 LINE SMOOTH",
"900 778 OFFCURVE",
"886 825 OFFCURVE",
"857 856 CURVE SMOOTH",
"828 887 OFFCURVE",
"782 899 OFFCURVE",
"721 899 CURVE SMOOTH",
"654 899 OFFCURVE",
"609 896 OFFCURVE",
"578 873 CURVE SMOOTH",
"547 850 OFFCURVE",
"530 809 OFFCURVE",
"519 736 CURVE",
"267 758 LINE",
"304 987 OFFCURVE",
"456 1101 OFFCURVE",
"725 1101 CURVE SMOOTH",
"869 1101 OFFCURVE",
"980 1061 OFFCURVE",
"1052 990 CURVE",
"1131 1064 OFFCURVE",
"1238 1101 OFFCURVE",
"1373 1101 CURVE SMOOTH",
"1694 1101 OFFCURVE",
"1854 910 OFFCURVE",
"1854 528 CURVE SMOOTH",
"1854 469 LINE"
);
},
{
closed = 1;
nodes = (
"900 498 LINE",
"777 469 LINE",
"752 472 OFFCURVE",
"709 472 OFFCURVE",
"688 472 CURVE SMOOTH",
"605 472 OFFCURVE",
"553 459 OFFCURVE",
"521 433 CURVE SMOOTH",
"488 407 OFFCURVE",
"476 368 OFFCURVE",
"476 316 CURVE SMOOTH",
"476 231 OFFCURVE",
"527 182 OFFCURVE",
"619 182 CURVE SMOOTH",
"700 182 OFFCURVE",
"772 212 OFFCURVE",
"821 261 CURVE SMOOTH",
"870 309 OFFCURVE",
"900 376 OFFCURVE",
"900 452 CURVE SMOOTH"
);
},
{
closed = 1;
nodes = (
"1602 672 LINE",
"1591 756 OFFCURVE",
"1568 814 OFFCURVE",
"1530 851 CURVE SMOOTH",
"1492 887 OFFCURVE",
"1438 903 OFFCURVE",
"1370 903 CURVE SMOOTH",
"1245 903 OFFCURVE",
"1166 821 OFFCURVE",
"1149 672 CURVE"
);
}
);
width = 2073;
}
);
unicode = 00E6;
},
{
glyphname = ccedilla;
lastChange = "2012-07-01 20:33:18 +0000";
layers = (
{
layerId = "3DB320B4-16A0-42F5-9048-CF6BF22037FA";
name = Bold;
paths = (
{
closed = 1;
nodes = (
"760 -335 OFFCURVE",
"662 -404 OFFCURVE",
"467 -404 CURVE SMOOTH",
"430 -404 OFFCURVE",
"393 -403 OFFCURVE",
"346 -396 CURVE",
"346 -230 LINE",
"403 -237 OFFCURVE",
"441 -240 OFFCURVE",
"464 -240 CURVE SMOOTH",
"530 -240 OFFCURVE",
"563 -227 OFFCURVE",
"563 -202 CURVE SMOOTH",
"563 -179 OFFCURVE",
"534 -168 OFFCURVE",
"477 -168 CURVE SMOOTH",
"453 -168 OFFCURVE",
"406 -172 OFFCURVE",
"369 -176 CURVE",
"427 -10 LINE",
"190 33 OFFCURVE",
"65 221 OFFCURVE",
"65 542 CURVE SMOOTH",
"65 906 OFFCURVE",
"231 1101 OFFCURVE",
"534 1101 CURVE SMOOTH",
"645 1101 OFFCURVE",
"733 1077 OFFCURVE",
"797 1028 CURVE",
"826 1004 OFFCURVE",
"846 982 OFFCURVE",
"863 955 CURVE SMOOTH",
"872 941 OFFCURVE",
"881 926 OFFCURVE",
"890 910 CURVE SMOOTH",
"899 893 OFFCURVE",
"911 875 OFFCURVE",
"924 855 CURVE",
"761 717 LINE",
"726 774 OFFCURVE",
"699 819 OFFCURVE",
"665 849 CURVE SMOOTH",
"631 879 OFFCURVE",
"590 895 OFFCURVE",
"530 895 CURVE SMOOTH",
"450 895 OFFCURVE",
"397 871 OFFCURVE",
"363 816 CURVE SMOOTH",
"329 760 OFFCURVE",
"314 673 OFFCURVE",
"314 546 CURVE SMOOTH",
"314 458 OFFCURVE",
"340 400 OFFCURVE",
"381 364 CURVE SMOOTH",
"422 328 OFFCURVE",
"478 315 OFFCURVE",
"538 315 CURVE SMOOTH",
"568 315 OFFCURVE",
"593 318 OFFCURVE",
"612 324 CURVE SMOOTH",
"631 330 OFFCURVE",
"647 334 OFFCURVE",
"658 335 CURVE SMOOTH",
"667 336 OFFCURVE",
"678 343 OFFCURVE",
"691 356 CURVE SMOOTH",
"704 369 OFFCURVE",
"720 387 OFFCURVE",
"738 410 CURVE",
"972 203 LINE",
"897 115 OFFCURVE",
"835 58 OFFCURVE",
"784 27 CURVE SMOOTH",
"744 3 OFFCURVE",
"684 -12 OFFCURVE",
"604 -17 CURVE",
"601 -24 LINE",
"706 -43 OFFCURVE",
"760 -105 OFFCURVE",
"760 -198 CURVE SMOOTH"
);
}
);
width = 1083;
}
);
unicode = 00E7;
},
{
glyphname = egrave;
lastChange = "2012-07-01 20:33:18 +0000";
layers = (
{
layerId = "3DB320B4-16A0-42F5-9048-CF6BF22037FA";
name = Bold;
paths = (
{
closed = 1;
nodes = (
"314 579 LINE",
"321 487 OFFCURVE",
"346 433 OFFCURVE",
"390 398 CURVE SMOOTH",
"414 378 OFFCURVE",
"441 360 OFFCURVE",
"474 347 CURVE SMOOTH",
"506 334 OFFCURVE",
"547 325 OFFCURVE",
"602 325 CURVE SMOOTH",
"643 325 OFFCURVE",
"676 326 OFFCURVE",
"699 328 CURVE SMOOTH",
"722 330 OFFCURVE",
"739 332 OFFCURVE",
"749 333 CURVE",
"769 336 OFFCURVE",
"787 338 OFFCURVE",
"804 339 CURVE",
"837 339 OFFCURVE",
"873 342 OFFCURVE",
"921 354 CURVE SMOOTH",
"944 360 OFFCURVE",
"973 371 OFFCURVE",
"1007 386 CURVE",
"1007 49 LINE",
"959 20 OFFCURVE",
"910 5 OFFCURVE",
"856 -3 CURVE SMOOTH",
"829 -7 OFFCURVE",
"800 -10 OFFCURVE",
"771 -12 CURVE SMOOTH",
"742 -14 OFFCURVE",
"711 -16 OFFCURVE",
"680 -19 CURVE",
"562 -19 LINE SMOOTH",
"237 -19 OFFCURVE",
"66 174 OFFCURVE",
"66 539 CURVE SMOOTH",
"66 908 OFFCURVE",
"240 1101 OFFCURVE",
"555 1101 CURVE SMOOTH",
"827 1101 OFFCURVE",
"980 944 OFFCURVE",
"1009 645 CURVE",
"1009 581 LINE"
);
},
{
closed = 1;
nodes = (
"785 751 LINE",
"768 798 OFFCURVE",
"742 840 OFFCURVE",
"705 871 CURVE SMOOTH",
"668 902 OFFCURVE",
"617 921 OFFCURVE",
"552 921 CURVE SMOOTH",
"492 921 OFFCURVE",
"444 901 OFFCURVE",
"408 870 CURVE SMOOTH",
"372 838 OFFCURVE",
"348 796 OFFCURVE",
"335 751 CURVE"
);
},
{
closed = 1;
nodes = (
"585 1159 LINE",
"254 1438 LINE",
"254 1546 LINE",
"522 1546 LINE",
"745 1251 LINE",
"745 1159 LINE"
);
}
);
width = 1161;
}
);
unicode = 00E8;
},
{
glyphname = eacute;
lastChange = "2012-07-01 20:33:18 +0000";
layers = (
{
layerId = "3DB320B4-16A0-42F5-9048-CF6BF22037FA";
name = Bold;
paths = (
{
closed = 1;
nodes = (
"314 579 LINE",
"321 487 OFFCURVE",
"346 433 OFFCURVE",
"390 398 CURVE SMOOTH",
"414 378 OFFCURVE",
"441 360 OFFCURVE",
"474 347 CURVE SMOOTH",
"506 334 OFFCURVE",
"547 325 OFFCURVE",
"602 325 CURVE SMOOTH",
"643 325 OFFCURVE",
"676 326 OFFCURVE",
"699 328 CURVE SMOOTH",
"722 330 OFFCURVE",
"739 332 OFFCURVE",
"749 333 CURVE",
"769 336 OFFCURVE",
"787 338 OFFCURVE",
"804 339 CURVE",
"837 339 OFFCURVE",
"873 342 OFFCURVE",
"921 354 CURVE SMOOTH",
"944 360 OFFCURVE",
"973 371 OFFCURVE",
"1007 386 CURVE",
"1007 49 LINE",
"959 20 OFFCURVE",
"910 5 OFFCURVE",
"856 -3 CURVE SMOOTH",
"829 -7 OFFCURVE",
"800 -10 OFFCURVE",
"771 -12 CURVE SMOOTH",
"742 -14 OFFCURVE",
"711 -16 OFFCURVE",
"680 -19 CURVE",
"562 -19 LINE SMOOTH",
"237 -19 OFFCURVE",
"66 174 OFFCURVE",
"66 539 CURVE SMOOTH",
"66 908 OFFCURVE",
"240 1101 OFFCURVE",
"555 1101 CURVE SMOOTH",
"827 1101 OFFCURVE",
"980 944 OFFCURVE",
"1009 645 CURVE",
"1009 581 LINE"
);
},
{
closed = 1;
nodes = (
"785 751 LINE",
"768 798 OFFCURVE",
"742 840 OFFCURVE",
"705 871 CURVE SMOOTH",
"668 902 OFFCURVE",
"617 921 OFFCURVE",
"552 921 CURVE SMOOTH",
"492 921 OFFCURVE",
"444 901 OFFCURVE",
"408 870 CURVE SMOOTH",
"372 838 OFFCURVE",
"348 796 OFFCURVE",
"335 751 CURVE"
);
},
{
closed = 1;
nodes = (
"346 1119 LINE",
"346 1187 LINE",
"567 1480 LINE",
"815 1480 LINE",
"815 1398 LINE",
"485 1119 LINE"
);
}
);
width = 1161;
}
);
unicode = 00E9;
},
{
glyphname = ecircumflex;
lastChange = "2012-07-01 20:33:18 +0000";
layers = (
{
layerId = "3DB320B4-16A0-42F5-9048-CF6BF22037FA";
name = Bold;
paths = (
{
closed = 1;
nodes = (
"314 579 LINE",
"321 487 OFFCURVE",
"346 433 OFFCURVE",
"390 398 CURVE SMOOTH",
"414 378 OFFCURVE",
"441 360 OFFCURVE",
"474 347 CURVE SMOOTH",
"506 334 OFFCURVE",
"547 325 OFFCURVE",
"602 325 CURVE SMOOTH",
"643 325 OFFCURVE",
"676 326 OFFCURVE",
"699 328 CURVE SMOOTH",
"722 330 OFFCURVE",
"739 332 OFFCURVE",
"749 333 CURVE",
"769 336 OFFCURVE",
"787 338 OFFCURVE",
"804 339 CURVE",
"837 339 OFFCURVE",
"873 342 OFFCURVE",
"921 354 CURVE SMOOTH",
"944 360 OFFCURVE",
"973 371 OFFCURVE",
"1007 386 CURVE",
"1007 49 LINE",
"959 20 OFFCURVE",
"910 5 OFFCURVE",
"856 -3 CURVE SMOOTH",
"829 -7 OFFCURVE",
"800 -10 OFFCURVE",
"771 -12 CURVE SMOOTH",
"742 -14 OFFCURVE",
"711 -16 OFFCURVE",
"680 -19 CURVE",
"562 -19 LINE SMOOTH",
"237 -19 OFFCURVE",
"66 174 OFFCURVE",
"66 539 CURVE SMOOTH",
"66 908 OFFCURVE",
"240 1101 OFFCURVE",
"555 1101 CURVE SMOOTH",
"827 1101 OFFCURVE",
"980 944 OFFCURVE",
"1009 645 CURVE",
"1009 581 LINE"
);
},
{
closed = 1;
nodes = (
"785 751 LINE",
"768 798 OFFCURVE",
"742 840 OFFCURVE",
"705 871 CURVE SMOOTH",
"668 902 OFFCURVE",
"617 921 OFFCURVE",
"552 921 CURVE SMOOTH",
"492 921 OFFCURVE",
"444 901 OFFCURVE",
"408 870 CURVE SMOOTH",
"372 838 OFFCURVE",
"348 796 OFFCURVE",
"335 751 CURVE"
);
},
{
closed = 1;
nodes = (
"854 1188 LINE",
"854 1119 LINE",
"706 1119 LINE",
"512 1267 LINE",
"309 1119 LINE",
"163 1119 LINE",
"163 1188 LINE",
"402 1464 LINE",
"626 1464 LINE"
);
}
);
width = 1161;
}
);
unicode = 00EA;
},
{
glyphname = edieresis;
lastChange = "2012-07-01 20:33:18 +0000";
layers = (
{
layerId = "3DB320B4-16A0-42F5-9048-CF6BF22037FA";
name = Bold;
paths = (
{
closed = 1;
nodes = (
"314 579 LINE",
"321 487 OFFCURVE",
"346 433 OFFCURVE",
"390 398 CURVE SMOOTH",
"414 378 OFFCURVE",
"441 360 OFFCURVE",
"474 347 CURVE SMOOTH",
"506 334 OFFCURVE",
"547 325 OFFCURVE",
"602 325 CURVE SMOOTH",
"643 325 OFFCURVE",
"676 326 OFFCURVE",
"699 328 CURVE SMOOTH",
"722 330 OFFCURVE",
"739 332 OFFCURVE",
"749 333 CURVE",
"769 336 OFFCURVE",
"787 338 OFFCURVE",
"804 339 CURVE",
"837 339 OFFCURVE",
"873 342 OFFCURVE",
"921 354 CURVE SMOOTH",
"944 360 OFFCURVE",
"973 371 OFFCURVE",
"1007 386 CURVE",
"1007 49 LINE",
"959 20 OFFCURVE",
"910 5 OFFCURVE",
"856 -3 CURVE SMOOTH",
"829 -7 OFFCURVE",
"800 -10 OFFCURVE",
"771 -12 CURVE SMOOTH",
"742 -14 OFFCURVE",
"711 -16 OFFCURVE",
"680 -19 CURVE",
"562 -19 LINE SMOOTH",
"237 -19 OFFCURVE",
"66 174 OFFCURVE",
"66 539 CURVE SMOOTH",
"66 908 OFFCURVE",
"240 1101 OFFCURVE",
"555 1101 CURVE SMOOTH",
"827 1101 OFFCURVE",
"980 944 OFFCURVE",
"1009 645 CURVE",
"1009 581 LINE"
);
},
{
closed = 1;
nodes = (
"785 751 LINE",
"768 798 OFFCURVE",
"742 840 OFFCURVE",
"705 871 CURVE SMOOTH",
"668 902 OFFCURVE",
"617 921 OFFCURVE",
"552 921 CURVE SMOOTH",
"492 921 OFFCURVE",
"444 901 OFFCURVE",
"408 870 CURVE SMOOTH",
"372 838 OFFCURVE",
"348 796 OFFCURVE",
"335 751 CURVE"
);
},
{
closed = 1;
nodes = (
"624 1159 LINE",
"624 1405 LINE",
"851 1405 LINE",
"851 1159 LINE"
);
},
{
closed = 1;
nodes = (
"257 1159 LINE",
"257 1405 LINE",
"486 1405 LINE",
"486 1159 LINE"
);
}
);
width = 1161;
}
);
unicode = 00EB;
},
{
glyphname = igrave;
lastChange = "2012-07-01 20:33:18 +0000";
layers = (
{
layerId = "3DB320B4-16A0-42F5-9048-CF6BF22037FA";
name = Bold;
paths = (
{
closed = 1;
nodes = (
"229 0 LINE",
"291 1083 LINE",
"577 1083 LINE",
"631 0 LINE"
);
},
{
closed = 1;
nodes = (
"374 1145 LINE",
"43 1424 LINE",
"43 1532 LINE",
"311 1532 LINE",
"534 1237 LINE",
"534 1145 LINE"
);
}
);
width = 702;
}
);
unicode = 00EC;
},
{
glyphname = iacute;
lastChange = "2012-07-01 20:33:18 +0000";
layers = (
{
layerId = "3DB320B4-16A0-42F5-9048-CF6BF22037FA";
name = Bold;
paths = (
{
closed = 1;
nodes = (
"109 0 LINE",
"171 1083 LINE",
"457 1083 LINE",
"511 0 LINE"
);
},
{
closed = 1;
nodes = (
"157 1197 LINE",
"157 1265 LINE",
"378 1558 LINE",
"626 1558 LINE",
"626 1476 LINE",
"296 1197 LINE"
);
}
);
width = 778;
}
);
unicode = 00ED;
},
{
glyphname = icircumflex;
lastChange = "2012-07-01 20:33:18 +0000";
layers = (
{
layerId = "3DB320B4-16A0-42F5-9048-CF6BF22037FA";
name = Bold;
paths = (
{
closed = 1;
nodes = (
"210 1 LINE",
"272 1084 LINE",
"558 1084 LINE",
"612 1 LINE"
);
},
{
closed = 1;
nodes = (
"722 1195 LINE",
"722 1126 LINE",
"574 1126 LINE",
"380 1274 LINE",
"177 1126 LINE",
"31 1126 LINE",
"31 1195 LINE",
"270 1471 LINE",
"494 1471 LINE"
);
}
);
width = 862;
}
);
unicode = 00EE;
},
{
glyphname = idieresis;
lastChange = "2012-07-01 20:33:18 +0000";
layers = (
{
layerId = "3DB320B4-16A0-42F5-9048-CF6BF22037FA";
name = Bold;
paths = (
{
closed = 1;
nodes = (
"144 -1 LINE",
"206 1082 LINE",
"492 1082 LINE",
"546 -1 LINE"
);
},
{
closed = 1;
nodes = (
"416 1135 LINE",
"416 1381 LINE",
"643 1381 LINE",
"643 1135 LINE"
);
},
{
closed = 1;
nodes = (
"49 1135 LINE",
"49 1381 LINE",
"278 1381 LINE",
"278 1135 LINE"
);
}
);
width = 757;
}
);
unicode = 00EF;
},
{
glyphname = eth;
lastChange = "2012-07-01 20:33:18 +0000";
layers = (
{
layerId = "3DB320B4-16A0-42F5-9048-CF6BF22037FA";
name = Bold;
paths = (
{
closed = 1;
nodes = (
"315 -19 OFFCURVE",
"143 157 OFFCURVE",
"143 485 CURVE SMOOTH",
"143 814 OFFCURVE",
"311 987 OFFCURVE",
"634 987 CURVE SMOOTH",
"681 987 OFFCURVE",
"726 982 OFFCURVE",
"765 971 CURVE",
"720 1046 OFFCURVE",
"671 1111 OFFCURVE",
"624 1158 CURVE",
"314 1021 LINE",
"314 1209 LINE",
"480 1282 LINE",
"427 1321 OFFCURVE",
"363 1360 OFFCURVE",
"295 1396 CURVE",
"311 1457 LINE",
"531 1457 LINE",
"584 1433 OFFCURVE",
"635 1404 OFFCURVE",
"686 1368 CURVE",
"1004 1505 LINE",
"1004 1318 LINE",
"836 1246 LINE",
"1031 1047 OFFCURVE",
"1128 799 OFFCURVE",
"1128 518 CURVE SMOOTH",
"1128 512 LINE SMOOTH",
"1128 161 OFFCURVE",
"963 -19 OFFCURVE",
"628 -19 CURVE SMOOTH"
);
},
{
closed = 1;
nodes = (
"877 592 OFFCURVE",
"860 668 OFFCURVE",
"821 717 CURVE SMOOTH",
"781 765 OFFCURVE",
"722 788 OFFCURVE",
"638 788 CURVE SMOOTH",
"469 788 OFFCURVE",
"394 697 OFFCURVE",
"394 485 CURVE SMOOTH",
"394 274 OFFCURVE",
"470 180 OFFCURVE",
"626 180 CURVE SMOOTH",
"799 180 OFFCURVE",
"877 272 OFFCURVE",
"877 485 CURVE SMOOTH"
);
}
);
width = 1318;
}
);
unicode = 00F0;
},
{
glyphname = ntilde;
lastChange = "2012-07-01 20:33:18 +0000";
layers = (
{
layerId = "3DB320B4-16A0-42F5-9048-CF6BF22037FA";
name = Bold;
paths = (
{
closed = 1;
nodes = (
"1034 0 LINE",
"979 703 LINE SMOOTH",
"968 842 OFFCURVE",
"939 938 OFFCURVE",
"882 1001 CURVE SMOOTH",
"825 1064 OFFCURVE",
"740 1092 OFFCURVE",
"619 1092 CURVE SMOOTH",
"498 1092 OFFCURVE",
"408 1058 OFFCURVE",
"339 986 CURVE",
"345 1073 LINE",
"113 1073 LINE",
"109 1037 OFFCURVE",
"107 1009 OFFCURVE",
"107 989 CURVE SMOOTH",
"107 975 OFFCURVE",
"107 961 OFFCURVE",
"108 948 CURVE SMOOTH",
"109 934 OFFCURVE",
"109 921 OFFCURVE",
"109 908 CURVE SMOOTH",
"109 903 OFFCURVE",
"109 895 OFFCURVE",
"109 885 CURVE",
"108 874 OFFCURVE",
"108 857 OFFCURVE",
"107 834 CURVE SMOOTH",
"106 810 OFFCURVE",
"105 778 OFFCURVE",
"103 738 CURVE SMOOTH",
"101 697 OFFCURVE",
"99 644 OFFCURVE",
"96 579 CURVE SMOOTH",
"90 447 OFFCURVE",
"80 263 OFFCURVE",
"67 0 CURVE",
"389 0 LINE",
"357 656 LINE",
"358 725 OFFCURVE",
"378 781 OFFCURVE",
"410 825 CURVE SMOOTH",
"443 872 OFFCURVE",
"493 895 OFFCURVE",
"562 895 CURVE SMOOTH",
"627 895 OFFCURVE",
"672 887 OFFCURVE",
"700 862 CURVE SMOOTH",
"728 837 OFFCURVE",
"740 794 OFFCURVE",
"740 723 CURVE SMOOTH",
"740 717 OFFCURVE",
"740 711 OFFCURVE",
"740 706 CURVE SMOOTH",
"740 700 OFFCURVE",
"740 694 OFFCURVE",
"739 687 CURVE",
"673 0 LINE"
);
},
{
closed = 1;
nodes = (
"593 1119 OFFCURVE",
"537 1147 OFFCURVE",
"488 1175 CURVE",
"463 1188 OFFCURVE",
"441 1201 OFFCURVE",
"420 1213 CURVE",
"399 1224 OFFCURVE",
"380 1230 OFFCURVE",
"365 1230 CURVE SMOOTH",
"321 1230 OFFCURVE",
"299 1191 OFFCURVE",
"288 1119 CURVE",
"129 1119 LINE",
"138 1212 OFFCURVE",
"151 1273 OFFCURVE",
"169 1317 CURVE SMOOTH",
"187 1360 OFFCURVE",
"209 1384 OFFCURVE",
"240 1407 CURVE SMOOTH",
"271 1431 OFFCURVE",
"311 1443 OFFCURVE",
"360 1443 CURVE SMOOTH",
"416 1443 OFFCURVE",
"473 1415 OFFCURVE",
"522 1388 CURVE SMOOTH",
"547 1374 OFFCURVE",
"570 1361 OFFCURVE",
"591 1350 CURVE",
"612 1338 OFFCURVE",
"629 1332 OFFCURVE",
"644 1332 CURVE SMOOTH",
"685 1332 OFFCURVE",
"710 1369 OFFCURVE",
"720 1443 CURVE",
"880 1443 LINE",
"865 1310 OFFCURVE",
"838 1229 OFFCURVE",
"800 1181 CURVE SMOOTH",
"762 1133 OFFCURVE",
"711 1119 OFFCURVE",
"650 1119 CURVE SMOOTH"
);
}
);
width = 1144;
}
);
unicode = 00F1;
},
{
glyphname = ograve;
lastChange = "2012-07-01 20:33:18 +0000";
layers = (
{
layerId = "3DB320B4-16A0-42F5-9048-CF6BF22037FA";
name = Bold;
paths = (
{
closed = 1;
nodes = (
"1024 163 OFFCURVE",
"852 -19 OFFCURVE",
"532 -19 CURVE SMOOTH",
"213 -19 OFFCURVE",
"49 179 OFFCURVE",
"49 542 CURVE SMOOTH",
"49 909 OFFCURVE",
"212 1092 OFFCURVE",
"538 1092 CURVE SMOOTH",
"862 1092 OFFCURVE",
"1024 921 OFFCURVE",
"1024 542 CURVE SMOOTH"
);
},
{
closed = 1;
nodes = (
"774 679 OFFCURVE",
"759 764 OFFCURVE",
"722 817 CURVE SMOOTH",
"685 870 OFFCURVE",
"626 894 OFFCURVE",
"541 894 CURVE SMOOTH",
"453 894 OFFCURVE",
"392 870 OFFCURVE",
"354 816 CURVE SMOOTH",
"316 762 OFFCURVE",
"299 678 OFFCURVE",
"299 558 CURVE SMOOTH",
"299 387 OFFCURVE",
"363 355 OFFCURVE",
"531 355 CURVE SMOOTH",
"626 355 OFFCURVE",
"689 368 OFFCURVE",
"725 392 CURVE SMOOTH",
"758 414 OFFCURVE",
"774 469 OFFCURVE",
"774 558 CURVE SMOOTH"
);
},
{
closed = 1;
nodes = (
"466 1127 LINE",
"135 1406 LINE",
"135 1514 LINE",
"403 1514 LINE",
"626 1219 LINE",
"626 1127 LINE"
);
}
);
width = 1167;
}
);
unicode = 00F2;
},
{
glyphname = oacute;
lastChange = "2012-07-01 20:33:18 +0000";
layers = (
{
layerId = "3DB320B4-16A0-42F5-9048-CF6BF22037FA";
name = Bold;
paths = (
{
closed = 1;
nodes = (
"1024 163 OFFCURVE",
"852 -19 OFFCURVE",
"532 -19 CURVE SMOOTH",
"213 -19 OFFCURVE",
"49 179 OFFCURVE",
"49 542 CURVE SMOOTH",
"49 909 OFFCURVE",
"212 1092 OFFCURVE",
"538 1092 CURVE SMOOTH",
"862 1092 OFFCURVE",
"1024 921 OFFCURVE",
"1024 542 CURVE SMOOTH"
);
},
{
closed = 1;
nodes = (
"774 679 OFFCURVE",
"759 764 OFFCURVE",
"722 817 CURVE SMOOTH",
"685 870 OFFCURVE",
"626 894 OFFCURVE",
"541 894 CURVE SMOOTH",
"453 894 OFFCURVE",
"392 870 OFFCURVE",
"354 816 CURVE SMOOTH",
"316 762 OFFCURVE",
"299 678 OFFCURVE",
"299 558 CURVE SMOOTH",
"299 387 OFFCURVE",
"363 355 OFFCURVE",
"531 355 CURVE SMOOTH",
"626 355 OFFCURVE",
"689 368 OFFCURVE",
"725 392 CURVE SMOOTH",
"758 414 OFFCURVE",
"774 469 OFFCURVE",
"774 558 CURVE SMOOTH"
);
},
{
closed = 1;
nodes = (
"403 1119 LINE",
"403 1187 LINE",
"624 1480 LINE",
"872 1480 LINE",
"872 1398 LINE",
"542 1119 LINE"
);
}
);
width = 1167;
}
);
unicode = 00F3;
},
{
glyphname = ocircumflex;
lastChange = "2012-07-01 20:33:18 +0000";
layers = (
{
layerId = "3DB320B4-16A0-42F5-9048-CF6BF22037FA";
name = Bold;
paths = (
{
closed = 1;
nodes = (
"1024 163 OFFCURVE",
"852 -19 OFFCURVE",
"532 -19 CURVE SMOOTH",
"213 -19 OFFCURVE",
"49 179 OFFCURVE",
"49 542 CURVE SMOOTH",
"49 909 OFFCURVE",
"212 1092 OFFCURVE",
"538 1092 CURVE SMOOTH",
"862 1092 OFFCURVE",
"1024 921 OFFCURVE",
"1024 542 CURVE SMOOTH"
);
},
{
closed = 1;
nodes = (
"774 679 OFFCURVE",
"759 764 OFFCURVE",
"722 817 CURVE SMOOTH",
"685 870 OFFCURVE",
"626 894 OFFCURVE",
"541 894 CURVE SMOOTH",
"453 894 OFFCURVE",
"392 870 OFFCURVE",
"354 816 CURVE SMOOTH",
"316 762 OFFCURVE",
"299 678 OFFCURVE",
"299 558 CURVE SMOOTH",
"299 387 OFFCURVE",
"363 355 OFFCURVE",
"531 355 CURVE SMOOTH",
"626 355 OFFCURVE",
"689 368 OFFCURVE",
"725 392 CURVE SMOOTH",
"758 414 OFFCURVE",
"774 469 OFFCURVE",
"774 558 CURVE SMOOTH"
);
},
{
closed = 1;
nodes = (
"885 1188 LINE",
"885 1119 LINE",
"737 1119 LINE",
"543 1267 LINE",
"340 1119 LINE",
"194 1119 LINE",
"194 1188 LINE",
"433 1464 LINE",
"657 1464 LINE"
);
}
);
width = 1167;
}
);
unicode = 00F4;
},
{
glyphname = otilde;
lastChange = "2012-07-01 20:33:18 +0000";
layers = (
{
layerId = "3DB320B4-16A0-42F5-9048-CF6BF22037FA";
name = Bold;
paths = (
{
closed = 1;
nodes = (
"1024 163 OFFCURVE",
"852 -19 OFFCURVE",
"532 -19 CURVE SMOOTH",
"213 -19 OFFCURVE",
"49 179 OFFCURVE",
"49 542 CURVE SMOOTH",
"49 909 OFFCURVE",
"212 1092 OFFCURVE",
"538 1092 CURVE SMOOTH",
"862 1092 OFFCURVE",
"1024 921 OFFCURVE",
"1024 542 CURVE SMOOTH"
);
},
{
closed = 1;
nodes = (
"774 679 OFFCURVE",
"759 764 OFFCURVE",
"722 817 CURVE SMOOTH",
"685 870 OFFCURVE",
"626 894 OFFCURVE",
"541 894 CURVE SMOOTH",
"453 894 OFFCURVE",
"392 870 OFFCURVE",
"354 816 CURVE SMOOTH",
"316 762 OFFCURVE",
"299 678 OFFCURVE",
"299 558 CURVE SMOOTH",
"299 387 OFFCURVE",
"363 355 OFFCURVE",
"531 355 CURVE SMOOTH",
"626 355 OFFCURVE",
"689 368 OFFCURVE",
"725 392 CURVE SMOOTH",
"758 414 OFFCURVE",
"774 469 OFFCURVE",
"774 558 CURVE SMOOTH"
);
},
{
closed = 1;
nodes = (
"606 1161 OFFCURVE",
"550 1189 OFFCURVE",
"501 1217 CURVE",
"476 1230 OFFCURVE",
"454 1243 OFFCURVE",
"433 1255 CURVE",
"412 1266 OFFCURVE",
"393 1272 OFFCURVE",
"378 1272 CURVE SMOOTH",
"334 1272 OFFCURVE",
"312 1233 OFFCURVE",
"301 1161 CURVE",
"142 1161 LINE",
"151 1254 OFFCURVE",
"164 1315 OFFCURVE",
"182 1359 CURVE SMOOTH",
"200 1402 OFFCURVE",
"222 1426 OFFCURVE",
"253 1449 CURVE SMOOTH",
"284 1473 OFFCURVE",
"324 1485 OFFCURVE",
"373 1485 CURVE SMOOTH",
"429 1485 OFFCURVE",
"486 1457 OFFCURVE",
"535 1430 CURVE SMOOTH",
"560 1416 OFFCURVE",
"583 1403 OFFCURVE",
"604 1392 CURVE",
"625 1380 OFFCURVE",
"642 1374 OFFCURVE",
"657 1374 CURVE SMOOTH",
"698 1374 OFFCURVE",
"723 1411 OFFCURVE",
"733 1485 CURVE",
"893 1485 LINE",
"878 1352 OFFCURVE",
"851 1271 OFFCURVE",
"813 1223 CURVE SMOOTH",
"775 1175 OFFCURVE",
"724 1161 OFFCURVE",
"663 1161 CURVE SMOOTH"
);
}
);
width = 1167;
}
);
unicode = 00F5;
},
{
glyphname = odieresis;
lastChange = "2012-07-01 20:33:18 +0000";
layers = (
{
layerId = "3DB320B4-16A0-42F5-9048-CF6BF22037FA";
name = Bold;
paths = (
{
closed = 1;
nodes = (
"1024 163 OFFCURVE",
"852 -19 OFFCURVE",
"532 -19 CURVE SMOOTH",
"213 -19 OFFCURVE",
"49 179 OFFCURVE",
"49 542 CURVE SMOOTH",
"49 909 OFFCURVE",
"212 1092 OFFCURVE",
"538 1092 CURVE SMOOTH",
"862 1092 OFFCURVE",
"1024 921 OFFCURVE",
"1024 542 CURVE SMOOTH"
);
},
{
closed = 1;
nodes = (
"774 679 OFFCURVE",
"759 764 OFFCURVE",
"722 817 CURVE SMOOTH",
"685 870 OFFCURVE",
"626 894 OFFCURVE",
"541 894 CURVE SMOOTH",
"453 894 OFFCURVE",
"392 870 OFFCURVE",
"354 816 CURVE SMOOTH",
"316 762 OFFCURVE",
"299 678 OFFCURVE",
"299 558 CURVE SMOOTH",
"299 387 OFFCURVE",
"363 355 OFFCURVE",
"531 355 CURVE SMOOTH",
"626 355 OFFCURVE",
"689 368 OFFCURVE",
"725 392 CURVE SMOOTH",
"758 414 OFFCURVE",
"774 469 OFFCURVE",
"774 558 CURVE SMOOTH"
);
},
{
closed = 1;
nodes = (
"593 1157 LINE",
"593 1403 LINE",
"820 1403 LINE",
"820 1157 LINE"
);
},
{
closed = 1;
nodes = (
"226 1157 LINE",
"226 1403 LINE",
"455 1403 LINE",
"455 1157 LINE"
);
}
);
width = 1167;
}
);
unicode = 00F6;
},
{
glyphname = divide;
lastChange = "2012-07-01 20:33:18 +0000";
layers = (
{
layerId = "3DB320B4-16A0-42F5-9048-CF6BF22037FA";
name = Bold;
paths = (
{
closed = 1;
nodes = (
"409 893 LINE",
"409 1138 LINE",
"640 1138 LINE",
"640 893 LINE"
);
},
{
closed = 1;
nodes = (
"24 566 LINE",
"24 777 LINE",
"1026 777 LINE",
"1026 566 LINE"
);
},
{
closed = 1;
nodes = (
"409 208 LINE",
"409 453 LINE",
"640 453 LINE",
"640 208 LINE"
);
}
);
width = 1049;
}
);
unicode = 00F7;
},
{
glyphname = oslash;
lastChange = "2012-07-01 20:33:18 +0000";
layers = (
{
anchors = (
{
name = top;
position = "{612, 1092}";
}
);
layerId = "3DB320B4-16A0-42F5-9048-CF6BF22037FA";
name = Bold;
paths = (
{
closed = 1;
nodes = (
"247 -42 LINE",
"274 58 LINE",
"143 148 OFFCURVE",
"77 309 OFFCURVE",
"77 542 CURVE SMOOTH",
"77 905 OFFCURVE",
"237 1088 OFFCURVE",
"557 1092 CURVE",
"661 1471 LINE",
"934 1471 LINE",
"818 1043 LINE",
"975 967 OFFCURVE",
"1052 806 OFFCURVE",
"1052 542 CURVE SMOOTH",
"1052 163 OFFCURVE",
"880 -19 OFFCURVE",
"560 -19 CURVE SMOOTH",
"555 -19 OFFCURVE",
"550 -19 OFFCURVE",
"545 -18 CURVE",
"540 -18 OFFCURVE",
"535 -18 OFFCURVE",
"530 -18 CURVE",
"524 -42 LINE"
);
},
{
closed = 1;
nodes = (
"802 675 OFFCURVE",
"788 755 OFFCURVE",
"755 810 CURVE",
"632 358 LINE",
"739 367 OFFCURVE",
"802 381 OFFCURVE",
"802 558 CURVE SMOOTH"
);
},
{
closed = 1;
nodes = (
"327 481 OFFCURVE",
"341 428 OFFCURVE",
"368 401 CURVE",
"501 888 LINE",
"438 876 OFFCURVE",
"395 845 OFFCURVE",
"367 791 CURVE SMOOTH",
"339 737 OFFCURVE",
"327 661 OFFCURVE",
"327 558 CURVE SMOOTH"
);
}
);
width = 1224;
}
);
unicode = 00F8;
},
{
glyphname = ugrave;
lastChange = "2012-07-01 20:33:18 +0000";
layers = (
{
layerId = "3DB320B4-16A0-42F5-9048-CF6BF22037FA";
name = Bold;
paths = (
{
closed = 1;
nodes = (
"288 1092 LINE",
"288 538 LINE SMOOTH",
"288 451 OFFCURVE",
"297 397 OFFCURVE",
"323 363 CURVE SMOOTH",
"349 329 OFFCURVE",
"391 316 OFFCURVE",
"459 316 CURVE SMOOTH",
"530 316 OFFCURVE",
"578 337 OFFCURVE",
"611 382 CURVE SMOOTH",
"644 426 OFFCURVE",
"662 496 OFFCURVE",
"673 595 CURVE SMOOTH",
"728 1092 LINE",
"1018 1092 LINE",
"968 0 LINE",
"664 0 LINE",
"675 79 LINE",
"603 14 OFFCURVE",
"522 -19 OFFCURVE",
"402 -19 CURVE SMOOTH",
"281 -19 OFFCURVE",
"192 10 OFFCURVE",
"133 74 CURVE SMOOTH",
"73 138 OFFCURVE",
"45 235 OFFCURVE",
"45 374 CURVE SMOOTH",
"45 1092 LINE"
);
},
{
closed = 1;
nodes = (
"457 1102 LINE",
"126 1381 LINE",
"126 1489 LINE",
"394 1489 LINE",
"617 1194 LINE",
"617 1102 LINE"
);
}
);
width = 1074;
}
);
unicode = 00F9;
},
{
glyphname = uacute;
lastChange = "2012-07-01 20:33:18 +0000";
layers = (
{
layerId = "3DB320B4-16A0-42F5-9048-CF6BF22037FA";
name = Bold;
paths = (
{
closed = 1;
nodes = (
"288 1092 LINE",
"288 538 LINE SMOOTH",
"288 451 OFFCURVE",
"297 397 OFFCURVE",
"323 363 CURVE SMOOTH",
"349 329 OFFCURVE",
"391 316 OFFCURVE",
"459 316 CURVE SMOOTH",
"530 316 OFFCURVE",
"578 337 OFFCURVE",
"611 382 CURVE SMOOTH",
"644 426 OFFCURVE",
"662 496 OFFCURVE",
"673 595 CURVE SMOOTH",
"728 1092 LINE",
"1018 1092 LINE",
"968 0 LINE",
"664 0 LINE",
"675 79 LINE",
"603 14 OFFCURVE",
"522 -19 OFFCURVE",
"402 -19 CURVE SMOOTH",
"281 -19 OFFCURVE",
"192 10 OFFCURVE",
"133 74 CURVE SMOOTH",
"73 138 OFFCURVE",
"45 235 OFFCURVE",
"45 374 CURVE SMOOTH",
"45 1092 LINE"
);
},
{
closed = 1;
nodes = (
"243 1160 LINE",
"243 1228 LINE",
"464 1521 LINE",
"712 1521 LINE",
"712 1439 LINE",
"382 1160 LINE"
);
}
);
width = 1074;
}
);
unicode = 00FA;
},
{
glyphname = ucircumflex;
lastChange = "2012-07-01 20:33:18 +0000";
layers = (
{
layerId = "3DB320B4-16A0-42F5-9048-CF6BF22037FA";
name = Bold;
paths = (
{
closed = 1;
nodes = (
"288 1092 LINE",
"288 538 LINE SMOOTH",
"288 451 OFFCURVE",
"297 397 OFFCURVE",
"323 363 CURVE SMOOTH",
"349 329 OFFCURVE",
"391 316 OFFCURVE",
"459 316 CURVE SMOOTH",
"530 316 OFFCURVE",
"578 337 OFFCURVE",
"611 382 CURVE SMOOTH",
"644 426 OFFCURVE",
"662 496 OFFCURVE",
"673 595 CURVE SMOOTH",
"728 1092 LINE",
"1018 1092 LINE",
"968 0 LINE",
"664 0 LINE",
"675 79 LINE",
"603 14 OFFCURVE",
"522 -19 OFFCURVE",
"402 -19 CURVE SMOOTH",
"281 -19 OFFCURVE",
"192 10 OFFCURVE",
"133 74 CURVE SMOOTH",
"73 138 OFFCURVE",
"45 235 OFFCURVE",
"45 374 CURVE SMOOTH",
"45 1092 LINE"
);
},
{
closed = 1;
nodes = (
"850 1243 LINE",
"850 1174 LINE",
"702 1174 LINE",
"508 1322 LINE",
"305 1174 LINE",
"159 1174 LINE",
"159 1243 LINE",
"398 1519 LINE",
"622 1519 LINE"
);
}
);
width = 1074;
}
);
unicode = 00FB;
},
{
glyphname = udieresis;
lastChange = "2012-07-01 20:33:18 +0000";
layers = (
{
layerId = "3DB320B4-16A0-42F5-9048-CF6BF22037FA";
name = Bold;
paths = (
{
closed = 1;
nodes = (
"288 1092 LINE",
"288 538 LINE SMOOTH",
"288 451 OFFCURVE",
"297 397 OFFCURVE",
"323 363 CURVE SMOOTH",
"349 329 OFFCURVE",
"391 316 OFFCURVE",
"459 316 CURVE SMOOTH",
"530 316 OFFCURVE",
"578 337 OFFCURVE",
"611 382 CURVE SMOOTH",
"644 426 OFFCURVE",
"662 496 OFFCURVE",
"673 595 CURVE SMOOTH",
"728 1092 LINE",
"1018 1092 LINE",
"968 0 LINE",
"664 0 LINE",
"675 79 LINE",
"603 14 OFFCURVE",
"522 -19 OFFCURVE",
"402 -19 CURVE SMOOTH",
"281 -19 OFFCURVE",
"192 10 OFFCURVE",
"133 74 CURVE SMOOTH",
"73 138 OFFCURVE",
"45 235 OFFCURVE",
"45 374 CURVE SMOOTH",
"45 1092 LINE"
);
},
{
closed = 1;
nodes = (
"532 1216 LINE",
"532 1462 LINE",
"759 1462 LINE",
"759 1216 LINE"
);
},
{
closed = 1;
nodes = (
"165 1216 LINE",
"165 1462 LINE",
"394 1462 LINE",
"394 1216 LINE"
);
}
);
width = 1074;
}
);
unicode = 00FC;
},
{
glyphname = yacute;
lastChange = "2012-07-01 20:33:18 +0000";
layers = (
{
layerId = "3DB320B4-16A0-42F5-9048-CF6BF22037FA";
name = Bold;
paths = (
{
closed = 1;
nodes = (
"309 -396 OFFCURVE",
"253 -391 OFFCURVE",
"189 -382 CURVE",
"189 -53 LINE",
"237 -61 OFFCURVE",
"274 -64 OFFCURVE",
"305 -64 CURVE SMOOTH",
"369 -64 OFFCURVE",
"426 -49 OFFCURVE",
"470 -21 CURVE SMOOTH",
"514 7 OFFCURVE",
"544 47 OFFCURVE",
"552 98 CURVE",
"561 180 LINE",
"493 324 OFFCURVE",
"419 480 OFFCURVE",
"344 637 CURVE SMOOTH",
"307 715 OFFCURVE",
"270 793 OFFCURVE",
"234 870 CURVE SMOOTH",
"197 947 OFFCURVE",
"162 1021 OFFCURVE",
"128 1092 CURVE",
"370 1092 LINE",
"687 562 LINE",
"969 1092 LINE",
"1185 1092 LINE",
"779 23 LINE SMOOTH",
"736 -90 OFFCURVE",
"697 -169 OFFCURVE",
"657 -227 CURVE SMOOTH",
"617 -285 OFFCURVE",
"575 -323 OFFCURVE",
"526 -352 CURVE SMOOTH",
"475 -381 OFFCURVE",
"420 -396 OFFCURVE",
"360 -396 CURVE SMOOTH"
);
},
{
closed = 1;
nodes = (
"458 1119 LINE",
"458 1187 LINE",
"679 1480 LINE",
"927 1480 LINE",
"927 1398 LINE",
"597 1119 LINE"
);
}
);
width = 1215;
}
);
unicode = 00FD;
},
{
glyphname = thorn;
lastChange = "2012-07-01 20:33:18 +0000";
layers = (
{
layerId = "3DB320B4-16A0-42F5-9048-CF6BF22037FA";
name = Bold;
paths = (
{
closed = 1;
nodes = (
"294 1457 LINE",
"537 1457 LINE",
"537 1002 LINE",
"601 1070 OFFCURVE",
"688 1100 OFFCURVE",
"813 1100 CURVE SMOOTH",
"1086 1100 OFFCURVE",
"1222 929 OFFCURVE",
"1222 546 CURVE SMOOTH",
"1222 169 OFFCURVE",
"1086 -19 OFFCURVE",
"813 -19 CURVE SMOOTH",
"693 -19 OFFCURVE",
"602 13 OFFCURVE",
"537 76 CURVE",
"537 -396 LINE",
"294 -396 LINE"
);
},
{
closed = 1;
nodes = (
"971 670 OFFCURVE",
"957 759 OFFCURVE",
"925 815 CURVE SMOOTH",
"893 871 OFFCURVE",
"843 896 OFFCURVE",
"771 896 CURVE SMOOTH",
"607 896 OFFCURVE",
"545 773 OFFCURVE",
"542 528 CURVE SMOOTH",
"542 513 LINE SMOOTH",
"542 289 OFFCURVE",
"609 180 OFFCURVE",
"769 180 CURVE SMOOTH",
"842 180 OFFCURVE",
"893 206 OFFCURVE",
"925 264 CURVE SMOOTH",
"957 322 OFFCURVE",
"971 413 OFFCURVE",
"971 542 CURVE SMOOTH"
);
}
);
width = 1232;
}
);
unicode = 00FE;
},
{
glyphname = ydieresis;
lastChange = "2012-07-01 20:33:18 +0000";
layers = (
{
layerId = "3DB320B4-16A0-42F5-9048-CF6BF22037FA";
name = Bold;
paths = (
{
closed = 1;
nodes = (
"309 -396 OFFCURVE",
"253 -391 OFFCURVE",
"189 -382 CURVE",
"189 -53 LINE",
"237 -61 OFFCURVE",
"274 -64 OFFCURVE",
"305 -64 CURVE SMOOTH",
"369 -64 OFFCURVE",
"426 -49 OFFCURVE",
"470 -21 CURVE SMOOTH",
"514 7 OFFCURVE",
"544 47 OFFCURVE",
"552 98 CURVE",
"561 180 LINE",
"493 324 OFFCURVE",
"419 480 OFFCURVE",
"344 637 CURVE SMOOTH",
"307 715 OFFCURVE",
"270 793 OFFCURVE",
"234 870 CURVE SMOOTH",
"197 947 OFFCURVE",
"162 1021 OFFCURVE",
"128 1092 CURVE",
"370 1092 LINE",
"687 562 LINE",
"969 1092 LINE",
"1185 1092 LINE",
"779 23 LINE SMOOTH",
"736 -90 OFFCURVE",
"697 -169 OFFCURVE",
"657 -227 CURVE SMOOTH",
"617 -285 OFFCURVE",
"575 -323 OFFCURVE",
"526 -352 CURVE SMOOTH",
"475 -381 OFFCURVE",
"420 -396 OFFCURVE",
"360 -396 CURVE SMOOTH"
);
},
{
closed = 1;
nodes = (
"703 1136 LINE",
"703 1382 LINE",
"930 1382 LINE",
"930 1136 LINE"
);
},
{
closed = 1;
nodes = (
"336 1136 LINE",
"336 1382 LINE",
"565 1382 LINE",
"565 1136 LINE"
);
}
);
width = 1215;
}
);
unicode = 00FF;
},
{
glyphname = dotlessi;
lastChange = "2012-07-01 20:33:18 +0000";
layers = (
{
anchors = (
{
name = ogonek;
position = "{731, 10}";
},
{
name = top;
position = "{406, 1092}";
}
);
layerId = "3DB320B4-16A0-42F5-9048-CF6BF22037FA";
name = Bold;
paths = (
{
closed = 1;
nodes = (
"199 0 LINE",
"261 1083 LINE",
"547 1083 LINE",
"601 0 LINE"
);
}
);
width = 812;
}
);
unicode = 0131;
},
{
glyphname = OE;
lastChange = "2012-07-01 20:33:18 +0000";
layers = (
{
anchors = (
{
name = top;
position = "{1155, 1409}";
}
);
layerId = "3DB320B4-16A0-42F5-9048-CF6BF22037FA";
name = Bold;
paths = (
{
closed = 1;
nodes = (
"1111 0 LINE",
"1068 -7 OFFCURVE",
"999 -9 OFFCURVE",
"906 -9 CURVE SMOOTH",
"691 -9 OFFCURVE",
"518 61 OFFCURVE",
"399 186 CURVE SMOOTH",
"279 310 OFFCURVE",
"213 490 OFFCURVE",
"213 711 CURVE SMOOTH",
"213 931 OFFCURVE",
"280 1108 OFFCURVE",
"400 1230 CURVE SMOOTH",
"520 1352 OFFCURVE",
"693 1419 OFFCURVE",
"908 1419 CURVE SMOOTH",
"977 1419 OFFCURVE",
"1047 1416 OFFCURVE",
"1112 1409 CURVE",
"2011 1409 LINE",
"2011 1186 LINE",
"1252 1186 LINE",
"1252 834 LINE",
"1955 834 LINE",
"1955 612 LINE",
"1252 612 LINE",
"1252 335 LINE",
"2050 335 LINE",
"2050 0 LINE"
);
},
{
closed = 1;
nodes = (
"921 325 OFFCURVE",
"933 325 OFFCURVE",
"941 325 CURVE",
"949 324 OFFCURVE",
"956 324 OFFCURVE",
"962 324 CURVE SMOOTH",
"973 324 OFFCURVE",
"980 325 OFFCURVE",
"995 326 CURVE",
"995 1195 LINE",
"986 1196 OFFCURVE",
"978 1196 OFFCURVE",
"971 1196 CURVE SMOOTH",
"964 1196 OFFCURVE",
"957 1196 OFFCURVE",
"950 1196 CURVE SMOOTH",
"908 1196 LINE SMOOTH",
"621 1196 OFFCURVE",
"473 1024 OFFCURVE",
"473 711 CURVE SMOOTH",
"473 400 OFFCURVE",
"625 325 OFFCURVE",
"906 325 CURVE SMOOTH"
);
}
);
width = 2310;
}
);
unicode = 0152;
},
{
glyphname = oe;
lastChange = "2012-07-01 20:33:18 +0000";
layers = (
{
anchors = (
{
name = top;
position = "{1082, 1092}";
}
);
layerId = "3DB320B4-16A0-42F5-9048-CF6BF22037FA";
name = Bold;
paths = (
{
closed = 1;
nodes = (
"1225 523 LINE",
"1232 440 OFFCURVE",
"1255 380 OFFCURVE",
"1292 341 CURVE SMOOTH",
"1335 297 OFFCURVE",
"1399 270 OFFCURVE",
"1478 261 CURVE",
"1547 261 OFFCURVE",
"1585 265 OFFCURVE",
"1614 279 CURVE SMOOTH",
"1643 293 OFFCURVE",
"1666 318 OFFCURVE",
"1706 361 CURVE",
"1930 280 LINE",
"1854 81 OFFCURVE",
"1701 -19 OFFCURVE",
"1471 -19 CURVE SMOOTH",
"1308 -19 OFFCURVE",
"1185 32 OFFCURVE",
"1101 129 CURVE",
"1016 33 OFFCURVE",
"890 -19 OFFCURVE",
"729 -19 CURVE SMOOTH",
"569 -19 OFFCURVE",
"446 30 OFFCURVE",
"363 126 CURVE SMOOTH",
"279 221 OFFCURVE",
"236 361 OFFCURVE",
"236 542 CURVE SMOOTH",
"236 914 OFFCURVE",
"409 1101 OFFCURVE",
"734 1101 CURVE SMOOTH",
"901 1101 OFFCURVE",
"1025 1054 OFFCURVE",
"1106 960 CURVE",
"1192 1054 OFFCURVE",
"1312 1101 OFFCURVE",
"1465 1101 CURVE SMOOTH",
"1786 1101 OFFCURVE",
"1943 929 OFFCURVE",
"1943 582 CURVE SMOOTH",
"1943 523 LINE"
);
},
{
closed = 1;
nodes = (
"977 802 OFFCURVE",
"907 903 OFFCURVE",
"738 903 CURVE SMOOTH",
"562 903 OFFCURVE",
"486 795 OFFCURVE",
"486 582 CURVE SMOOTH",
"486 367 OFFCURVE",
"566 260 OFFCURVE",
"727 260 CURVE SMOOTH",
"816 260 OFFCURVE",
"879 285 OFFCURVE",
"919 338 CURVE SMOOTH",
"959 391 OFFCURVE",
"977 471 OFFCURVE",
"977 582 CURVE SMOOTH"
);
},
{
closed = 1;
nodes = (
"1687 740 LINE",
"1674 784 OFFCURVE",
"1648 825 OFFCURVE",
"1612 855 CURVE SMOOTH",
"1575 885 OFFCURVE",
"1525 903 OFFCURVE",
"1462 903 CURVE SMOOTH",
"1401 903 OFFCURVE",
"1351 881 OFFCURVE",
"1314 850 CURVE SMOOTH",
"1277 819 OFFCURVE",
"1251 777 OFFCURVE",
"1236 740 CURVE"
);
}
);
width = 2164;
}
);
unicode = 0153;
},
{
glyphname = circumflex;
lastChange = "2012-07-01 20:33:18 +0000";
layers = (
{
anchors = (
{
name = _top;
position = "{483.5, 1092}";
}
);
layerId = "3DB320B4-16A0-42F5-9048-CF6BF22037FA";
name = Bold;
paths = (
{
closed = 1;
nodes = (
"829 1188 LINE",
"829 1119 LINE",
"681 1119 LINE",
"487 1267 LINE",
"284 1119 LINE",
"138 1119 LINE",
"138 1188 LINE",
"377 1464 LINE",
"601 1464 LINE"
);
}
);
width = 972;
}
);
unicode = 02C6;
},
